<svg style="position: absolute; width: 0; height: 0; overflow: hidden;" version="1.1"
  xmlns="http://www.w3.org/2000/svg">
  <defs>
    <symbol id="logo" viewBox="0 0 500 373">
      <path
        d="M420.051,226.408C413.647,227.2 411.078,228.68 406.261,235.188C404.213,237.957 401.805,240.875 402.378,244.818C402.679,244.864 402.807,244.925 402.898,244.89C410.48,242.003 415.645,236.463 419.525,229.574C419.964,228.795 419.853,227.703 420.051,226.408M232.294,240.809C232.745,240.446 232.975,240.339 233.082,240.16C233.251,239.876 233.396,239.552 233.454,239.228C234.866,231.65 234.674,224.093 232.963,216.592C232.614,215.063 231.946,213.561 231.179,212.186C230.134,210.309 228.247,210.375 227.194,212.224C226.916,212.709 226.789,213.283 226.618,213.825C224.519,220.44 224.654,227.025 227.326,233.416C228.47,236.157 229.914,238.859 232.294,240.809M360.626,231.936C359.247,232.007 358.018,231.85 356.925,232.162C352.44,233.442 349.212,236.129 347.672,240.698C347.247,241.956 346.464,243.126 345.694,244.232C344.051,246.588 342.841,249.119 342.243,251.928C341.774,254.137 341.192,256.338 340.954,258.574C340.632,261.59 340.344,264.649 340.515,267.663C340.646,269.991 342.217,271.075 344.16,270.775C348.097,270.166 351.134,268.396 352.384,264.303C353.131,261.862 353.945,259.433 354.873,257.057C356.055,254.035 357.551,251.127 358.608,248.064C360.322,243.104 360.505,237.895 360.626,231.936M290.021,236.932C286.735,235.865 283.966,237.246 281.793,238.247C277.063,240.426 271.711,242.164 269.123,247.458C268.932,247.848 268.479,248.104 268.209,248.469C264.383,253.662 262.607,259.379 263.324,265.905C263.535,267.843 264.842,268.878 265.635,270.33C267.665,274.033 267.675,274.027 271.817,273.592C272.496,273.521 273.181,273.475 273.853,273.366C277.085,272.845 279.906,271.876 279.743,267.772C283.118,258.519 285.078,248.781 289.365,239.84C289.739,239.059 289.768,238.11 290.021,236.932M57.284,279.77C57.842,282.142 58.136,284.071 58.765,285.886C59.443,287.851 61.566,288.852 63.716,288.527C66.584,288.097 69.075,286.802 71.411,285.161C72.661,284.283 73.404,283.219 73.626,281.558C73.892,279.571 75.11,277.859 75.501,275.757C76.02,272.957 77.599,270.334 78.853,267.696C80.259,264.74 81.999,261.928 83.237,258.908C84.194,256.572 84.943,254.041 84.238,251.429C83.851,249.995 82.961,249.615 81.391,249.852C77.643,250.418 74.184,251.526 70.801,253.322C66.3,255.706 62.689,259.065 61.056,263.654C59.175,268.94 58.434,274.633 57.284,279.77M332.18,331.452C330.088,330.785 328.336,329.923 326.508,329.7C319.599,328.85 312.772,329.269 306.137,331.617C301.632,333.212 297.694,335.397 295.537,340.026C293.767,343.826 294.216,348.806 296.934,352.042C301.109,357.016 301.804,357.27 307.911,354.964C310.767,353.887 313.465,352.402 316.274,351.198C320.853,349.233 323.858,345.298 327.581,342.267C327.982,341.941 328.109,341.277 328.35,340.763C328.824,339.754 329.329,338.76 329.748,337.729C330.525,335.807 331.248,333.864 332.18,331.452M350.707,330.169C352.45,332.173 354.674,332.831 356.854,333.248C362.434,334.311 368.035,335.324 373.667,336.019C379.305,336.712 384.988,337.042 390.659,337.441C394.396,337.702 398.148,337.97 401.885,337.898C403.641,337.863 405.427,337.153 407.115,336.522C409.024,335.807 410.766,334.587 412.707,334.035C416.734,332.892 419.481,328.111 418.015,323.28C417.526,321.665 417.296,319.972 416.851,318.341C416.684,317.73 416.356,317.08 415.907,316.649C413.714,314.549 412.234,312.338 413.76,309.138C414.064,308.502 413.74,307.577 413.76,306.788C413.863,302.819 416.035,301.194 419.843,302.356C421.684,302.917 423.432,303.467 425.448,303.413C426.527,303.385 428.112,304.434 428.655,305.439C430.806,309.406 432.556,313.588 434.606,317.614C436.817,321.955 435.881,326.273 434.689,330.568C433.662,334.263 431.412,337.362 428.871,340.109C427.294,341.812 425.22,343.309 423.079,344.189C415.56,347.274 407.787,349.452 399.523,348.627C396.486,348.325 393.498,347.559 390.465,347.177C385.628,346.567 380.781,346.291 376.047,344.795C372.948,343.814 369.569,343.603 366.291,343.333C360.892,342.89 355.88,341.017 350.785,339.444C348.145,338.629 348.433,338.747 346.635,341.112C342.795,346.16 340.318,352.163 335.86,356.738C330.668,362.06 324.903,366.716 317.716,369.054C313.318,370.484 308.785,371.593 304.232,372.411C301.705,372.866 298.946,372.801 296.417,372.312C291.892,371.44 287.446,370.486 283.664,367.211C277.271,361.672 275.253,354.803 276.185,346.764C276.457,344.41 277.061,342.169 278.618,340.151C280.992,337.072 281.93,333.127 284.451,330.06C285.94,328.252 290.283,323.713 292.118,322.749C294.607,321.438 297.071,320.062 299.639,318.922C300.726,318.437 302.039,318.383 303.26,318.3C305.509,318.145 307.877,318.522 309.999,317.95C314.951,316.615 319.919,316.881 324.909,317.13C327.847,317.277 330.789,317.499 333.705,317.867C335.112,318.047 335.96,317.529 336.403,316.373C337.253,314.154 338.316,311.935 338.655,309.623C339.081,306.689 339.762,303.942 341.015,301.242C342.319,298.429 342.833,295.328 343.34,292.267C343.594,290.745 344.335,288.948 343.787,287.774C343.409,286.959 341.226,286.862 339.818,286.673C336.085,286.171 332.583,284.959 329.174,283.441C328.461,283.123 327.66,282.71 327.225,282.106C324.812,278.757 321.085,276.198 320.94,271.409C318.958,271.455 318.374,272.939 317.535,274.043C315.686,276.469 313.914,278.954 312.037,281.361C311.347,282.247 310.438,282.964 309.653,283.777C308.783,284.679 307.492,285.469 307.168,286.544C306.103,290.076 303.068,291.556 300.493,293.501C298.449,295.046 296.01,295.803 293.461,295.654C290.291,295.469 287.112,295.141 283.988,294.585C282.885,294.389 281.82,293.463 280.944,292.648C280.047,291.814 279.401,290.708 278.457,289.476C276.439,289.828 274.349,290.229 272.244,290.557C267.758,291.258 263.63,290.63 259.429,288.513C255.677,286.625 252.81,284.22 250.885,280.6C247.433,274.115 246.074,267.293 247.609,259.999C247.973,258.265 248.15,256.493 248.438,254.58C246.191,254.58 244.312,254.494 242.451,254.633C241.892,254.673 241.143,255.227 240.889,255.744C240.097,257.371 239.262,259.039 238.873,260.787C237.51,266.924 235.297,272.72 232.252,278.203C231.765,279.081 231.096,279.858 230.508,280.68C229.795,281.677 228.819,282.577 228.416,283.687C227.21,287.013 225.015,289.472 222.236,291.51C220.452,292.817 219.114,294.536 216.895,295.495C213.108,297.134 209.056,297.966 205.282,297.501C199.062,296.733 193.899,294.732 192.062,287.682C191.649,286.103 191.182,284.325 189.096,283.358C188.105,284.442 186.666,285.416 186.104,286.757C184.95,289.508 182.586,290.994 180.437,292.509C176.287,295.433 171.822,297.911 167.463,300.527C166.895,300.868 166.051,301.26 165.53,301.077C162.193,299.913 158.759,301.192 155.362,300.487C152.763,299.949 150.533,298.848 148.226,297.476C145.1,301.125 141.087,303.179 136.866,304.925C135.078,305.664 133.415,305.672 131.601,304.875C129.005,303.733 126.335,302.738 123.638,301.86C121.663,301.216 120.279,300.227 119.552,298.153C119.041,296.693 118.054,295.384 117.188,294.065C115.706,291.808 114.74,289.498 115.559,286.705C115.829,285.787 115.692,284.748 115.751,283.55C113.278,283.93 112.362,285.833 110.91,286.973C109.403,288.155 107.974,289.436 106.504,290.666C105.553,291.461 104.409,292.1 103.662,293.052C101.334,296.019 98.411,297.934 94.824,299.081C93.634,299.464 92.611,300.588 91.695,301.546C90.76,302.525 89.999,303.683 89.256,304.824C88.147,306.53 86.367,307.336 84.602,307.291C81.689,307.217 78.755,306.744 75.899,306.121C73.398,305.578 71.125,305.624 68.563,306.18C64.898,306.977 61.044,307.807 57.268,305.952C55.559,305.112 53.605,304.73 51.731,304.269C50.019,303.846 48.732,303.27 47.806,301.466C46.908,299.722 45.144,298.427 43.795,296.905C43.207,296.242 42.425,295.58 42.214,294.788C41.201,290.966 40.319,287.106 39.479,283.242C39.348,282.637 39.765,281.937 39.757,281.282C39.743,280.205 39.59,279.127 39.475,277.829C36.938,278.235 35.712,279.405 35.232,281.536C34.004,286.997 31.805,292.172 30.56,297.654C30.055,299.877 29.151,302.265 26.988,304.023C25.127,305.533 24.07,308.004 22.514,309.935C21.458,311.246 20.188,312.394 18.943,313.538C18.551,313.9 17.939,314.188 17.411,314.216C11.573,314.543 6.112,313.512 2,308.973C1.011,307.881 0.57,306.145 0.246,304.627C-0.61,300.608 0.888,297.017 2.868,293.679C5.19,289.762 8.204,286.429 11.875,283.656C13.166,282.68 14.048,281.165 15.027,280.003C11.076,272.639 10.653,264.903 9.95,257.238C9.584,253.249 10.325,249.431 12.091,245.801C12.512,244.937 12.522,243.881 12.822,242.947C14.187,238.69 21.215,230.752 25.327,228.646C27.407,227.58 29.463,227.504 31.553,228.442C33.764,229.435 35.486,232.303 34.749,234.53C33.946,236.956 33.627,239.649 31.581,241.582C28.911,244.105 28.142,247.693 26.946,250.931C25.508,254.828 26.684,258.751 28.057,262.573C29.244,265.871 30.13,269.276 31.169,272.627C31.297,273.046 31.553,273.425 31.863,274.045C34.791,272.603 37.643,271.246 40.436,269.776C40.969,269.496 41.414,268.831 41.654,268.243C42.89,265.209 44.105,262.162 45.214,259.079C47.669,252.265 52.045,246.773 57.546,242.323C61.211,239.357 65.347,236.837 70.116,235.79C71.105,235.573 72.126,235.46 73.136,235.404C74.602,235.323 76.153,235.631 77.528,235.257C80.718,234.391 83.604,235.553 86.465,236.421C87.71,236.799 88.821,238.161 89.623,239.33C91.342,241.832 92.609,244.661 94.448,247.059C97.047,250.444 96.951,254.367 96.783,258.124C96.618,261.82 95.603,265.442 93.68,268.831C92.516,270.883 91.808,273.525 91.888,275.869C92.009,279.365 89.844,282.005 89.305,285.195C88.99,287.047 88.296,288.836 87.79,290.588C89.445,292.215 90.855,292.094 92.253,290.916C93.036,290.257 93.801,289.55 94.446,288.761C97.527,284.983 100.726,281.286 103.56,277.329C105.525,274.585 107.221,271.572 108.576,268.479C110.6,263.855 113.753,259.975 116.349,255.734C119.17,251.129 122.309,246.715 125.082,242.083C126.035,240.494 126.298,238.493 126.84,236.793C131.967,236.33 135.044,238.142 136.244,242.792C137.255,246.707 137.865,250.656 137.811,254.86C137.718,261.894 135.825,268.656 135.598,275.628C135.537,277.492 135.261,279.434 134.627,281.173C133.985,282.927 134.522,284.236 135.284,285.736C137.499,285.42 139.22,284.617 140.757,282.788C143.961,278.97 147.543,275.485 150.04,271.093C153.757,264.552 156.591,257.675 158.212,250.323C158.401,249.461 158.306,248.515 158.224,247.619C157.831,243.404 159.122,239.832 162.092,236.807C164.925,233.924 168.16,234.705 171.323,235.825C174.187,236.84 175.171,239.117 175.663,242.13C176.319,246.155 174.905,249.747 174.181,253.455C172.914,259.917 170.882,266.197 168.29,272.267C166.843,275.656 165.217,278.97 163.389,282.927C164.71,282.633 165.451,282.605 166.069,282.311C172.054,279.472 177.562,276.03 181.72,270.668C183.377,268.529 185.536,266.781 187.455,264.846C189.455,262.828 190.349,260.344 190.878,257.575C191.768,252.903 192.678,248.203 194.076,243.668C195.103,240.339 196.815,237.2 198.43,234.085C199.416,232.18 203.47,230.855 205.403,231.729C206.245,232.109 207.226,232.985 207.429,233.813C207.878,235.639 208.244,237.633 207.975,239.459C207.362,243.602 206.092,247.653 205.56,251.801C204.95,256.574 203.949,261.371 204.886,266.244C205.077,267.237 204.964,268.29 204.974,269.315C204.978,269.655 204.843,270.015 204.92,270.332C205.663,273.451 206.152,276.669 207.286,279.641C208.317,282.347 209.944,282.504 212.399,280.763C212.491,280.696 212.586,280.632 212.673,280.559C218.573,275.622 223.446,269.945 225.985,262.504C226.827,260.037 228.007,257.687 228.988,255.267C229.364,254.341 229.618,253.364 229.856,252.633C227.949,250.756 226.018,249.292 224.67,247.414C223.174,245.325 221.978,242.943 221.068,240.531C219.831,237.256 218.967,233.839 217.997,230.466C217.814,229.824 217.781,229.105 217.836,228.432C218.333,222.085 218.706,215.722 221.076,209.687C222.457,206.171 224.928,204.169 228.664,203.706C232.047,203.287 236.676,206.028 238.239,209.054C241.726,215.816 242.379,223.166 242.806,230.539C243.047,234.689 242.85,238.865 242.85,243.233C243.478,243.362 244.139,243.688 244.727,243.589C247.174,243.179 249.604,242.657 252.029,242.132C252.443,242.041 252.911,241.805 253.178,241.491C254.852,239.52 256.773,237.677 258.04,235.462C259.574,232.778 261.624,230.774 264.143,229.169C268.599,226.334 273.43,224.477 278.664,223.619C280.209,223.368 281.66,222.57 283.203,222.288C287.081,221.582 290.865,222.139 294.564,223.452C296.385,224.099 298.276,224.56 300.066,225.275C302.466,226.233 304.319,227.778 305.13,230.406C306.806,235.825 306.832,241.334 306.016,246.852C305.03,253.535 303.906,260.182 301.425,266.554C300.547,268.807 300.545,271.401 300.144,273.819C303.386,274.56 304.969,274.043 306.421,271.705C309.355,266.977 312.178,262.178 315.138,257.468C316.345,255.549 317.569,253.545 319.194,252.011C320.9,250.396 321.389,248.449 322.017,246.399C322.507,244.808 323.308,243.306 324.031,241.793C324.812,240.156 325.65,238.547 326.488,236.938C326.9,236.149 327.195,235.182 327.835,234.647C330.781,232.186 333.35,229.353 336.633,227.184C340.108,224.888 343.86,223.344 347.601,221.805C352.078,219.965 356.834,219.032 361.802,219.415C363.913,219.576 366.085,219.117 368.216,218.835C369.932,218.607 370.961,219.318 371.83,220.754C373.842,224.069 374.567,227.804 374.909,231.499C375.354,236.314 375.395,241.153 374.563,246.03C373.804,250.484 373.204,254.951 371.901,259.288C371.156,261.763 370.352,264.224 369.442,267.122C371.74,266.29 373.325,264.989 374.75,263.523C376.637,261.582 378.313,259.427 380.262,257.555C381.79,256.087 382.372,254.331 382.449,252.373C382.576,249.196 383.651,246.223 384.217,243.163C384.944,239.242 386.887,235.901 388.572,232.544C390.349,229.002 393.214,225.929 395.937,222.957C400.721,217.731 407.59,217.109 413.949,215.698C416.495,215.132 419.358,215.943 422.065,216.235C422.695,216.304 423.412,216.672 423.855,217.131C425.198,218.517 426.825,219.832 427.588,221.515C428.392,223.287 428.521,225.446 428.595,227.448C428.714,230.631 427.147,233.416 425.768,236.123C423.482,240.597 420.097,244.31 416.418,247.677C415.131,248.855 413.347,249.538 411.712,250.277C408.706,251.636 405.647,252.891 402.598,254.155C400.055,255.209 399.648,255.897 400.045,258.557C400.606,262.327 405.02,268.821 410.085,269.244C411.424,269.355 412.735,269.79 413.857,269.51C417.06,267.859 420.333,266.326 423.444,264.518C426.175,262.933 428.821,261.163 431.322,259.238C433.275,257.734 434.972,255.893 436.743,254.161C441.128,249.87 444.268,244.776 446.565,239.107C447.375,237.111 449.056,235.313 449.318,233.295C449.574,231.316 448.444,229.185 448.07,227.095C447.149,221.972 447.649,216.735 451.078,212.939C454.711,208.919 457.474,203.813 463.046,201.68C466.318,200.428 469.687,200.125 473.062,199.934C475.633,199.789 477.506,201.89 477.983,204.735C478.346,206.888 477.246,208.954 474.923,209.824C472.641,210.677 471.098,212.151 469.941,214.236C468.837,216.221 467.54,218.098 466.364,220.045C464.177,223.668 464.264,225.448 467.379,228.098C470.247,230.535 471.254,233.906 472.605,237.119C473.416,239.049 473.922,241.107 474.641,243.346C477.74,241.697 480.652,240.561 483.054,238.751C485.462,236.936 487.661,234.659 489.405,232.198C491.477,229.274 493.876,226.447 494.679,222.754C495.013,221.219 496.276,221.008 497.641,221.11C499.027,221.213 499.687,222.081 499.842,223.315C500.231,226.423 499.935,229.457 498.582,232.327C495.968,237.869 492.353,242.579 487.593,246.517C483.604,249.822 479.892,253.485 476.999,257.851C475.986,259.379 475.613,261.034 475.633,262.975C475.67,266.606 474.872,270.175 473.201,273.451C472.804,274.23 472.027,274.82 471.409,275.481C469.089,277.96 466.771,280.442 464.429,282.901C463.891,283.465 463.34,284.101 462.661,284.432C460.228,285.616 457.81,286.902 455.251,287.73C452.913,288.487 450.408,288.755 447.957,289.122C446.745,289.305 445.49,289.204 444.258,289.267C441.616,289.399 440.033,288.451 438.996,285.944C438.229,284.087 437.139,282.231 436.942,280.299C436.273,273.755 438.672,269.506 444.9,265.97C445.393,265.692 445.877,265.388 446.332,265.052C449.066,263.036 451.761,260.96 454.534,258.994C456.795,257.393 457.407,255.843 456.1,253.537C454.638,250.954 453.102,248.479 453.335,245.305C453.38,244.719 452.572,244.071 451.972,243.175C451.284,244.055 450.776,244.625 450.359,245.253C448.73,247.706 447.103,250.158 445.528,252.643C444.316,254.558 443.092,256.473 442.041,258.477C440.826,260.791 439.862,263.237 438.652,265.555C438.082,266.646 437.274,267.643 436.432,268.551C433.275,271.957 430.095,275.346 426.849,278.666C425.186,280.37 423.468,282.057 421.567,283.469C420.641,284.158 419.167,284.057 418.059,284.569C413.996,286.441 409.67,286.655 405.405,286.153C402.672,285.833 399.998,284.667 397.411,283.6C395.868,282.964 394.531,281.814 393.132,280.847C391.442,279.681 389.942,278.417 389.11,276.367C388.498,274.854 387.302,273.578 386.299,272.096C381.899,274.18 378.462,276.79 375.616,280.295C372.682,283.91 369.503,287.327 366.48,290.873C365.749,291.731 365.238,292.772 364.579,293.697C363.069,295.815 361.452,297.859 360.032,300.034C359.182,301.337 358.377,302.762 357.98,304.247C356.782,308.725 355.92,313.296 354.684,317.765C353.55,321.858 352.1,325.866 350.707,330.169" />
      <path
        d="M110.035,65.769C104.239,67.559 99.467,74.726 100.033,79.597C103.186,78.197 106.952,77.692 108.4,74.001C109.386,71.487 111.02,68.978 110.035,65.769M55.449,66.075C56.373,65.336 57.115,64.937 57.596,64.331C60.792,60.307 63.927,56.238 67.09,52.19C68.77,50.039 70.838,48.096 72.076,45.72C74.825,40.444 78.418,35.549 79.761,29.594C80.218,27.562 80.55,25.45 81.382,23.573C82.578,20.875 82.294,18.046 82.624,15.277C82.711,14.546 82.276,13.752 82.095,13.041C76.047,13.69 72.852,18.104 69.736,21.97C65.393,27.361 62.515,33.708 60.288,40.358C57.709,48.06 56.315,55.984 55.022,63.948C54.936,64.488 55.24,65.092 55.449,66.075M75.242,108.314C74.743,108.586 74.316,108.721 74.018,108.997C70.806,111.955 67.634,114.96 64.406,117.904C62.457,119.68 60.798,121.722 57.922,122.41C56.152,122.833 54.603,124.162 52.588,123.526C52.088,123.369 51.532,123.345 51.075,123.119C46.14,120.67 41.943,117.37 39.092,112.557C37.924,110.59 36.671,108.657 35.689,106.597C34.95,105.044 34.192,103.332 34.11,101.661C33.838,96.073 30.781,90.779 32.406,84.991C32.646,84.138 32.485,83.115 32.304,82.211C31.802,79.689 31.796,77.249 32.583,74.75C33.01,73.39 32.898,71.868 33.117,70.432C33.604,67.261 34.14,64.097 34.672,60.934C34.841,59.915 35.08,58.906 35.244,57.885C35.342,57.267 35.236,56.594 35.431,56.018C37.13,50.99 37.63,45.575 40.586,40.937C41.806,39.02 42.575,36.771 43.288,34.588C43.989,32.446 45.22,30.718 46.593,29C47.404,27.985 47.93,26.743 48.607,25.617C48.814,25.269 49.029,24.86 49.354,24.655C53.313,22.141 55.552,17.991 58.794,14.801C59.612,13.994 60.397,13.134 61.301,12.437C65.012,9.576 68.631,6.565 72.536,3.996C76.44,1.43 81.062,0.679 85.621,0.027C86.392,-0.084 87.308,0.162 88.031,0.508C91.07,1.958 93.172,4.457 94.962,7.198C95.444,7.933 95.566,8.974 95.635,9.892C95.719,11.04 95.472,12.212 95.554,13.36C95.927,18.47 94.898,23.221 92.695,27.881C91.056,31.348 90.168,35.162 88.782,38.759C86.716,44.121 83.134,48.543 79.507,52.887C76.841,56.081 74.537,59.639 70.8,61.844C69.96,62.339 69.497,63.451 68.816,64.242C65.047,68.626 60.86,72.567 56.239,76.041C54.891,77.053 54.549,78.511 54.686,79.981C55.206,85.559 55.657,91.159 56.567,96.679C56.917,98.81 57.638,100.872 57.755,103.105C57.886,105.596 59.4,106.131 61.305,104.474C64.136,102.009 67.582,100.221 69.62,96.852C70.01,96.206 70.939,95.807 71.698,95.479C73.756,94.589 74.622,92.944 75.059,90.863C76.758,82.746 79.865,75.195 84.821,68.537C88.424,63.7 92.719,59.468 98.51,57.289C103.947,55.243 109.435,54.828 114.356,58.674C115.623,59.663 116.807,61.139 117.312,62.631C118.17,65.177 118.376,67.746 117.461,70.593C115.8,75.773 112.733,79.867 109.159,83.737C108.16,84.82 107.236,85.968 106.255,87.066C104.193,89.371 101.817,91.127 98.804,92.142C93.69,93.864 92.677,97.543 94.32,102.404C94.819,103.88 95.679,105.239 96.414,106.631C97.246,108.206 98.81,108.912 100.353,108.775C102.395,108.596 104.38,107.807 106.4,107.328C110.871,106.268 114.076,103.278 117.437,100.412C120.194,98.062 121.94,95.241 122.973,91.84C124.59,86.516 126.189,81.182 128.005,75.926C128.646,74.073 129.973,72.47 130.859,70.69C132.637,67.118 134.119,63.384 136.092,59.929C140.547,52.12 144.886,44.196 152.238,38.541C155.305,36.183 160.797,37.333 162.393,40.807C162.522,41.086 162.653,41.437 162.601,41.719C161.95,45.092 162.424,48.608 160.986,51.898C159.083,56.248 158.181,60.899 157.665,65.597C157.289,69.019 157.122,72.464 156.973,75.906C156.93,76.892 157.277,77.897 157.55,79.526C158.795,78.566 159.56,77.943 160.358,77.368C163.229,75.289 166.125,73.245 168.984,71.151C169.884,70.491 170.688,69.699 171.554,68.988C173.245,67.603 174.971,66.258 176.646,64.852C179.069,62.825 180.003,59.905 181.21,57.146C181.665,56.107 182.202,55.102 182.74,54.103C183.86,52.019 184.957,51.64 186.975,52.591C187.913,53.032 188.831,53.533 189.804,53.882C191.945,54.653 193.685,58.368 192.972,60.563C191.371,65.499 189.134,70.078 185.352,73.709C183.253,75.722 181,77.599 178.666,79.333C175.718,81.526 172.633,83.538 169.57,85.571C168.179,86.496 166.743,87.37 165.253,88.123C162.095,89.72 160.114,92.601 157.73,95.016C157.069,95.686 156.904,97.199 157.045,98.252C157.651,102.785 157.015,107.183 154.685,110.988C151.769,115.753 147.488,118.908 141.541,118.816C137.701,118.757 134.85,116.562 132.327,113.955C131.829,113.441 131.717,112.442 131.644,111.649C131.265,107.509 133.39,104.21 135.553,101.033C138.032,97.39 140.913,94.065 144.399,91.284C145.082,90.739 145.676,89.464 145.555,88.636C145.057,85.219 144.276,81.842 143.571,78.455C143.491,78.076 143.229,77.734 142.893,77.053C142.375,77.651 141.892,78.004 141.69,78.475C138.889,85.018 135.98,91.51 132.423,97.68C129.751,102.319 126.833,106.862 122.802,110.419C115.667,116.713 107.697,121.544 97.753,121.087C94.562,120.94 91.267,120.777 88.13,118.933C84.857,117.007 81.656,115.103 78.915,112.493C77.644,111.282 76.581,109.853 75.242,108.314" />
      <path
        d="M332.174,128.99C332.464,129.306 332.752,129.62 333.042,129.936C334.139,129.505 335.508,129.35 336.288,128.593C339.342,125.627 342.49,122.683 345.049,119.31C346.803,117 347.947,114.086 348.803,111.273C349.582,108.71 348.177,107.397 345.541,108.007C343.648,108.446 341.586,109.098 340.128,110.299C334.236,115.152 333.211,122.103 332.174,128.99M216.127,168.094C219.796,163.291 224.019,159.421 224.599,153.197C224.964,149.278 227.026,145.52 225.676,141.433C227.475,136.197 226.093,130.693 227.018,125.377C227.366,123.378 227.259,121.38 225.435,119.703C222.529,120.591 219.502,121.364 216.595,122.451C213.675,123.547 210.866,124.938 208.028,126.245C207.529,126.475 207.033,126.851 206.707,127.29C202.938,132.353 199.687,137.679 198.3,143.954C197.778,146.314 197.533,148.867 196.419,150.931C194.325,154.816 195.44,158.769 195.517,162.679C195.561,164.852 197.531,166.177 199.399,165.472C204.472,163.561 209.222,163.98 213.783,166.876C214.369,167.246 215.016,167.52 216.127,168.094M413.081,129.534C416.669,127.272 419.694,125.42 422.664,123.48C427.297,120.456 430.527,116.102 433.729,111.71C436.154,108.388 438.653,105.113 441.254,101.93C443.594,99.068 445.433,98.742 448.298,100.327C452.465,102.632 453.17,104.364 452.1,108.212C449.301,118.273 443.012,125.951 434.949,132.004C430.243,135.536 424.877,138.537 418.638,138.99C418.24,139.02 417.863,139.32 417.158,139.636C416.576,143.366 417.69,147.103 418.191,150.839C418.405,152.434 418.554,153.781 417.962,155.347C416.18,160.074 414.849,164.983 412.861,169.617C411.311,173.235 408.147,175.77 404.665,177.393C400.561,179.307 396.232,180.863 391.858,182.037C387.841,183.112 383.86,182.241 379.707,181.361C375.082,180.378 372.758,177.385 370.104,174.957C370.531,172.728 371.125,170.958 371.161,169.178C371.27,164.061 374.897,161.348 378.308,158.587C379.073,157.969 380.871,158.114 381.969,158.517C384.953,159.616 387.245,159.107 389.103,156.479C389.486,155.939 390.289,155.718 390.803,155.245C393.539,152.726 395.398,149.961 394.313,145.889C393.286,142.041 392.547,138.15 390.289,134.723C389.653,133.756 389.824,132.284 389.484,131.084C389.127,129.832 388.598,128.631 387.871,126.666C385.098,130.283 382.841,133.168 380.648,136.102C377.404,140.444 374.194,144.812 370.994,149.187C370.156,150.335 369.319,151.501 368.642,152.746C366.658,156.405 364.357,159.683 361.052,162.411C357.774,165.118 355.116,168.567 352.107,171.614C351.125,172.611 349.997,173.551 348.769,174.2C344.862,176.264 340.778,178.352 336.338,178.282C330.973,178.199 325.601,177.398 320.281,176.582C318.885,176.369 317.776,174.671 316.352,174.157C313.684,173.197 310.842,172.762 309.143,170.011C308.949,169.701 306.994,170.041 306.235,170.595C303.09,172.895 300.256,175.658 296.99,177.752C293.178,180.197 289.209,182.597 284.992,184.168C277.312,187.031 270.381,184.178 265.065,178.861C261.974,175.77 258.49,171.872 258.796,166.747C259.209,159.84 259.724,152.975 262.719,146.459C264.781,141.97 265.967,137.071 267.435,132.321C267.745,131.318 267.576,130.166 267.67,128.213C260.87,133.482 254.33,137.617 246.504,139.377C244.978,146.549 240.852,152.105 236.14,157.313C235.66,157.842 235.25,158.513 234.654,158.843C230.501,161.145 227.763,164.774 225.308,168.664C218.961,178.721 209.75,184.111 198.131,186.109C190.823,187.365 184.238,185.785 178.898,181.177C175.581,178.316 172.893,174.153 171.274,170.043C169.377,165.221 168.386,159.854 168.068,154.657C167.841,150.951 169.286,147.119 170.142,143.378C171.338,138.152 173.513,133.384 177.208,129.401C177.402,129.191 177.643,128.994 177.754,128.742C180.452,122.612 185.867,118.97 190.702,114.866C194.158,111.934 197.881,109.243 201.768,106.916C204.42,105.327 207.583,104.612 210.467,103.386C212.436,102.548 214.337,101.543 216.23,100.538C218.769,99.191 221.339,98.965 224.08,99.892C225.509,100.375 227.034,100.578 228.492,100.903C230.197,97.93 231.601,95.286 233.194,92.765C234.901,90.063 239.249,88.607 242.255,89.493C243.995,90.006 244.627,91.583 244.267,92.842C242.674,98.396 244.535,103.581 245.538,108.869C245.854,110.536 246.307,112.183 246.532,113.861C247.298,119.566 247.988,125.279 248.754,131.346C249.039,131.328 250.028,131.575 250.542,131.189C253.379,129.06 256.222,126.912 258.824,124.511C261.653,121.902 264.183,118.972 266.905,116.241C271.825,111.311 275.32,105.421 278.109,99.139C279.688,95.584 281.428,92.842 286.213,94.135C286.237,93.816 286.263,93.498 286.287,93.18C285.045,92.278 283.804,91.372 282.558,90.474C280.991,89.344 278.313,88.418 278.073,87.056C277.523,83.945 278.162,80.623 278.327,77.386C278.335,77.256 278.43,77.117 278.512,77.002C281.438,73.005 283.263,68.421 285.462,64.036C285.905,63.156 286.539,62.332 287.234,61.629C289.078,59.762 290.484,59.775 292.36,61.631C296.342,65.572 297.25,70.532 296.656,75.804C296.281,79.152 295.18,82.423 294.831,85.772C294.576,88.254 292.302,88.587 291.07,90.188C291.499,91.16 291.944,92.163 292.467,93.351C291.108,93.804 289.91,94.203 288.395,94.708C288.506,96.07 288.619,97.449 288.728,98.828C289.42,107.512 289.805,116.289 288.174,124.809C286.756,132.218 285.834,139.715 284.145,147.061C283.351,150.508 281.948,153.811 281.11,157.25C280.695,158.95 279.898,161.04 281.629,162.49C283.663,164.194 285.606,162.957 287.566,161.966C291.11,160.17 294.761,158.583 298.301,156.779C301.056,155.376 301.577,154.341 301.062,151.312C300.544,148.273 300.713,145.353 301.682,142.425C302.081,141.223 302.272,139.912 302.33,138.642C302.691,130.802 305.556,123.98 310.464,117.92C311.35,116.827 311.904,115.466 312.62,114.231C313.625,112.504 314.246,110.27 315.714,109.143C321.646,104.578 326.179,98.341 333.046,94.882C335.998,93.395 338.738,91.573 342.234,91.762C342.784,91.793 343.38,91.629 343.901,91.424C349.044,89.394 352.977,91.74 356.676,94.93C360.698,98.396 361.513,102.864 361.572,107.999C361.646,114.733 359.518,120.56 355.065,125.176C351.886,128.472 348.893,132.315 344.29,134.028C341.94,134.904 340.287,136.416 339.171,138.813C337.921,141.503 336.084,143.402 332.822,144.56C329.268,145.823 326.352,148.885 323.398,150.992C323.591,151.938 323.551,152.347 323.716,152.46C329.479,156.419 335.655,158.283 342.629,156.181C346.449,155.029 350.317,154.028 354.113,152.804C355.132,152.476 356.147,151.731 356.854,150.909C361.127,145.953 365.408,140.998 369.474,135.875C371.042,133.899 372.085,131.499 373.316,129.266C376.278,123.893 379.254,118.531 382.128,113.114C383.372,110.768 384.429,108.317 385.473,105.872C386.399,103.702 387.222,101.487 388.028,99.267C388.608,97.671 388.86,95.915 389.653,94.447C390.984,91.992 392.432,89.547 394.186,87.387C397.692,83.075 401.409,78.937 406.588,76.48C409.851,74.934 413.034,75.753 416.194,76.714C417.805,77.205 418.016,78.683 418.256,80.159C419.14,85.623 417.867,90.856 417.009,96.201C416.087,101.952 413.248,106.865 411.125,112.077C409.629,115.746 409.12,119.103 410.807,122.788C411.739,124.824 412.259,127.049 413.081,129.534" />
    </symbol>
    <symbol id="logo-linenn" viewBox="0 0 500 103">
      <path
        d="M421.304,81.66C422.156,82.726 423.287,83.108 424.399,83.365C427.24,84.026 430.091,84.659 432.964,85.131C435.844,85.603 438.749,85.886 441.651,86.2C443.564,86.412 445.479,86.624 447.398,86.659C448.298,86.675 449.23,86.348 450.111,86.062C451.101,85.738 452.02,85.137 453.029,84.896C455.118,84.392 456.62,81.99 455.966,79.476C455.749,78.638 455.665,77.761 455.47,76.91C455.399,76.596 455.239,76.249 455.021,76.021C453.939,74.897 453.228,73.731 454.07,72.116C454.237,71.795 454.089,71.316 454.118,70.912C454.253,68.873 455.396,68.08 457.328,68.754C458.263,69.078 459.144,69.399 460.182,69.409C460.736,69.419 461.524,69.987 461.784,70.51C462.805,72.594 463.619,74.778 464.593,76.891C465.637,79.168 465.073,81.371 464.375,83.554C463.776,85.433 462.559,86.981 461.2,88.342C460.358,89.187 459.266,89.916 458.148,90.32C454.227,91.756 450.201,92.716 445.979,92.125C444.425,91.91 442.91,91.454 441.363,91.197C438.893,90.783 436.414,90.548 434.015,89.684C432.445,89.119 430.715,88.939 429.043,88.737C426.282,88.403 423.748,87.334 421.167,86.425C419.831,85.953 419.972,86.02 419.008,87.202C416.935,89.72 415.548,92.757 413.168,95.018C410.4,97.654 407.348,99.931 403.616,100.984C401.332,101.63 398.987,102.112 396.63,102.439C395.323,102.622 393.913,102.535 392.626,102.227C390.323,101.688 388.061,101.11 386.19,99.35C383.022,96.373 382.122,92.799 382.766,88.689C382.955,87.481 383.311,86.345 384.144,85.336C385.425,83.801 385.982,81.791 387.34,80.266C388.138,79.364 390.457,77.119 391.418,76.66C392.725,76.037 394.013,75.382 395.352,74.842C395.922,74.614 396.595,74.618 397.222,74.592C398.382,74.56 399.586,74.797 400.682,74.547C403.251,73.959 405.794,74.197 408.344,74.425C409.846,74.563 411.349,74.733 412.841,74.984C413.559,75.102 414.004,74.855 414.254,74.267C414.735,73.144 415.324,72.026 415.545,70.844C415.824,69.342 416.224,67.948 416.922,66.583C417.646,65.164 417.976,63.581 418.293,62.017C418.454,61.24 418.873,60.331 418.61,59.714C418.431,59.287 417.313,59.191 416.596,59.069C414.693,58.738 412.922,58.041 411.201,57.197C410.846,57.02 410.442,56.789 410.228,56.471C409.055,54.699 407.197,53.308 407.223,50.848C406.204,50.832 405.878,51.584 405.426,52.136C404.43,53.347 403.469,54.589 402.457,55.784C402.082,56.224 401.601,56.574 401.188,56.979C400.724,57.428 400.048,57.807 399.859,58.35C399.241,60.142 397.655,60.845 396.297,61.789C395.217,62.54 393.952,62.881 392.645,62.752C391.024,62.592 389.4,62.36 387.808,62.014C387.248,61.888 386.716,61.391 386.287,60.957C385.845,60.511 385.534,59.93 385.076,59.278C384.032,59.416 382.952,59.583 381.869,59.708C379.55,59.975 377.449,59.57 375.338,58.401C373.455,57.354 372.029,56.06 371.116,54.159C369.479,50.752 368.919,47.223 369.851,43.498C370.069,42.615 370.2,41.706 370.383,40.727C369.226,40.682 368.272,40.602 367.311,40.637C367.022,40.65 366.625,40.916 366.484,41.18C366.045,41.998 365.584,42.843 365.347,43.729C364.521,46.86 363.275,49.792 361.603,52.547C361.334,52.99 360.975,53.379 360.661,53.783C360.277,54.281 359.754,54.721 359.53,55.286C358.845,56.975 357.669,58.189 356.205,59.185C355.263,59.824 354.543,60.681 353.386,61.124C351.413,61.888 349.318,62.238 347.393,61.924C344.219,61.404 341.608,60.267 340.81,56.609C340.634,55.79 340.426,54.866 339.372,54.323C338.844,54.859 338.088,55.331 337.767,56.012C337.124,57.402 335.877,58.119 334.747,58.854C332.562,60.273 330.221,61.455 327.93,62.717C327.632,62.877 327.197,63.064 326.924,62.958C325.24,62.293 323.452,62.881 321.722,62.447C320.399,62.12 319.278,61.51 318.122,60.758C316.447,62.569 314.345,63.545 312.145,64.361C311.213,64.708 310.361,64.673 309.441,64.233C308.131,63.597 306.783,63.028 305.418,62.521C304.419,62.149 303.73,61.612 303.397,60.533C303.163,59.772 302.686,59.075 302.263,58.385C301.545,57.191 301.1,55.983 301.577,54.567C301.731,54.101 301.683,53.568 301.737,52.949C300.463,53.096 299.953,54.056 299.184,54.612C298.387,55.19 297.628,55.819 296.853,56.42C296.35,56.812 295.751,57.117 295.347,57.592C294.098,59.066 292.557,59.994 290.696,60.511C290.074,60.684 289.53,61.243 289.046,61.712C288.55,62.193 288.133,62.775 287.73,63.346C287.124,64.2 286.195,64.576 285.292,64.518C283.799,64.425 282.303,64.12 280.849,63.741C279.581,63.411 278.412,63.388 277.085,63.622C275.189,63.96 273.193,64.306 271.297,63.276C270.439,62.81 269.439,62.576 268.491,62.299C267.623,62.049 266.976,61.725 266.534,60.781C266.111,59.869 265.23,59.162 264.567,58.353C264.276,58 263.891,57.646 263.798,57.235C263.356,55.251 262.982,53.247 262.626,51.24C262.572,50.929 262.802,50.579 262.809,50.238C262.825,49.683 262.77,49.124 262.735,48.453C261.422,48.61 260.775,49.188 260.483,50.27C259.743,53.051 258.513,55.668 257.767,58.462C257.466,59.599 256.953,60.803 255.806,61.667C254.823,62.405 254.234,63.655 253.394,64.615C252.827,65.267 252.155,65.832 251.488,66.394C251.28,66.57 250.957,66.708 250.688,66.708C247.686,66.757 244.909,66.118 242.891,63.7C242.407,63.118 242.215,62.216 242.08,61.432C241.722,59.352 242.561,57.531 243.647,55.858C244.915,53.893 246.53,52.242 248.468,50.887C249.147,50.412 249.63,49.647 250.159,49.069C248.282,45.206 248.218,41.215 248.016,37.262C247.907,35.2 248.362,33.251 249.342,31.427C249.573,30.994 249.602,30.451 249.775,29.973C250.563,27.808 254.323,23.868 256.473,22.873C257.558,22.365 258.616,22.372 259.669,22.892C260.787,23.451 261.611,24.96 261.184,26.084C260.726,27.314 260.505,28.695 259.416,29.648C257.997,30.891 257.533,32.718 256.854,34.359C256.037,36.334 256.559,38.376 257.19,40.367C257.731,42.085 258.116,43.851 258.583,45.598C258.641,45.817 258.763,46.019 258.913,46.34C260.441,45.659 261.934,45.017 263.391,44.317C263.67,44.185 263.91,43.855 264.048,43.553C264.74,42.021 265.426,40.473 266.06,38.916C267.453,35.461 269.808,32.728 272.719,30.551C274.66,29.102 276.829,27.892 279.299,27.442C279.808,27.349 280.337,27.311 280.855,27.307C281.608,27.295 282.399,27.487 283.111,27.317C284.767,26.935 286.218,27.59 287.672,28.094C288.3,28.316 288.844,29.038 289.232,29.655C290.062,30.978 290.654,32.455 291.554,33.727C292.82,35.522 292.695,37.538 292.528,39.462C292.371,41.356 291.775,43.199 290.725,44.901C290.087,45.935 289.671,47.274 289.668,48.482C289.658,50.28 288.495,51.593 288.152,53.221C287.954,54.169 287.56,55.074 287.272,55.967C288.092,56.837 288.812,56.805 289.552,56.224C289.965,55.9 290.372,55.55 290.721,55.158C292.374,53.279 294.091,51.439 295.626,49.461C296.686,48.087 297.618,46.574 298.374,45.014C299.501,42.679 301.199,40.749 302.618,38.617C304.159,36.305 305.853,34.099 307.369,31.774C307.888,30.975 308.067,29.953 308.374,29.086C311.014,28.951 312.558,29.944 313.077,32.362C313.516,34.394 313.753,36.434 313.637,38.601C313.448,42.217 312.343,45.653 312.084,49.233C312.017,50.193 311.834,51.186 311.472,52.065C311.11,52.955 311.357,53.639 311.719,54.426C312.862,54.31 313.759,53.931 314.582,53.019C316.302,51.121 318.212,49.4 319.579,47.197C321.617,43.912 323.205,40.428 324.189,36.684C324.301,36.247 324.272,35.756 324.243,35.294C324.125,33.12 324.858,31.305 326.444,29.815C327.956,28.393 329.599,28.858 331.197,29.494C332.649,30.072 333.107,31.267 333.299,32.821C333.558,34.905 332.757,36.723 332.309,38.617C331.531,41.915 330.361,45.104 328.914,48.167C328.1,49.882 327.2,51.548 326.188,53.549C326.873,53.427 327.254,53.424 327.575,53.286C330.704,51.943 333.594,50.29 335.833,47.615C336.726,46.549 337.87,45.691 338.892,44.734C339.955,43.736 340.464,42.477 340.794,41.067C341.345,38.685 341.906,36.286 342.716,33.98C343.306,32.288 344.251,30.711 345.141,29.144C345.686,28.184 347.79,27.587 348.767,28.072C349.193,28.287 349.677,28.752 349.767,29.186C349.962,30.133 350.106,31.167 349.933,32.098C349.533,34.218 348.806,36.273 348.447,38.396C348.037,40.836 347.428,43.28 347.813,45.807C347.889,46.317 347.813,46.86 347.8,47.384C347.793,47.557 347.72,47.74 347.749,47.907C348.066,49.529 348.251,51.192 348.777,52.74C349.251,54.153 350.084,54.268 351.375,53.421C351.423,53.385 351.474,53.36 351.522,53.324C354.645,50.906 357.259,48.087 358.713,44.311C359.197,43.061 359.847,41.873 360.401,40.653C360.609,40.184 360.76,39.686 360.901,39.317C359.962,38.312 358.998,37.522 358.345,36.527C357.618,35.422 357.054,34.176 356.637,32.914C356.067,31.206 355.696,29.433 355.266,27.677C355.183,27.346 355.18,26.973 355.225,26.63C355.609,23.374 355.926,20.111 357.262,17.057C358.041,15.275 359.351,14.299 361.276,14.135C363.015,13.987 365.337,15.49 366.081,17.08C367.73,20.625 367.922,24.414 367.99,28.219C368.031,30.361 367.846,32.5 367.759,34.744C368.079,34.822 368.409,35.005 368.717,34.966C369.982,34.805 371.235,34.587 372.49,34.362C372.705,34.324 372.948,34.211 373.092,34.057C373.989,33.078 375.014,32.166 375.71,31.058C376.549,29.709 377.644,28.72 378.967,27.946C381.309,26.578 383.823,25.721 386.527,25.387C387.324,25.288 388.084,24.912 388.881,24.793C390.883,24.507 392.815,24.87 394.685,25.618C395.608,25.991 396.569,26.261 397.472,26.665C398.686,27.208 399.602,28.04 399.964,29.404C400.714,32.224 400.615,35.056 400.086,37.879C399.445,41.295 398.734,44.686 397.338,47.913C396.841,49.053 396.787,50.389 396.537,51.626C398.183,52.072 399.01,51.837 399.801,50.665C401.403,48.296 402.947,45.881 404.558,43.524C405.214,42.564 405.881,41.555 406.746,40.801C407.652,40.004 407.944,39.012 408.306,37.975C408.587,37.166 409.029,36.414 409.427,35.647C409.859,34.822 410.327,34.009 410.785,33.203C411.009,32.805 411.182,32.317 411.522,32.047C413.085,30.84 414.456,29.436 416.186,28.386C418.011,27.275 419.972,26.556 421.919,25.843C424.254,24.986 426.708,24.604 429.248,24.899C430.328,25.024 431.452,24.832 432.551,24.729C433.438,24.645 433.947,25.034 434.364,25.785C435.328,27.532 435.626,29.462 435.725,31.373C435.853,33.858 435.78,36.347 435.254,38.839C434.777,41.115 434.38,43.395 433.624,45.601C433.195,46.857 432.733,48.106 432.205,49.58C433.4,49.201 434.242,48.559 434.998,47.836C436.007,46.876 436.907,45.8 437.945,44.879C438.762,44.153 439.095,43.264 439.169,42.262C439.297,40.631 439.905,39.121 440.258,37.564C440.713,35.56 441.773,33.887 442.705,32.192C443.688,30.406 445.22,28.884 446.674,27.41C449.233,24.822 452.77,24.636 456.059,24.042C457.376,23.801 458.83,24.276 460.211,24.478C460.531,24.527 460.893,24.732 461.111,24.973C461.774,25.711 462.581,26.424 462.94,27.304C463.315,28.232 463.337,29.346 463.34,30.374C463.337,32.012 462.475,33.412 461.713,34.777C460.451,37.034 458.644,38.871 456.687,40.528C456.002,41.106 455.073,41.42 454.224,41.77C452.654,42.409 451.062,42.991 449.474,43.582C448.147,44.073 447.926,44.416 448.077,45.791C448.288,47.743 450.425,51.166 453.013,51.491C453.695,51.577 454.359,51.825 454.942,51.703C456.617,50.919 458.327,50.197 459.961,49.33C461.393,48.565 462.786,47.714 464.109,46.773C465.141,46.041 466.047,45.129 466.992,44.275C469.33,42.156 471.038,39.603 472.332,36.732C472.79,35.721 473.687,34.831 473.86,33.797C474.03,32.789 473.495,31.668 473.341,30.586C472.973,27.937 473.334,25.249 475.167,23.37C477.111,21.38 478.629,18.807 481.532,17.822C483.236,17.244 484.969,17.157 486.705,17.128C488.031,17.102 488.947,18.22 489.133,19.69C489.274,20.802 488.668,21.842 487.458,22.243C486.266,22.638 485.452,23.361 484.815,24.411C484.209,25.41 483.505,26.35 482.864,27.323C481.672,29.141 481.679,30.056 483.22,31.485C484.642,32.795 485.09,34.549 485.718,36.228C486.096,37.236 486.311,38.302 486.634,39.468C488.258,38.685 489.773,38.158 491.042,37.275C492.31,36.392 493.489,35.268 494.431,34.038C495.555,32.577 496.84,31.174 497.323,29.285C497.528,28.505 498.179,28.422 498.874,28.499C499.582,28.579 499.902,29.041 499.96,29.677C500.101,31.286 499.883,32.837 499.13,34.282C497.679,37.076 495.728,39.426 493.214,41.353C491.1,42.975 489.126,44.779 487.55,46.966C487.003,47.734 486.778,48.575 486.746,49.57C486.692,51.439 486.215,53.257 485.286,54.904C485.068,55.296 484.658,55.585 484.328,55.912C483.088,57.142 481.845,58.369 480.599,59.586C480.314,59.869 480.016,60.18 479.664,60.337C478.389,60.896 477.127,61.51 475.801,61.882C474.59,62.222 473.299,62.309 472.034,62.45C471.406,62.521 470.769,62.444 470.131,62.45C468.77,62.463 467.982,61.946 467.501,60.636C467.146,59.666 466.624,58.69 466.56,57.695C466.345,54.313 467.665,52.178 470.932,50.489C471.188,50.354 471.445,50.209 471.682,50.046C473.126,49.063 474.552,48.048 476.012,47.095C477.204,46.317 477.547,45.534 476.925,44.32C476.227,42.959 475.49,41.658 475.673,40.033C475.708,39.735 475.304,39.385 475.013,38.906C474.645,39.346 474.369,39.629 474.145,39.943C473.261,41.17 472.38,42.397 471.518,43.649C470.862,44.609 470.192,45.569 469.616,46.574C468.943,47.737 468.402,48.976 467.735,50.148C467.421,50.698 466.986,51.195 466.537,51.645C464.849,53.331 463.151,55.01 461.422,56.651C460.538,57.496 459.621,58.327 458.616,59.014C458.126,59.348 457.373,59.271 456.796,59.512C454.676,60.392 452.449,60.418 450.274,60.074C448.881,59.853 447.529,59.201 446.222,58.6C445.444,58.241 444.781,57.624 444.079,57.101C443.234,56.465 442.491,55.79 442.109,54.715C441.824,53.928 441.238,53.247 440.754,52.46C438.455,53.446 436.642,54.715 435.114,56.458C433.534,58.257 431.833,59.952 430.216,61.712C429.825,62.139 429.54,62.666 429.181,63.125C428.364,64.181 427.496,65.206 426.721,66.291C426.26,66.943 425.815,67.659 425.584,68.417C424.879,70.697 424.347,73.031 423.62,75.298C422.954,77.382 422.131,79.412 421.33,81.599L421.317,81.647L421.304,81.66ZM411.778,81.942C410.721,81.56 409.837,81.078 408.901,80.927C405.375,80.353 401.867,80.43 398.414,81.502C396.072,82.228 394.01,83.278 392.808,85.609C391.828,87.526 391.953,90.095 393.282,91.813C395.326,94.453 395.672,94.597 398.856,93.538C400.342,93.04 401.755,92.33 403.219,91.772C405.605,90.856 407.226,88.891 409.196,87.411C409.404,87.25 409.484,86.913 409.619,86.65C409.885,86.139 410.16,85.638 410.394,85.121C410.833,84.151 411.24,83.162 411.772,81.942L411.778,81.942L411.778,81.942ZM271.838,49.837C272.075,51.067 272.188,52.069 272.473,53.013C272.777,54.034 273.847,54.596 274.962,54.474C276.441,54.31 277.748,53.694 278.975,52.897C279.635,52.47 280.039,51.94 280.186,51.093C280.362,50.078 281.022,49.217 281.266,48.145C281.589,46.716 282.451,45.399 283.149,44.07C283.927,42.577 284.879,41.167 285.577,39.641C286.112,38.46 286.551,37.175 286.24,35.817C286.074,35.069 285.622,34.86 284.815,34.947C282.88,35.165 281.083,35.66 279.315,36.517C276.957,37.657 275.038,39.308 274.113,41.632C273.043,44.311 272.546,47.226 271.854,49.84L271.842,49.834L271.838,49.837ZM392.059,32.497C390.396,31.88 388.945,32.535 387.811,33.004C385.345,34.032 382.564,34.812 381.129,37.48C381.027,37.679 380.783,37.801 380.639,37.981C378.57,40.573 377.545,43.479 377.782,46.847C377.849,47.849 378.503,48.405 378.877,49.169C379.521,50.466 380.556,51.067 381.978,50.97C382.324,50.948 382.677,50.938 383.026,50.897C384.691,50.694 386.158,50.254 386.155,48.138C388.074,43.45 389.275,38.482 391.652,33.971C391.857,33.579 391.895,33.091 392.049,32.49L392.056,32.49L392.059,32.497ZM428.367,31.353C427.656,31.36 427.028,31.26 426.465,31.398C424.142,31.964 422.432,33.283 421.548,35.599C421.301,36.234 420.878,36.822 420.465,37.374C419.578,38.553 418.902,39.831 418.543,41.263C418.261,42.387 417.912,43.511 417.749,44.651C417.521,46.195 417.31,47.759 417.339,49.317C417.358,50.515 418.146,51.105 419.145,50.99C421.176,50.759 422.771,49.908 423.489,47.83C423.918,46.59 424.386,45.361 424.908,44.156C425.577,42.628 426.404,41.16 427.006,39.606C427.986,37.092 428.182,34.417 428.368,31.357L428.367,31.353ZM362.371,33.328C362.612,33.152 362.733,33.104 362.788,33.01C362.884,32.866 362.961,32.705 362.996,32.542C363.867,28.672 363.925,24.783 363.201,20.895C363.054,20.098 362.736,19.315 362.371,18.592C361.875,17.603 360.901,17.603 360.328,18.531C360.174,18.775 360.097,19.068 359.998,19.344C358.787,22.703 358.726,26.09 359.969,29.433C360.504,30.865 361.186,32.285 362.368,33.335L362.371,33.328ZM458.949,29.709C455.646,29.986 454.301,30.698 451.7,33.945C450.598,35.326 449.301,36.78 449.518,38.819C449.672,38.848 449.736,38.88 449.784,38.864C453.731,37.532 456.492,34.789 458.619,31.328C458.862,30.936 458.824,30.374 458.952,29.709L458.949,29.709Z" />
      <path
        d="M24.35,61.079C24.069,61.23 23.828,61.307 23.665,61.465C21.855,63.134 20.074,64.83 18.258,66.484C17.162,67.486 16.227,68.638 14.616,69.024C13.616,69.258 12.748,70.013 11.611,69.653C11.329,69.56 11.019,69.554 10.762,69.425C7.988,68.044 5.624,66.185 4.026,63.468C3.366,62.357 2.668,61.269 2.114,60.103C1.697,59.226 1.271,58.263 1.226,57.322C1.076,54.175 -0.648,51.189 0.265,47.923C0.403,47.438 0.31,46.863 0.208,46.353C-0.074,44.934 -0.081,43.559 0.365,42.143C0.605,41.379 0.541,40.521 0.666,39.709C0.941,37.924 1.239,36.135 1.54,34.356C1.64,33.781 1.768,33.21 1.861,32.635C1.918,32.288 1.861,31.909 1.966,31.581C2.921,28.746 3.2,25.699 4.865,23.078C5.551,21.999 5.983,20.728 6.387,19.498C6.778,18.287 7.469,17.317 8.248,16.351C8.706,15.783 8.997,15.082 9.379,14.447C9.497,14.251 9.619,14.023 9.795,13.904C12.021,12.491 13.28,10.147 15.103,8.349C15.567,7.896 16.003,7.414 16.512,7.013C18.601,5.404 20.632,3.702 22.832,2.254C25.023,0.809 27.621,0.382 30.187,0.016C30.619,-0.049 31.135,0.093 31.545,0.285C33.255,1.104 34.437,2.511 35.443,4.055C35.712,4.466 35.783,5.057 35.821,5.574C35.866,6.223 35.728,6.884 35.776,7.53C35.985,10.41 35.405,13.085 34.172,15.718C33.252,17.674 32.749,19.822 31.971,21.852C30.808,24.877 28.79,27.368 26.756,29.815C25.254,31.614 23.963,33.624 21.858,34.86C21.387,35.143 21.128,35.762 20.74,36.215C18.62,38.688 16.269,40.907 13.664,42.866C12.909,43.434 12.71,44.259 12.79,45.084C13.085,48.225 13.338,51.388 13.847,54.496C14.042,55.701 14.449,56.86 14.513,58.122C14.584,59.528 15.439,59.83 16.512,58.892C18.104,57.505 20.045,56.497 21.186,54.593C21.407,54.227 21.929,54.005 22.355,53.822C23.511,53.318 24.001,52.396 24.242,51.218C25.196,46.642 26.945,42.384 29.732,38.633C31.756,35.904 34.172,33.521 37.429,32.291C40.485,31.138 43.573,30.904 46.341,33.071C47.052,33.627 47.718,34.459 48.006,35.303C48.49,36.735 48.609,38.184 48.09,39.792C47.157,42.711 45.431,45.02 43.422,47.201C42.862,47.811 42.34,48.456 41.789,49.079C40.626,50.383 39.294,51.369 37.599,51.94C34.719,52.91 34.152,54.984 35.078,57.727C35.36,58.558 35.84,59.323 36.254,60.109C36.725,60.999 37.599,61.391 38.467,61.32C39.617,61.214 40.732,60.771 41.869,60.501C44.383,59.907 46.184,58.218 48.077,56.6C49.63,55.277 50.611,53.687 51.19,51.77C52.097,48.768 53,45.762 54.019,42.798C54.378,41.751 55.127,40.849 55.624,39.847C56.623,37.83 57.459,35.73 58.567,33.781C61.075,29.375 63.516,24.912 67.649,21.726C69.372,20.397 72.46,21.046 73.36,23.001C73.43,23.159 73.504,23.354 73.478,23.512C73.113,25.41 73.379,27.394 72.572,29.25C71.502,31.703 70.993,34.324 70.704,36.973C70.496,38.903 70.397,40.849 70.314,42.785C70.288,43.341 70.483,43.906 70.64,44.828C71.339,44.285 71.771,43.938 72.22,43.611C73.831,42.438 75.464,41.286 77.069,40.11C77.579,39.738 78.03,39.291 78.511,38.893C79.465,38.113 80.429,37.355 81.378,36.562C82.742,35.416 83.264,33.775 83.943,32.217C84.196,31.636 84.497,31.064 84.805,30.503C85.439,29.33 86.051,29.115 87.188,29.652C87.717,29.899 88.232,30.181 88.78,30.377C89.981,30.811 90.962,32.904 90.561,34.147C89.661,36.928 88.399,39.513 86.278,41.555C85.096,42.689 83.831,43.749 82.518,44.728C80.859,45.964 79.122,47.098 77.406,48.241C76.621,48.764 75.814,49.256 74.977,49.68C73.203,50.582 72.085,52.207 70.746,53.568C70.374,53.947 70.282,54.798 70.362,55.395C70.701,57.948 70.342,60.427 69.036,62.576C67.395,65.26 64.987,67.039 61.646,66.988C59.483,66.956 57.879,65.719 56.463,64.245C56.181,63.956 56.117,63.395 56.078,62.942C55.864,60.604 57.059,58.748 58.279,56.959C59.676,54.904 61.297,53.032 63.254,51.462C63.638,51.154 63.971,50.434 63.907,49.969C63.625,48.045 63.19,46.141 62.789,44.23C62.744,44.015 62.6,43.826 62.411,43.437C62.117,43.777 61.851,43.973 61.732,44.243C60.159,47.933 58.519,51.593 56.524,55.068C55.021,57.685 53.378,60.244 51.11,62.248C47.097,65.796 42.615,68.52 37.022,68.263C35.229,68.179 33.374,68.086 31.609,67.046C29.767,65.96 27.967,64.884 26.426,63.414C25.715,62.733 25.113,61.927 24.363,61.057L24.35,61.082L24.35,61.079ZM13.219,37.268C13.741,36.851 14.151,36.626 14.427,36.286C16.221,34.016 17.986,31.723 19.767,29.44C20.715,28.229 21.874,27.137 22.566,25.795C24.113,22.825 26.131,20.063 26.887,16.704C27.14,15.558 27.333,14.366 27.8,13.307C28.473,11.788 28.31,10.192 28.499,8.628C28.55,8.217 28.303,7.771 28.198,7.372C24.796,7.739 23.002,10.227 21.243,12.404C18.802,15.442 17.182,19.023 15.929,22.77C14.481,27.115 13.697,31.578 12.966,36.067C12.915,36.369 13.091,36.71 13.206,37.265L13.213,37.265L13.219,37.268ZM43.916,37.092C40.658,38.1 37.974,42.143 38.288,44.885C40.062,44.092 42.18,43.813 42.993,41.732C43.547,40.313 44.47,38.897 43.913,37.092L43.916,37.092Z" />
      <path
        d="M211.198,43.628C212.784,42.625 214.126,41.811 215.439,40.953C217.489,39.614 218.915,37.689 220.334,35.748C221.407,34.281 222.512,32.833 223.662,31.423C224.7,30.155 225.51,30.011 226.779,30.716C228.62,31.737 228.934,32.503 228.457,34.201C227.221,38.653 224.437,42.045 220.872,44.723C218.793,46.283 216.416,47.613 213.658,47.814C213.482,47.824 213.315,47.958 213.001,48.103C212.745,49.752 213.239,51.405 213.46,53.058C213.552,53.763 213.62,54.359 213.357,55.05C212.566,57.139 211.98,59.311 211.102,61.361C210.413,62.962 209.017,64.084 207.476,64.801C205.66,65.647 203.747,66.335 201.813,66.854C200.035,67.332 198.276,66.947 196.438,66.556C194.394,66.121 193.362,64.801 192.19,63.728C192.379,62.741 192.642,61.957 192.658,61.172C192.703,58.907 194.311,57.712 195.816,56.489C196.156,56.216 196.95,56.277 197.434,56.457C198.753,56.944 199.766,56.719 200.592,55.553C200.762,55.313 201.117,55.214 201.342,55.009C202.553,53.894 203.376,52.674 202.892,50.87C202.44,49.169 202.11,47.449 201.111,45.931C200.829,45.505 200.906,44.851 200.756,44.323C200.595,43.769 200.365,43.24 200.041,42.366C198.814,43.967 197.818,45.242 196.848,46.539C195.416,48.461 193.994,50.39 192.581,52.328C192.213,52.837 191.841,53.35 191.54,53.9C190.662,55.518 189.647,56.972 188.183,58.177C186.735,59.372 185.559,60.9 184.224,62.248C183.788,62.69 183.288,63.107 182.744,63.392C181.017,64.305 179.211,65.23 177.244,65.198C174.87,65.163 172.493,64.807 170.142,64.449C169.527,64.356 169.034,63.603 168.406,63.376C167.224,62.95 165.969,62.761 165.219,61.543C165.132,61.406 164.268,61.559 163.934,61.8C162.544,62.815 161.289,64.039 159.847,64.961C158.162,66.044 156.407,67.101 154.539,67.799C151.141,69.068 148.075,67.799 145.724,65.451C144.36,64.087 142.819,62.36 142.95,60.089C143.136,57.033 143.36,54 144.686,51.114C145.599,49.128 146.124,46.959 146.772,44.861C146.909,44.419 146.832,43.906 146.874,43.045C143.866,45.377 140.974,47.203 137.514,47.984C136.842,51.159 135.012,53.612 132.93,55.919C132.719,56.156 132.536,56.447 132.274,56.598C130.435,57.613 129.224,59.221 128.142,60.941C125.332,65.387 121.261,67.777 116.12,68.658C112.891,69.212 109.973,68.514 107.612,66.476C106.145,65.208 104.957,63.369 104.239,61.553C103.397,59.423 102.961,57.046 102.823,54.749C102.721,53.112 103.361,51.418 103.743,49.759C104.271,47.449 105.232,45.338 106.869,43.576C106.955,43.484 107.064,43.397 107.109,43.285C108.301,40.575 110.697,38.961 112.833,37.148C114.364,35.847 116.008,34.662 117.728,33.63C118.897,32.926 120.3,32.615 121.575,32.07C122.449,31.702 123.285,31.254 124.122,30.812C125.246,30.216 126.38,30.113 127.594,30.523C128.225,30.738 128.898,30.828 129.545,30.969C130.301,29.655 130.922,28.483 131.623,27.368C132.379,26.173 134.305,25.529 135.628,25.92C136.396,26.148 136.675,26.846 136.515,27.403C135.81,29.857 136.633,32.154 137.079,34.495C137.216,35.235 137.418,35.959 137.521,36.702C137.86,39.223 138.168,41.754 138.501,44.435C138.629,44.429 139.065,44.537 139.292,44.368C140.544,43.429 141.803,42.478 142.953,41.414C144.206,40.258 145.327,38.964 146.528,37.759C148.706,35.578 150.25,32.974 151.484,30.197C152.182,28.624 152.951,27.413 155.068,27.983C155.078,27.845 155.087,27.701 155.1,27.564C154.549,27.163 154.001,26.763 153.45,26.369C152.758,25.872 151.57,25.459 151.467,24.86C151.227,23.483 151.509,22.016 151.58,20.584C151.58,20.526 151.624,20.465 151.663,20.414C152.957,18.649 153.764,16.618 154.738,14.677C154.933,14.286 155.215,13.921 155.523,13.613C156.34,12.787 156.961,12.793 157.794,13.613C159.556,15.353 159.956,17.55 159.693,19.882C159.53,21.362 159.04,22.81 158.886,24.293C158.774,25.392 157.768,25.542 157.224,26.244C157.413,26.676 157.608,27.118 157.839,27.64C157.237,27.842 156.708,28.015 156.035,28.243C156.08,28.845 156.131,29.453 156.183,30.065C156.49,33.906 156.66,37.788 155.936,41.555C155.308,44.832 154.898,48.147 154.155,51.399C153.806,52.923 153.184,54.381 152.816,55.906C152.63,56.655 152.281,57.581 153.047,58.222C153.947,58.978 154.808,58.427 155.67,57.991C157.237,57.197 158.854,56.498 160.421,55.694C161.638,55.073 161.868,54.615 161.644,53.276C161.414,51.93 161.49,50.643 161.923,49.349C162.099,48.814 162.186,48.24 162.211,47.673C162.371,44.208 163.64,41.187 165.805,38.509C166.196,38.025 166.443,37.42 166.76,36.875C167.202,36.11 167.477,35.123 168.124,34.627C170.748,32.609 172.75,29.851 175.79,28.323C177.093,27.666 178.304,26.859 179.858,26.942C180.098,26.958 180.367,26.884 180.598,26.795C182.872,25.895 184.615,26.932 186.245,28.345C188.023,29.879 188.385,31.856 188.41,34.127C188.442,37.106 187.501,39.681 185.534,41.725C184.128,43.182 182.801,44.883 180.767,45.643C179.726,46.027 178.996,46.7 178.503,47.757C177.949,48.948 177.138,49.784 175.694,50.297C174.121,50.857 172.833,52.206 171.523,53.141C171.609,53.561 171.59,53.744 171.661,53.795C174.214,55.547 176.943,56.373 180.024,55.438C181.712,54.929 183.423,54.487 185.101,53.945C185.553,53.801 186.001,53.474 186.312,53.109C188.202,50.918 190.095,48.724 191.892,46.459C192.584,45.585 193.049,44.525 193.593,43.538C194.903,41.161 196.223,38.788 197.491,36.395C198.042,35.357 198.507,34.274 198.971,33.192C199.381,32.231 199.747,31.25 200.102,30.27C200.358,29.562 200.47,28.787 200.82,28.14C201.409,27.057 202.046,25.975 202.822,25.017C204.372,23.108 206.015,21.279 208.306,20.19C209.747,19.507 211.156,19.866 212.553,20.292C213.267,20.507 213.36,21.167 213.466,21.817C213.857,24.235 213.296,26.545 212.915,28.912C212.508,31.452 211.253,33.63 210.311,35.93C209.648,37.554 209.424,39.038 210.173,40.671C210.583,41.571 210.814,42.555 211.179,43.653L211.195,43.621L211.198,43.628ZM124.089,60.685C125.713,58.558 127.581,56.851 127.837,54.096C127.997,52.36 128.91,50.7 128.314,48.894C129.109,46.578 128.5,44.143 128.91,41.792C129.064,40.908 129.019,40.027 128.212,39.281C126.927,39.675 125.589,40.014 124.304,40.498C123.01,40.982 121.767,41.597 120.515,42.177C120.294,42.279 120.073,42.443 119.928,42.638C118.26,44.877 116.821,47.235 116.209,50.012C115.979,51.053 115.87,52.184 115.377,53.096C114.451,54.81 114.944,56.562 114.976,58.292C114.995,59.253 115.864,59.836 116.69,59.529C118.935,58.683 121.034,58.872 123.052,60.15C123.308,60.313 123.596,60.438 124.089,60.688L124.083,60.679L124.089,60.685ZM175.415,43.387C175.543,43.525 175.671,43.666 175.799,43.804C176.286,43.615 176.888,43.548 177.237,43.208C178.589,41.898 179.979,40.594 181.113,39.102C181.888,38.08 182.398,36.792 182.773,35.549C183.115,34.415 182.494,33.835 181.331,34.108C180.495,34.303 179.579,34.591 178.938,35.12C176.331,37.266 175.879,40.341 175.421,43.387L175.415,43.394L175.415,43.387Z" />
    </symbol>
    <symbol id="title-programme" viewBox="0 0 500 150">
      <path
        d="M499.916,73.122C496.858,71.98 494.267,72.454 492.03,74.809C488.209,78.828 484.208,82.691 480.617,86.905C478.571,89.306 475.941,90.184 473.23,90.997C470.745,91.742 469.421,90.967 468.1,88.451C473.104,87.657 477.311,85.432 481.067,82.145C485.785,78.015 486.251,72.824 485.273,67.217C484.96,65.426 483.796,64.457 481.811,63.911C477.654,62.762 474.154,63.926 470.784,66.102C466.054,69.16 462.951,73.603 460.569,78.561C459.348,81.103 458.489,83.825 457.515,86.333C454.229,87.027 451.145,87.68 448.072,88.329C447.774,87.31 447.541,86.898 447.549,86.493C447.644,81.752 447.709,77.008 447.915,72.27C448.083,68.411 446.499,66.575 442.636,66.701C439.338,66.812 436.681,68.453 434.238,70.557C432.357,72.179 430.364,73.675 428.089,75.488C427.845,74.08 427.738,73.374 427.593,72.675C426.994,69.778 423.581,66.625 420.661,66.747C417.317,66.888 414.275,66.522 411.214,64.911C408.633,63.552 407.083,64.296 406.228,66.984C404.499,72.416 401.732,77.153 398.052,81.504C395.853,84.104 393.819,86.497 390.128,86.863C388.922,86.982 387.818,87.97 386.62,88.44C385.769,88.772 384.841,88.902 383.474,89.241C383.917,83.1 384.238,77.431 384.761,71.778C385.146,67.606 382.89,64.823 378.657,65.22C376.779,65.396 374.642,66.239 373.26,67.484C370.809,69.69 367.943,70.736 364.935,71.961C363.427,69.904 363.809,66.373 360.43,66.152C357.812,65.984 355.167,66.194 352.285,66.243C352.079,63.09 348.975,63.148 346.612,62.728C343.994,62.262 343.097,64.69 342.085,66.579C341.883,66.961 341.734,67.369 341.532,67.751C338.054,74.336 334.947,81.164 329.538,86.505C328.172,87.852 326.637,89.028 324.656,90.734C324.385,89.108 324.015,88.276 324.164,87.55C324.851,84.184 325.744,80.859 326.435,77.492C326.916,75.137 327.622,72.706 327.431,70.373C327.195,67.48 325.718,65.159 322.694,63.804C318.931,62.121 315.301,62.907 311.865,64.064C306.292,65.942 301.792,69.831 298.612,74.565C296.131,78.26 295.116,82.932 293.386,87.142C292.932,88.253 292.505,89.761 291.611,90.234C289.02,91.616 286.199,92.566 282.645,94.024C282.809,92.001 282.775,90.646 283.053,89.364C284.37,83.279 286.832,77.672 290.241,72.465C290.947,71.385 291.695,70.305 292.218,69.133C293.581,66.064 292.715,64.346 289.455,63.331C288.523,63.041 287.623,62.663 286.687,62.319C286.6,60.979 286.687,59.808 286.424,58.716C285.401,54.448 279.946,51.918 277.049,54.57C272.289,58.93 270.133,65.19 272.285,70.538C272.759,71.713 273.251,72.877 273.801,74.198C271.938,76.462 270.152,78.699 268.293,80.867C266.407,83.061 264.441,85.191 262.51,87.348C262.246,87.188 261.983,87.024 261.723,86.863C262.147,85.237 262.632,83.623 262.975,81.977C263.708,78.492 264.437,75 265.029,71.488C265.338,69.644 264.258,68.507 262.563,67.946C261.884,67.72 261.097,67.74 260.487,67.407C250.669,62.044 242.329,65.846 235.084,73.007C232.809,75.259 229.587,76.534 226.171,77.607C226.171,74.717 226.289,72.431 226.144,70.16C225.854,65.591 222.571,61.938 218.242,61.949C211.963,61.968 205.867,63.388 201.367,68.056C197.924,71.629 194.893,75.706 193.16,80.493C191.706,84.508 190.397,88.573 189.122,92.333C187.297,92.818 185.774,93.139 184.308,93.631C181.014,94.738 179.606,93.94 179.51,90.528C179.472,89.15 179.793,87.68 180.296,86.39C181.755,82.649 183.537,79.027 184.892,75.252C185.553,73.408 185.785,71.312 185.732,69.347C185.705,68.27 184.949,66.713 184.06,66.251C181.255,64.785 180.109,62.873 179.731,59.59C179.121,54.292 172.872,52.288 168.971,55.845C166.272,58.307 165.15,61.541 165.49,65.159C165.688,67.27 166.207,69.35 166.578,71.423C163.291,74.561 159.176,75.278 155.054,76.572C154.764,75.706 154.519,75.061 154.328,74.4C152.653,68.682 149.202,64.48 144.393,60.861C137.552,55.712 127.395,59.296 123.822,67.007C122.925,68.942 122.032,70.904 121.432,72.942C118.802,81.871 117.005,90.993 115.921,100.216C115.172,106.583 114.89,113.03 114.81,119.443C114.749,124.275 115.253,129.127 115.672,133.955C115.859,136.1 118.218,137.875 120.524,138.166C122.925,138.467 124.001,136.982 124.57,135.112C125.105,133.348 125.456,131.478 125.547,129.638C125.662,127.359 125.166,125.035 125.383,122.775C126.093,115.427 126.994,108.098 127.876,100.769C127.986,99.853 128.437,98.979 128.761,97.986C132.956,101.094 134.686,101.544 141.087,101.697C143.286,101.75 145.274,101.643 147.259,100.376C150.737,98.158 153.191,95.421 153.512,91.139C153.744,88.035 155.313,86.367 158.478,85.585C161.909,84.737 165.184,83.229 168.482,81.893C170.341,81.141 172.101,80.153 174.784,78.84C173.842,80.519 173.487,81.302 172.994,81.993C170.773,85.123 169.899,88.726 169.601,92.429C169.105,98.59 172.227,102.995 177.937,104.117C183.178,105.147 188.27,105.006 191.828,100.616C194.343,101.472 196.462,102.46 198.684,102.891C203.027,103.735 207.341,102.899 210.742,100.223C213.948,97.7 216.429,94.272 219.342,91.352C220.075,90.616 221.201,89.959 222.205,89.871C224.579,89.657 226.984,89.803 229.736,89.803C229.236,98.784 235.248,101.647 243.237,102.704C243.237,103.8 243.416,104.441 243.21,104.911C241.061,109.846 238.905,114.778 236.633,119.656C235.736,121.588 234.168,122.168 231.973,121.637C229.625,121.072 227.121,120.412 224.789,120.687C220.414,121.202 216.376,122.492 212.566,125.313C207.135,129.333 205.989,134.505 206.711,140.425C207.096,143.597 209.688,145.918 212.62,146.662C220.861,148.75 228.136,146.704 234.232,140.589C236.519,138.295 239.092,136.28 241.683,134.005C243.073,134.841 244.394,135.688 245.764,136.452C248.386,137.917 250.902,139.704 253.696,140.696C260.105,142.968 266.647,144.021 273.553,142.689C278.679,141.704 283.023,139.639 286.699,136.051C287.386,135.379 287.993,134.516 288.34,133.627C289.783,129.936 290.333,126.069 289.306,122.225C288.81,120.362 287.852,118.397 286.535,117.03C283.672,114.06 280.607,115.141 278.977,118.912C277.897,121.408 279.16,123.42 279.469,125.592C280.133,130.256 278.568,132.886 273.843,133.238C270.308,133.501 266.575,133.562 263.182,132.711C257.402,131.26 251.818,129.02 245.737,126.974C247.558,122.271 248.558,117.79 250.875,114.141C254.33,108.705 256.486,102.914 258.212,96.83C258.54,95.669 259.254,94.345 260.2,93.681C264.029,90.986 268.018,88.52 272.74,85.455C272.228,87.718 271.969,89.329 271.491,90.875C270.201,95.043 272.053,101.788 275.354,104.59C275.671,104.857 276.049,105.136 276.438,105.228C282.534,106.636 292.791,105.892 295.627,99.448C295.883,98.868 296.589,98.487 297.062,98.036C303.353,101.586 309.258,100.96 315.079,97.151C317.64,100.185 320.114,102.785 324.737,102.498C329.141,102.227 331.966,99.46 334.928,97.635C337.646,98.792 339.921,100.029 342.353,100.727C344.994,101.491 346.097,100.666 346.632,97.952C347.151,95.303 347.361,92.589 347.891,89.944C348.7,85.936 349.384,81.806 354.109,79.069C354.109,80.569 354.212,81.474 354.09,82.352C353.682,85.325 353.067,88.272 352.77,91.253C352.254,96.383 352.331,96.391 356.724,98.487C359.53,99.826 361.366,99.292 362.82,96.608C363.366,95.601 363.763,94.505 364.167,93.429C365.168,90.757 365.992,88.005 367.164,85.409C367.962,83.642 369.305,82.187 372.061,81.767C371.691,83.974 371.351,85.756 371.099,87.554C370.683,90.52 370.118,93.486 370.034,96.463C370,97.712 370.679,99.605 371.63,100.136C374.176,101.555 376.73,103.361 380.009,102.758C385.101,101.819 390.093,100.685 394.082,97.051C394.769,96.425 395.479,95.822 396.155,95.234C396.735,96.463 396.96,97.727 397.712,98.399C400.991,101.326 406.324,100.261 408.381,96.307C409.374,94.402 410.068,92.345 410.946,90.379C412.053,87.902 413.405,85.6 416.241,83.634C415.928,85.837 415.611,87.482 415.485,89.138C415.321,91.272 415.141,93.429 415.275,95.559C415.431,98.067 416.871,99.918 419.275,100.643C421.539,101.326 423.917,101.483 425.493,99.158C426.761,97.288 428.02,95.376 428.975,93.337C429.688,91.814 429.708,89.974 430.391,88.432C431.631,85.627 433.616,83.584 437.445,83.138C437.174,84.76 436.842,85.978 436.788,87.211C436.655,90.333 436.368,93.49 436.678,96.578C436.914,98.925 438.201,100.926 441.098,101.036C441.793,101.063 442.464,101.449 443.163,101.582C448.362,102.59 453.248,102.54 456.458,97.341C456.844,96.715 457.008,95.956 457.137,95.616C460.008,97.631 461.89,99.139 463.94,100.361C470.906,104.51 481.273,102.762 486.228,96.761C490.056,92.123 493.805,87.409 497.355,82.558C499.317,79.878 500.363,76.733 499.885,73.141L499.916,73.122ZM479.449,69.293C479.815,74.706 476.112,78.485 469.467,79.783C470.795,72.835 474.292,69.045 479.449,69.293ZM137.525,92.99C138.079,89.493 140.743,87.444 144.709,87.455C144.175,92.894 142.717,94.017 137.525,92.99ZM142.461,78.737C141.484,78.943 140.354,78.782 139.522,79.221C137.556,80.256 135.689,81.5 133.853,82.756C133.094,83.275 132.506,84.042 131.842,84.695C131.559,84.512 131.273,84.329 130.991,84.149C132.033,79.298 131.51,73.992 135.987,70.198C138.102,68.408 139.404,68.125 141.079,70.27C142.293,71.824 143.362,73.519 144.289,75.259C145.431,77.405 144.954,78.21 142.461,78.737ZM210.52,86.218C207.997,88.474 205.337,90.585 202.588,92.559C202.317,92.753 201.115,91.719 200.401,91.184C200.256,91.077 200.306,90.631 200.359,90.356C201.439,84.806 204.199,80.172 208.093,75.282C209.139,78.63 210.005,81.164 210.696,83.745C210.906,84.523 210.971,85.817 210.52,86.222L210.52,86.218ZM220.216,75.21C219.682,76.122 218.525,76.924 217.418,76.813C216.426,76.714 215.59,76.473 214.872,75.752C214.433,75.313 214.093,74.713 213.91,74.11C213.769,73.961 213.628,73.813 213.483,73.668C212.204,72.389 212.295,70.381 213.483,69.087C214.204,68.301 215.303,68.033 216.326,68.213C216.506,68.179 216.685,68.148 216.872,68.14C218.62,68.06 220.109,69.686 220.109,71.377L220.109,71.759C220.143,71.82 220.182,71.877 220.212,71.938C220.747,72.984 220.823,74.164 220.212,75.206L220.216,75.21ZM220.025,136.204C219.174,136.753 217.777,136.78 216.712,136.589C215.219,136.318 214.639,135.234 215.231,133.68C216.784,129.585 224.514,126.897 229.495,129.451C225.968,132.001 223.083,134.234 220.029,136.207L220.025,136.204ZM247.577,88.844C246.89,90.161 244.966,91.005 243.439,91.661C241.871,92.333 240.229,90.902 239.897,88.925C238.886,82.852 244.821,75.275 251.543,74.294C252.123,79.683 249.928,84.348 247.577,88.844ZM304.284,88.833C304.693,82.035 309.544,75.229 314.781,74.099C314.228,80.897 309.063,88.142 304.284,88.833Z" />
      <path
        d="M42.158,96.605C42.281,97.059 42.273,97.257 42.361,97.318C46.892,100.548 51.297,103.972 55.995,106.938C63.198,111.48 71.352,113.961 79.459,116.148C85.471,117.771 91.739,117.645 96.911,112.938C98.354,111.625 102.068,111.774 103.675,113.133C105.183,114.408 104.824,116.041 104.637,117.858C104.141,122.679 100.282,124.149 96.877,125.577C93.663,126.924 89.995,127.649 86.498,127.768C79.116,128.02 72.073,126.119 65.149,123.535C54.14,119.431 44.483,113.213 36.032,105.697C32.387,108.01 29.047,110.308 25.539,112.316C19.202,115.942 12.774,115.843 6.4,112.293C5.899,112.014 5.403,111.728 4.903,111.449C1.033,109.278 -0.372,106.571 0.082,102.265C1.296,90.673 10.915,85.478 20.515,86.982C22.76,87.333 24.989,87.814 27.649,88.318C28.646,83.989 31.451,80.615 32.387,76.107C33.665,69.927 36.227,64.003 38.326,58.002C39.944,53.376 39.383,52.769 34.337,52.566C29.932,52.391 25.542,51.746 21.16,51.188C15.431,50.459 11.572,46.978 7.621,42.943C3.579,38.817 2.605,34.302 2.708,29.042C2.808,23.759 5.35,19.388 8.079,15.193C9.743,12.632 16.637,12.563 18.66,14.964C19.362,15.796 19.477,17.323 19.439,18.518C19.404,19.613 18.916,20.747 18.427,21.766C14.816,29.297 19.588,36.332 25.886,38.787C28.856,39.943 31.696,41.081 34.146,43.226C35.158,44.112 36.73,44.478 38.112,44.787C41.032,45.44 43.433,43.818 44.25,40.878C45.391,36.779 46.059,32.462 49.476,29.389C49.579,29.297 49.69,29.152 49.701,29.026C50.144,23.255 54.595,19.468 57.301,14.972C59.71,10.971 62.633,6.433 67.565,4.562C69.928,3.665 72.478,3.051 74.993,2.822C78.646,2.49 82.253,2.123 85.899,3.894C91.632,6.677 94.293,10.631 92.838,16.949C90.208,28.354 84.193,37.466 73.52,42.966C70.1,44.73 66.542,46.23 63.038,47.826C60.007,49.207 57.881,51.341 56.976,54.639C55.728,59.193 54.469,63.743 53.056,68.247C52.537,69.904 51.308,71.347 50.854,73.007C49.957,76.301 49.312,79.668 48.674,83.027C47.907,87.077 46.315,90.532 42.166,96.601L42.158,96.605ZM62.729,39.107C64.015,39.107 64.531,39.268 64.832,39.084C68.466,36.848 72.34,34.889 75.615,32.206C80.238,28.423 83.025,23.167 85.002,17.598C86.17,14.311 84.361,12.632 81.047,13.483C76.146,14.739 72.856,17.8 70.634,22.274C68.748,26.068 66.557,29.706 64.66,33.496C63.863,35.092 63.473,36.893 62.725,39.111L62.729,39.107ZM17.702,93.391C13.331,93.654 10.06,94.963 8.354,98.895C7.335,101.242 7.694,102.533 9.911,103.888C14.538,106.709 19.366,105.041 22.821,101.075C26.283,97.097 25.47,95.063 20.225,93.948C19.252,93.742 18.282,93.52 17.702,93.394L17.702,93.391Z" />
      <path
        d="M58.026,88.047C57.316,85.73 58.362,83.859 59.996,81.771C61.717,79.569 62.591,76.702 63.851,74.129C66.057,69.621 69.638,66.339 73.592,63.438C78.223,60.04 86.151,59.75 90.708,62.724C92.827,64.106 94.59,69.377 93.957,71.977C92.098,79.618 86.594,83.581 79.704,86.039C76.516,87.176 73.161,87.841 69.939,88.886C69.283,89.1 68.363,90.146 68.455,90.638C68.619,91.505 69.374,92.814 70.05,92.929C72.508,93.345 75.261,94.062 77.505,93.372C85.311,90.974 91.77,86.356 96.999,80.023C98.171,78.603 99.564,77.271 101.099,76.278C103.553,74.691 105.71,75.763 105.859,78.706C105.939,80.317 105.542,82.168 104.752,83.573C100.736,90.726 94.976,96.208 87.861,100.246C82.028,103.559 75.722,104.613 69.142,103.475C65.672,102.876 62.351,101.258 60.332,98.467C58.851,96.421 58.557,93.478 57.881,90.898C57.675,90.108 57.954,89.192 58.026,88.043L58.026,88.047ZM81.013,72.671C77.566,72.48 76.604,73.293 75.371,77.133C77.703,75.29 79.356,73.981 81.013,72.671Z" />
    </symbol>
    <symbol id="title-evenement" viewBox="0 0 500 150">
      <path
        d="M293.183,102.049C291.024,104.013 289.119,106.411 286.654,107.851C281.919,110.626 277.152,113.503 271.302,113.579C265.507,113.65 260.935,111.832 258.268,106.387C258.061,105.962 257.795,105.569 257.549,105.164C257.49,105.065 257.394,104.986 257.017,104.557C256.045,105.212 254.743,105.688 254.06,106.617C250.973,110.824 246.484,112.098 241.713,112.836C240.435,113.035 239.042,112.67 237.819,112.999C235.196,113.702 233.842,111.975 233.168,110.233C231.64,106.268 230.62,102.136 231.85,97.786C233.176,93.114 234.374,88.407 235.585,83.708C235.871,82.601 235.978,81.449 236.216,80.056C235.204,80.175 234.331,80.009 233.906,80.37C230.417,83.335 226.881,86.264 223.634,89.479C221.665,91.424 221.038,94.186 220.741,96.933C220.443,99.687 220.193,102.449 219.844,105.196C219.228,110.038 217.494,111.368 212.807,110.689C212.572,110.653 212.346,110.57 212.112,110.534C211.29,110.407 210.469,110.284 209.647,110.169C206.96,109.796 205.881,108.82 205.635,106.125C205.396,103.501 205.389,100.858 205.25,97.603C204.313,98.643 203.777,99.207 203.273,99.802C201.142,102.326 199.11,104.942 196.875,107.375C194.454,110.01 191.156,111.066 187.774,111.844C183.44,112.84 179.126,112.924 174.938,111.233C170.291,109.356 168.338,105.561 168.382,100.83C168.409,97.671 169.108,94.515 169.461,91.356C169.548,90.578 169.473,89.78 169.473,89.01C167.596,88.594 165.901,88.221 163.754,87.744C163.258,90.253 162.646,92.749 162.293,95.281C161.448,101.298 157.951,105.815 153.617,109.522C149.001,113.475 141.341,113.019 136.915,108.919C134.28,106.478 133.716,102.954 133.157,99.556C132.99,98.56 132.978,97.536 132.855,96.055C130.95,98.556 129.14,100.485 127.85,102.715C124.342,108.788 118.384,111.376 112.431,114.035C112.22,114.13 111.966,114.218 111.744,114.194C108.342,113.856 104.731,114.106 101.591,113.015C96.654,111.296 93.919,107.312 93.443,101.969C93.244,99.755 92.697,97.524 92.851,95.337C93.014,93.027 93.685,90.721 94.376,88.487C95.991,83.271 98.233,78.175 102.234,74.5C106.783,70.324 111.609,66.054 118.483,66.105C122.107,66.133 124.984,68.927 125.167,72.487C125.544,79.878 122.278,85.546 116.614,89.88C115.471,90.757 113.494,90.693 111.887,90.769C110.621,90.828 109.331,90.431 107.969,90.225C105.679,92.932 106.66,96.115 107.017,99.06C107.112,99.862 108.978,101.009 110.049,101.029C112.82,101.08 115.697,101.334 118.07,99.024C119.368,97.762 121.524,97.389 122.845,96.143C126.671,92.539 129.553,88.264 131.303,83.224C132.617,79.441 134.169,75.734 135.74,72.047C136.832,69.487 137.9,68.824 139.952,68.987C143.976,69.3 145.171,70.015 145.838,72.92C146.147,74.274 146.203,75.73 146.111,77.123C145.75,82.628 145.076,88.125 144.953,93.63C144.901,95.952 144.953,98.556 146.687,100.707C148.489,100.794 149.87,100.183 150.787,98.552C152.577,95.365 154.442,92.217 156.193,89.01C157.249,87.078 157.137,85.113 155.828,83.311C154.157,81.017 153.47,78.385 153.327,75.643C153.045,70.233 152.275,64.796 153.966,59.449C154.748,56.969 156.002,55.016 158.511,53.881C161.972,52.313 164.821,54.075 165.73,56.81C166.393,58.798 166.75,60.993 166.727,63.089C166.687,66.391 166.203,69.689 165.933,72.992C165.837,74.158 165.806,75.329 165.746,76.492C168.675,78.306 171.692,77.437 174.573,77.457C175.145,77.461 175.879,76.492 176.272,75.817C178.086,72.686 180.892,70.483 183.571,68.249C185.246,66.852 187.5,66.145 189.894,64.927C189.481,64.137 189.124,63.355 188.683,62.625C187.167,60.104 185.484,57.675 184.15,55.068C183.539,53.873 183.539,52.349 183.353,50.964C183.134,49.332 183.396,47.61 185.091,47.094C186.679,46.61 188.516,45.959 190.088,47.55C192.66,50.146 195.351,52.627 197.915,55.23C199.463,56.802 199.626,58.775 199.173,60.866C198.784,62.664 197.875,63.839 195.966,64.2C194.879,64.407 193.839,64.859 192.771,65.518C195.724,65.915 197.518,67.463 199.014,69.844C199.856,71.186 200.138,72.376 199.999,73.809C199.554,78.318 197.554,82.216 194.779,85.625C193.664,86.998 191.775,88.106 190.036,88.542C185.952,89.566 181.749,90.114 177.284,90.912C175.974,93.964 176.423,97.349 178.661,99.893C180.995,102.545 184.198,103.374 188.056,102.469C193.819,101.112 197.212,96.913 201.031,93.102C202.983,86.704 207.329,81.465 209.675,75.254C210.425,73.273 211.445,71.376 212.493,69.531C213.319,68.078 214.378,66.82 216.311,66.709C218.125,66.605 219.582,66.875 220.284,68.864C220.669,69.959 221.336,70.959 222.106,72.444C223.305,71.864 224.535,71.519 225.456,70.785C228.333,68.495 231.612,67.07 235.196,66.979C238.077,66.903 241.062,67.367 243.832,68.161C245.047,68.511 246.174,70.134 246.781,71.44C248.678,75.532 249.024,79.79 247.678,84.2C246.932,86.641 246.44,89.181 246.071,91.709C245.884,93.003 246.222,94.373 246.337,95.849C248.258,95.123 249.778,94.742 251.104,94.007C253.945,92.436 256.204,90.725 257.513,87.153C259.355,82.136 262.669,77.647 265.475,73.007C265.991,72.154 267.011,71.527 267.924,71.011C269.254,70.261 270.837,69.904 272.06,69.027C275.064,66.875 278.406,67.233 281.693,67.554C284.642,67.844 286.789,70.84 286.821,73.881C286.924,83.303 281.804,89.34 274.092,93.706C272.08,94.845 269.972,95.817 268.023,96.806C268.023,97.333 267.94,97.607 268.035,97.794C271.29,104.232 273.183,104.779 279.95,101.818C283.149,100.417 286.162,98.929 288.241,96C288.507,95.627 288.92,95.317 289.325,95.087C293.754,92.575 295.878,88.352 297.227,83.787C298.497,79.489 299.244,75.032 300.2,70.642C300.478,69.372 300.422,67.943 301.006,66.852C301.49,65.947 302.617,64.998 303.59,64.831C305.153,64.569 307.031,64.494 308.396,65.145C310.393,66.093 310.865,68.384 311.147,70.455C311.333,71.825 311.182,73.242 311.182,75.171C312.48,74.889 313.457,74.746 314.389,74.46C317.326,73.555 320.204,72.428 323.181,71.69C328.213,70.439 328.241,70.539 331.15,74.901C331.793,74.571 332.524,74.297 333.139,73.857C334.266,73.047 335.413,72.233 336.389,71.257C338.969,68.677 342.347,68.649 345.59,68.304C350.396,67.788 352.924,70.598 352.131,75.397C351.19,81.108 350.102,86.796 349.356,92.535C349.047,94.932 349.455,97.421 349.527,99.54C352.17,101.092 353.591,100.179 355.294,98.671C357.56,96.663 359.406,94.174 362.351,92.805C363.553,92.245 364.2,90.157 364.768,88.641C367.03,82.628 369.84,76.897 374.825,72.722C379.477,68.828 384.986,67.324 390.999,69.157C393.535,69.931 395.238,71.801 395.897,74.393C397.222,79.632 394.138,86.943 389.086,87.99C388.86,88.038 388.622,88.133 388.435,88.268C384.907,90.785 381.509,93.46 377.651,95.535C375.393,96.75 375.647,98.095 377.873,99.397C379.346,100.255 380.834,100.751 382.605,100.378C383.867,100.112 385.24,100.35 386.49,100.052C388.173,99.651 389.983,99.258 391.38,98.322C394.123,96.484 396.627,94.281 399.211,92.205C399.667,91.84 400.175,91.432 400.421,90.924C402.231,87.209 404.101,83.517 405.7,79.711C406.657,77.437 407.093,74.952 407.879,72.603C408.288,71.38 408.883,70.205 409.514,69.07C410.118,67.987 410.927,67.113 412.384,67.629C413.849,68.145 415.404,68.542 415.396,70.586C415.396,71.368 415.535,72.146 415.639,73.202C416.559,72.869 417.274,72.753 417.818,72.388C421.255,70.058 425.136,69.15 429.181,68.915C430.677,68.828 432.197,69.328 433.717,69.423C435.829,69.558 436.571,70.951 437.5,72.626C439.385,76.036 439.83,79.453 438.897,83.188C437.722,87.887 438.389,92.725 437.94,97.476C437.794,99.016 438.202,100.203 439.457,100.727C441.024,101.382 442.882,102.473 444.465,101.04C446.875,98.862 449.875,97.524 451.764,94.476C453.07,92.368 455.047,90.539 456.122,88.161C457.186,85.807 458.484,83.494 459.111,81.017C461.703,70.821 463.957,60.537 466.605,50.352C467.581,46.594 469.165,42.962 470.76,39.402C471.629,37.457 473.034,35.881 475.717,36.171C478.508,36.469 479.226,36.925 479.539,39.684C479.619,40.366 479.67,41.053 479.77,42.125C483.874,42.248 487.87,42.367 491.863,42.49C493.522,42.541 495.205,42.438 496.832,42.7C498.801,43.018 499.889,44.335 499.992,46.018C500.107,47.896 499.003,48.856 497.38,49.301C496.146,49.638 494.832,50.094 493.602,49.979C489.01,49.543 484.441,48.88 479.861,48.324C479.293,48.257 478.71,48.316 477.845,48.316C477.357,49.856 476.61,51.38 476.42,52.968C475.904,57.29 475.872,61.68 475.174,65.966C474.531,69.916 475.674,74.135 473.177,77.862C472.518,78.842 473.213,80.632 472.86,81.934C471.772,85.946 472.248,90.003 472.237,94.047C472.237,94.476 472.514,94.904 472.721,95.496C476.007,94.801 478.841,93.666 481.016,91.082C483.29,88.375 485.64,85.724 488.089,83.176C489.204,82.017 490.633,81.164 491.863,80.219C493.709,81.489 493.427,83.069 492.911,84.283C490.311,90.412 487.287,96.266 482.163,100.81C480.444,102.334 479.373,104.569 477.714,106.18C474.074,109.713 469.625,110.201 464.977,108.705C460.639,107.312 459.028,104.918 458.746,100.247C458.722,99.826 458.444,99.417 458.143,98.643C457.254,99.671 456.579,100.429 455.924,101.203C453.13,104.497 449.76,107.006 445.795,108.736C445.041,109.066 444.045,109.383 443.703,110.006C442.239,112.662 439.806,112.749 437.285,112.753C435.98,112.753 434.674,112.733 433.372,112.753C431.884,112.777 430.836,111.82 429.594,111.273C425.573,109.506 424.712,105.851 424.271,102.398C423.886,99.37 424.843,96.167 425.279,93.047C425.359,92.495 425.958,92.027 426.053,91.471C426.7,87.792 427.28,84.097 428.014,79.58C425.498,82.537 421.953,83.188 420.89,87.002C420.155,89.634 418.214,91.912 417,94.44C416.242,96.02 415.813,97.762 415.265,99.445C414.214,102.696 413.245,105.974 412.094,109.185C411.856,109.856 411.062,110.562 410.372,110.788C408.486,111.408 406.542,112.043 404.585,112.189C401.33,112.432 400.628,111.793 399.933,108.657C399.532,106.839 399.318,104.982 399.008,103.085C396.869,104.712 394.627,106.204 392.634,107.978C388.514,111.638 383.541,112.039 378.421,112.023C377.123,112.023 375.798,112.102 374.54,111.86C372.622,111.487 370.44,111.558 369.273,109.455C369.11,109.161 368.808,108.816 368.515,108.748C364.954,107.931 364.637,104.359 362.458,102.053C360.203,103.418 357.576,104.752 355.27,106.51C353.925,107.538 353.016,109.193 352.063,110.661C351.023,112.269 349.682,112.828 347.832,112.471C346.788,112.273 345.709,112.122 344.653,112.158C341.267,112.265 339.128,110.55 338.469,107.427C337.945,104.954 337.552,102.227 338.045,99.806C339.291,93.698 340.724,87.594 343.51,81.922C343.931,81.065 343.935,80.009 344.296,78.254C340.779,80.553 338.771,83.12 336.608,85.538C333.579,88.923 332.619,93.226 331.178,97.322C329.976,100.747 328.928,104.236 327.558,107.593C326.967,109.038 325.979,110.499 323.867,110.197C322.835,110.05 321.764,110.197 320.708,110.197C317.037,110.197 315.072,108.292 315.469,104.668C315.735,102.235 316.326,99.794 317.116,97.476C319.128,91.555 321.339,85.7 323.439,79.81C323.625,79.286 323.605,78.687 323.74,77.715C320.339,78.544 318.16,80.529 316.211,82.851C315.076,84.2 313.885,85.518 312.901,86.97C311.123,89.602 309.218,92.13 308.591,95.432C307.825,99.461 306.63,103.41 305.705,107.411C304.832,111.197 303.657,111.995 299.974,111.114C298.942,110.868 297.898,110.689 296.87,110.427C293.425,109.55 292.607,108.169 293.377,104.617C293.56,103.779 293.711,102.934 293.877,102.092C293.647,102.072 293.417,102.053 293.191,102.029L293.183,102.049ZM281.748,73.615C276.485,73.777 270.849,78.842 269.972,84.391C274.231,83.557 278.176,82.632 281.101,79.171C282.546,77.465 283.256,75.837 281.748,73.615ZM389.9,76.56C387.034,76.175 383.398,77.417 380.922,80.398C379.533,82.069 377.115,83.621 377.881,86.947C381.434,85.117 384.791,83.505 388.018,81.672C389.967,80.564 390.487,78.695 389.896,76.56L389.9,76.56ZM184.873,76.667C187.409,77.544 189.683,78.167 191.449,76.377C192.053,75.766 192.525,74.349 192.223,73.666C191.664,72.404 190.314,72.472 189.231,73.261C187.738,74.345 186.321,75.528 184.873,76.671L184.873,76.667ZM160.233,69.57C161.309,66.443 161.444,63.383 159.765,59.854C157.947,63.565 159.277,66.57 160.233,69.57ZM118.063,76.453C114.86,77.584 113.407,80.406 111.617,82.902C114.304,81.275 117.078,79.731 118.063,76.453Z" />
      <path
        d="M44.219,108.963C44.358,109.435 44.35,109.645 44.445,109.709C49.284,113.007 53.995,116.516 59.008,119.532C66.688,124.156 75.324,126.589 83.901,128.712C90.264,130.288 96.856,130.018 102.198,124.954C103.687,123.541 107.6,123.616 109.319,125.009C110.934,126.319 110.593,128.042 110.434,129.963C110.013,135.047 105.989,136.678 102.437,138.254C99.083,139.742 95.241,140.584 91.562,140.786C83.798,141.211 76.344,139.365 68.998,136.797C57.321,132.717 47.025,126.387 37.964,118.659C34.178,121.171 30.713,123.664 27.065,125.855C20.477,129.812 13.71,129.844 6.923,126.248C6.391,125.966 5.863,125.676 5.331,125.39C1.211,123.188 -0.325,120.374 0.056,115.829C1.08,103.604 11.09,97.925 21.227,99.298C23.6,99.62 25.954,100.076 28.768,100.548C29.724,95.972 32.602,92.356 33.487,87.597C34.698,81.065 37.266,74.774 39.345,68.411C40.949,63.506 40.342,62.883 35.031,62.779C30.391,62.688 25.755,62.109 21.132,61.616C15.083,60.973 10.947,57.397 6.704,53.238C2.358,48.983 1.239,44.252 1.231,38.715C1.223,33.151 3.799,28.499 6.581,24.022C8.28,21.287 15.531,21.069 17.71,23.55C18.468,24.411 18.623,26.014 18.607,27.273C18.595,28.428 18.107,29.63 17.615,30.714C13.979,38.719 19.155,46.018 25.835,48.463C28.986,49.614 32.003,50.749 34.626,52.956C35.71,53.865 37.373,54.218 38.833,54.512C41.921,55.135 44.414,53.377 45.208,50.265C46.319,45.923 46.93,41.367 50.455,38.06C50.562,37.961 50.677,37.806 50.685,37.675C51.026,31.595 55.626,27.511 58.377,22.72C60.822,18.457 63.802,13.619 68.95,11.539C71.415,10.543 74.09,9.845 76.729,9.547C80.567,9.114 84.354,8.654 88.232,10.436C94.328,13.238 97.213,17.342 95.82,24.026C93.304,36.088 87.172,45.808 76.055,51.829C72.494,53.758 68.783,55.413 65.132,57.171C61.973,58.691 59.782,60.981 58.901,64.474C57.686,69.292 56.46,74.111 55.071,78.878C54.559,80.632 53.3,82.176 52.86,83.934C51.987,87.419 51.383,90.979 50.788,94.527C50.07,98.806 48.47,102.477 44.235,108.955L44.219,108.963ZM64.616,47.999C65.969,47.971 66.517,48.13 66.831,47.927C70.605,45.494 74.642,43.351 78.031,40.454C82.814,36.37 85.632,30.777 87.593,24.875C88.751,21.391 86.811,19.664 83.342,20.628C78.21,22.057 74.816,25.352 72.574,30.11C70.673,34.143 68.446,38.021 66.533,42.049C65.727,43.744 65.354,45.649 64.616,47.999ZM18.409,106.109C13.817,106.482 10.403,107.931 8.689,112.106C7.665,114.599 8.074,115.952 10.435,117.325C15.365,120.195 20.409,118.333 23.957,114.083C27.518,109.82 26.613,107.697 21.072,106.637C20.044,106.442 19.016,106.228 18.405,106.109L18.409,106.109Z" />
      <path
        d="M110.855,63.359C109.942,60.465 110.613,58.159 112.153,56.076C114.094,53.452 116.07,50.856 118.114,48.316C119.341,46.788 125.008,45.895 126.326,47.205C127.112,47.987 127.628,49.511 127.521,50.63C127.247,53.52 125.723,55.972 123.77,58.072C122.575,59.358 121.051,60.338 119.813,61.593C117.245,64.2 114.268,64.327 110.851,63.363L110.855,63.359Z" />
      <path
        d="M88.049,58.632C88.101,57.945 88.013,57.211 88.232,56.58C89.224,53.69 90.295,50.833 91.351,47.967C91.8,46.745 92.554,46.014 94.002,46.117C95.503,46.229 96.84,46.471 97.368,48.138C97.583,48.812 98.027,49.519 97.956,50.162C97.507,54.123 97.483,58.211 95.356,61.783C94.61,63.037 94.022,64.744 91.982,64.303C90.621,64.01 88.287,61.394 88.148,60.053C88.101,59.592 88.2,59.116 88.232,58.648C88.172,58.644 88.108,58.636 88.049,58.632Z" />
    </symbol>
    <symbol id="title-contactez-nous" viewBox="0 0 500 150">
      <path
        d="M105.285,92.24C101.981,93.119 99.122,93.981 96.214,94.608C94.7,94.935 93.602,95.507 92.72,96.834C90.232,100.581 86.853,103.44 83.126,105.894C78.698,108.808 73.259,108.615 68.279,105.144C66.707,106.21 65.044,107.509 63.225,108.535C61.061,109.753 58.794,110.808 56.513,111.799C54.884,112.509 53.134,112.94 51.482,113.6C48.123,114.942 44.812,116.161 41.06,115.066C38.666,114.368 36.06,114.342 33.716,113.537C30.417,112.402 28.377,109.592 26.374,106.903C25.245,105.383 24.228,103.759 23.326,102.093C21.041,97.883 19.921,93.346 19.987,88.562C20.027,85.7 19.932,82.769 20.507,79.997C22.329,71.195 24.529,62.481 28.888,54.507C29.624,53.162 30.69,51.996 31.664,50.665C30.305,47.841 27.661,46.157 25.101,44.824C22.337,43.387 19.254,44.516 17.044,46.467C13.752,49.372 11.056,52.772 11.818,57.725C12.013,59.001 11.706,60.36 11.597,61.679C11.335,64.863 10.732,65.432 7.485,65.791C6.784,65.868 6.103,66.138 5.419,66.342C3.146,67.015 1.75,66.256 1.224,63.886C0.758,61.788 0.367,59.665 0.092,57.533C-0.463,53.226 1.6,49.674 3.571,46.111C5.427,42.752 8.807,40.956 11.49,38.448C12.048,37.928 13.027,37.856 13.815,37.583C22.222,34.695 29.388,36.434 35.178,43.31C35.325,43.482 35.578,43.562 36.037,43.838C38.551,41.109 40.951,38.172 43.701,35.615C46.226,33.264 49.005,31.127 51.913,29.268C54.068,27.888 56.596,27.087 58.981,26.081C59.4,25.903 59.946,25.911 60.415,25.975C63.966,26.452 67.722,26.409 71.003,27.627C74.124,28.788 77.201,30.719 79.051,33.856C79.6,34.787 80.066,35.767 80.586,36.718C82.258,39.781 83.321,42.735 82.861,46.551C81.887,54.633 78.761,61.179 71.977,65.799C68.633,68.075 64.733,68.693 60.932,68.075C49.436,66.202 51.849,66.5 42.135,61.288C41.646,62.179 41.181,63.084 40.66,63.963C38.083,68.319 36.741,73.086 35.25,77.905C33.023,85.1 33.759,91.809 36.287,98.564C36.954,100.343 37.847,102.104 38.965,103.633C40.85,106.21 43.907,106.314 46.496,105.702C50.867,104.667 55.536,104.026 58.846,100.337C59.541,99.564 60.596,98.872 61.596,98.653C64.989,97.918 66.233,95.49 66.831,92.499C68.86,82.358 75.672,76.842 84.93,73.646C86.18,73.215 87.361,72.514 88.64,72.25C90.24,71.92 92.059,71.417 93.522,71.859C98.286,73.305 99.774,74.253 99.194,80.203C99.033,81.847 98.74,83.479 98.386,85.962C103.294,82.781 105.627,78.227 109.101,74.813C113.465,75.638 114.123,76.198 115.744,80.801C116.908,79.807 117.896,78.847 118.997,78.046C120.928,76.643 122.764,74.885 124.936,74.083C129.556,72.379 134.452,75.741 134.725,80.666C134.875,83.364 134.444,86.097 134.266,88.812C134.139,90.714 133.996,92.613 133.869,94.383C137.633,96.286 138.116,96.211 140.064,93.349C142.038,90.45 143.343,87.315 144.328,83.887C145.883,78.494 148.135,73.296 150.132,68.032C150.81,66.248 151.512,64.457 152.379,62.762C153.517,60.535 154.669,58.286 156.112,56.254C157.798,53.881 160.396,53.766 162.129,56.105C163.183,57.53 164.252,57.768 165.778,57.728C167.462,57.685 169.163,57.768 170.835,57.958C171.579,58.041 172.28,58.524 173.297,58.949C171.329,61.208 169.194,62.291 166.617,62.604C165.548,62.736 164.488,63.018 163.419,63.055C162.085,63.104 161.476,63.923 161.086,64.978C158.741,71.276 156.253,77.525 154.172,83.91C152.991,87.536 152.33,91.361 151.747,95.145C151.187,98.768 152.931,100.285 156.64,99.673C158.643,99.343 160.609,98.794 162.87,98.28C163.028,97.343 163.157,96.297 163.381,95.271C164.623,89.611 167.37,84.557 171.41,80.649C175.944,76.261 181.429,73.21 188.313,74.922C189.693,75.264 191.19,75.115 192.629,75.233C194.945,75.422 195.988,76.58 195.459,78.79C194.684,82.045 193.609,85.226 192.767,88.467C192.227,90.542 191.575,92.657 191.511,94.768C191.425,97.682 192.848,98.415 195.393,97.093C196.994,96.263 198.548,95.352 200.071,94.507C201.166,91.591 201.226,88.387 203.476,85.953C204.235,85.134 204.37,83.761 204.864,82.672C207.714,76.391 213.019,73.419 219.659,74.807C221.397,75.169 222.868,76.807 224.684,78.005C224.684,79.612 224.952,81.341 224.601,82.936C224.319,84.212 223.541,85.818 222.506,86.341C221.725,86.737 219.978,85.924 219.038,85.177C216.257,82.962 215.458,83.002 213.881,86.151C212.915,88.082 211.976,90.039 211.205,92.056C210.536,93.812 210.375,95.993 211.843,97.113C212.961,97.967 215.018,98.064 216.538,97.803C218.866,97.403 221.061,96.306 223.363,95.694C225.67,95.082 228.04,94.7 230.537,94.185C230.876,92.57 231.135,90.91 231.58,89.3C232.414,86.304 233.169,83.264 234.296,80.373C237.298,72.664 240.542,65.047 243.565,57.346C244.87,54.027 246.269,53.421 249.053,55.576C249.964,56.28 250.576,57.372 251.401,58.38C254.688,58.906 258.271,57.88 261.952,59.55C258.82,63.233 254.524,63.429 250.682,64.443C247.476,72.126 244.286,79.764 241.1,87.401C239.367,91.556 240.626,95.444 242.401,99.17C242.68,99.757 244.352,100.142 245.189,99.915C248.059,99.133 250.846,98.038 253.653,97.064C254.323,94.585 254.797,92.366 255.524,90.237C257.291,85.074 259.906,80.203 263.621,76.35C266.239,73.635 270.399,73.029 274.359,73.405C275.192,73.486 276.008,73.75 276.841,73.836C280.887,74.247 283.054,76.925 282.482,80.942C281.988,84.407 281.111,87.539 278.494,90.323C275.732,93.26 272.281,94.062 268.819,95.176C266.897,95.794 264.831,96.07 263.029,96.921C261.607,97.593 261.44,99.142 261.955,100.811C265.437,101.271 268.253,99.642 271.135,98.331C275.436,96.375 278.396,92.625 282.183,89.97C286.091,87.229 287.625,82.723 290.51,78.626C292.99,79.002 295.705,79.324 298.383,79.839C302.538,80.634 306.526,80.249 310.261,78.27C312.086,77.301 313.911,77.261 315.864,77.419C317.775,77.574 318.353,78.77 318.255,80.37C318.143,82.2 317.577,83.792 316.034,85.108C311.658,88.844 308.856,93.648 306.681,98.955C305.239,102.472 303.173,105.733 301.282,109.305C303.621,111.635 306.701,112.17 309.655,112.891C314.244,114.011 318.583,111.934 323.074,111.667C325.775,111.506 325.93,111.368 328.493,112.779C328.148,117.462 325.441,120.525 321.269,122.361C314.712,125.249 308.672,124.238 302.63,121.063C300.644,120.02 298.501,119.272 296.119,118.261C295.906,118.399 295.372,118.663 294.938,119.043C290.185,123.226 284.858,124.778 278.649,122.841C275.962,122.005 275.629,121.706 275.66,118.876C275.698,115.595 277.356,112.997 279.847,111.31C282.186,109.727 284.973,108.339 287.72,107.937C291.033,107.451 292.972,105.452 294.435,103.144C297.576,98.188 300.242,92.932 303.19,87.643C301.012,86.128 298.584,86.016 296.306,85.602C295.794,85.511 294.866,86.39 294.513,87.033C293.941,88.071 293.628,89.266 293.311,90.421C292.645,92.866 291.148,94.599 289.128,96.093C287.614,97.214 286.375,98.714 285.039,100.07C282.126,103.024 278.609,105.121 274.911,106.848C272.008,108.204 268.983,109.595 265.871,110.109C263.526,110.497 260.958,109.529 258.492,109.132C258.041,109.061 257.613,108.828 257.102,108.647C253.228,112.942 248.151,111.928 243.255,112.115C237.577,112.33 234.718,108.27 231.083,104.828C227.227,108.96 221.877,110.497 216.659,110.937C211.315,111.385 205.993,109.618 201.548,105.825C194.985,110.517 188.931,108.98 183.081,104.067C177.352,107.615 171.516,109.609 165.183,104.607C163.881,105.782 162.333,106.911 161.123,108.331C158.965,110.856 156.043,110.782 153.204,110.914C152.043,110.968 150.839,110.514 149.681,110.196C145.469,109.032 141.78,107.204 140.65,102.084C137.418,105.613 133.478,106.245 129.539,106.727C125.921,107.17 123.769,105.503 122.611,101.995C121.652,99.087 120.962,96.228 121.988,93.191C122.155,92.697 121.928,92.073 121.815,90.671C120.459,92.027 119.39,92.783 118.747,93.803C116.916,96.714 115.215,99.708 113.543,102.713C111.773,105.897 109.739,106.747 106.397,105.561C103.891,104.67 103.107,103.561 103.558,100.906C103.937,98.668 104.653,96.487 105.156,94.266C105.308,93.596 105.245,92.875 105.279,92.234L105.285,92.24ZM59.533,62.251C64.075,62.188 68.305,60.837 69.917,59.248C74.687,54.55 75.71,46.778 72.316,40.979C70.997,38.724 68.759,37.661 66.139,38.56C61.952,39.997 58.171,42.106 54.953,45.332C52.64,47.654 51.206,50.844 47.887,52.26C46.574,52.82 46.651,54.921 47.738,56.033C48.401,56.714 49.361,57.122 49.959,57.843C52.734,61.208 56.585,61.866 59.533,62.248L59.533,62.251ZM80.459,86.324C76.638,89.013 74.454,92.519 73.968,96.99C73.675,99.662 75.678,101.041 78.092,99.851C81.103,98.369 83.907,96.561 85.106,93.154C83.591,90.927 82.1,88.737 80.459,86.324ZM184.205,82.565C183.538,82.479 183.262,82.353 183.084,82.436C176.998,85.269 173.625,90.292 171.869,96.547C171.731,97.036 172.34,97.734 172.585,98.291C177.688,97.377 178.998,92.938 181.308,89.628C182.733,87.585 183.828,85.186 184.207,82.565L184.205,82.565ZM264.997,87.976C268.075,86.89 271.744,86.671 272.87,82.603C268.859,81.68 267.259,82.723 264.997,87.976ZM88.812,87.168C89.605,85.442 90.234,84.433 90.49,83.338C90.596,82.887 90.013,82.077 89.528,81.767C89.275,81.606 88.304,82.037 88.088,82.436C87.367,83.761 87.444,85.12 88.812,87.171L88.812,87.168Z" />
      <path
        d="M499.383,78.25C496.828,78.629 496.107,78.91 494.946,80.856C492.406,85.117 488.073,86.643 483.866,88.384C483.614,88.487 483.214,88.234 482.657,88.091L482.657,80.614C484.047,79.807 485.513,79.186 486.702,78.224C489.441,76.005 491.599,73.506 491.133,69.503C490.472,63.825 490.196,63.34 484.619,62.377C480.309,61.633 475.249,63.794 473.563,68.009C472.502,70.661 472.068,73.557 471.209,76.296C470.227,79.428 470.27,82.879 467.543,85.462C465.391,87.499 463.767,90.099 461.94,92.473C461.075,93.596 460.282,94.774 459.477,95.903C457.156,94.791 456.779,93.237 457.466,91.07C458.656,87.306 459.808,83.516 460.658,79.666C461.029,77.988 460.986,76.008 460.44,74.402C459.908,72.839 458.024,73.221 456.593,73.23C456.475,73.23 456.357,73.184 456.239,73.161C452.88,72.532 452.05,72.813 450.696,75.839C449.133,79.333 447.929,82.991 446.355,86.479C445.076,89.309 443.602,92.07 441.967,94.711C441.364,95.685 440.056,96.222 438.876,97.102C438.335,95.993 437.876,95.386 437.743,94.717C436.853,90.165 436.841,85.623 439.062,81.436C440.378,78.956 440.7,76.434 440.47,73.764C440.321,72.014 439.35,70.934 437.545,70.592C434.936,70.101 432.787,70.601 431.445,73.115C430.888,74.161 430.319,75.201 429.787,76.258C428.339,79.135 426.741,81.873 423.213,83.876C423.417,82.307 423.446,81.37 423.673,80.485C424.839,75.885 420.558,70.776 416.728,70.523C413.004,70.276 409.266,70.089 406.904,73.991C406.309,74.974 405.211,75.681 404.269,76.416C399.054,80.485 394.422,85.022 393.132,91.843C392.508,95.136 390.626,96.432 387.532,96.765C384.767,97.064 383.5,95.935 383.926,93.102C384.733,87.697 385.336,82.295 385.348,76.804C385.351,75.201 384.857,74.784 383.799,74.121C379.575,71.46 375.573,72.299 371.636,74.741C369.536,76.046 367.438,77.356 365.025,78.859C364.737,77.701 364.536,76.807 364.292,75.925C363.329,72.431 364.068,72.33 359.226,71.917C358.594,74.336 357.858,76.606 357.419,78.931C356.379,84.445 355.787,90.053 353.638,95.314C352.224,98.774 351.342,102.256 352.707,106.009C353.684,108.696 359.807,110.937 362.068,109.21C362.691,108.733 363.183,107.926 363.444,107.173C363.993,105.59 364.619,103.96 364.74,102.317C365.151,96.708 368.723,92.981 372.237,89.197C372.398,89.025 372.863,89.137 372.987,89.128C372.929,93.162 372.74,97.082 372.869,100.995C372.949,103.406 373.691,105.4 376.222,106.857C380.555,109.348 384.627,109.868 389.144,107.578C391.945,106.158 392.528,106.282 394.327,108.753C395.735,110.69 397.496,111.224 399.637,111.112C402.054,110.983 404.384,110.581 406.375,108.969C410.185,105.883 414.101,102.958 416.682,98.599C417.343,97.484 418.765,96.57 420.035,96.128C421.808,95.507 423.767,95.415 426.046,95.03C426.42,96.01 427.029,97.038 427.192,98.133C428.672,107.934 437.43,111.851 445.496,107.279C447.148,106.342 448.467,106.21 450.182,107.104C451.702,107.897 453.478,108.193 454.501,108.509C456.397,107.118 457.616,106.204 458.854,105.319C459.914,104.561 461.072,103.92 462.055,103.078C464.615,100.88 466.928,98.507 468.319,95.3C468.819,94.148 470.106,93.335 471.376,92.01C471.804,93.996 472.077,95.266 472.376,96.651C470.827,97.975 469.546,99.558 467.885,100.366C466.101,101.234 465.037,102.587 464.092,104.081C461.813,107.676 463.216,113.885 466.954,115.784C468.281,116.459 470.195,116.046 471.841,116.026C477.071,115.968 480.378,113.184 481.861,108.368C482.723,105.567 484.404,103.567 486.464,101.647C488.74,99.527 490.886,97.257 492.969,94.947C495.909,91.685 497.693,87.732 499.342,83.72C500.092,81.893 500.316,80.063 499.397,78.244L499.383,78.25ZM400.1,102.035C399.111,95.633 399.131,90.41 403.749,85.89C404.984,88.806 406.082,91.392 407.421,94.55C405.355,96.665 403.016,99.053 400.103,102.035L400.1,102.035ZM413.024,84.522C411.702,84.045 410.921,82.902 411.082,81.525C410.918,81.287 410.76,81.045 410.613,80.792C410.24,80.149 410.176,79.416 410.34,78.701C410.472,78.117 411.03,77.333 411.587,77.08C412.162,76.819 412.774,76.623 413.392,76.546C413.688,76.445 414.001,76.385 414.311,76.37C414.986,76.339 415.759,76.695 416.231,77.166C416.432,77.367 416.63,77.658 416.782,77.971C417.308,78.66 417.593,79.499 417.67,80.416C417.877,82.87 415.621,85.462 413.027,84.522L413.024,84.522Z" />
      <path
        d="M323.258,80.43C323.74,76.603 324.594,75.529 327.809,75.241C332.116,74.856 336.441,74.658 340.765,74.48C341.814,74.437 342.92,74.658 343.928,74.977C346.523,75.799 347.434,77.531 346.856,80.255C346.336,82.706 344.687,84.126 342.176,83.6C337.665,82.652 333.125,82.453 328.556,82.209C326.74,82.111 324.976,81.037 323.258,80.433L323.258,80.43Z" />
    </symbol>
  </defs>
</svg>
  
