<svg style="position: absolute; width: 0; height: 0; overflow: hidden;" version="1.1"
  xmlns="http://www.w3.org/2000/svg">
  <defs>
    <symbol id="logo" viewBox="0 0 500 373">
      <path
        d="M420.051,226.408C413.647,227.2 411.078,228.68 406.261,235.188C404.213,237.957 401.805,240.875 402.378,244.818C402.679,244.864 402.807,244.925 402.898,244.89C410.48,242.003 415.645,236.463 419.525,229.574C419.964,228.795 419.853,227.703 420.051,226.408M232.294,240.809C232.745,240.446 232.975,240.339 233.082,240.16C233.251,239.876 233.396,239.552 233.454,239.228C234.866,231.65 234.674,224.093 232.963,216.592C232.614,215.063 231.946,213.561 231.179,212.186C230.134,210.309 228.247,210.375 227.194,212.224C226.916,212.709 226.789,213.283 226.618,213.825C224.519,220.44 224.654,227.025 227.326,233.416C228.47,236.157 229.914,238.859 232.294,240.809M360.626,231.936C359.247,232.007 358.018,231.85 356.925,232.162C352.44,233.442 349.212,236.129 347.672,240.698C347.247,241.956 346.464,243.126 345.694,244.232C344.051,246.588 342.841,249.119 342.243,251.928C341.774,254.137 341.192,256.338 340.954,258.574C340.632,261.59 340.344,264.649 340.515,267.663C340.646,269.991 342.217,271.075 344.16,270.775C348.097,270.166 351.134,268.396 352.384,264.303C353.131,261.862 353.945,259.433 354.873,257.057C356.055,254.035 357.551,251.127 358.608,248.064C360.322,243.104 360.505,237.895 360.626,231.936M290.021,236.932C286.735,235.865 283.966,237.246 281.793,238.247C277.063,240.426 271.711,242.164 269.123,247.458C268.932,247.848 268.479,248.104 268.209,248.469C264.383,253.662 262.607,259.379 263.324,265.905C263.535,267.843 264.842,268.878 265.635,270.33C267.665,274.033 267.675,274.027 271.817,273.592C272.496,273.521 273.181,273.475 273.853,273.366C277.085,272.845 279.906,271.876 279.743,267.772C283.118,258.519 285.078,248.781 289.365,239.84C289.739,239.059 289.768,238.11 290.021,236.932M57.284,279.77C57.842,282.142 58.136,284.071 58.765,285.886C59.443,287.851 61.566,288.852 63.716,288.527C66.584,288.097 69.075,286.802 71.411,285.161C72.661,284.283 73.404,283.219 73.626,281.558C73.892,279.571 75.11,277.859 75.501,275.757C76.02,272.957 77.599,270.334 78.853,267.696C80.259,264.74 81.999,261.928 83.237,258.908C84.194,256.572 84.943,254.041 84.238,251.429C83.851,249.995 82.961,249.615 81.391,249.852C77.643,250.418 74.184,251.526 70.801,253.322C66.3,255.706 62.689,259.065 61.056,263.654C59.175,268.94 58.434,274.633 57.284,279.77M332.18,331.452C330.088,330.785 328.336,329.923 326.508,329.7C319.599,328.85 312.772,329.269 306.137,331.617C301.632,333.212 297.694,335.397 295.537,340.026C293.767,343.826 294.216,348.806 296.934,352.042C301.109,357.016 301.804,357.27 307.911,354.964C310.767,353.887 313.465,352.402 316.274,351.198C320.853,349.233 323.858,345.298 327.581,342.267C327.982,341.941 328.109,341.277 328.35,340.763C328.824,339.754 329.329,338.76 329.748,337.729C330.525,335.807 331.248,333.864 332.18,331.452M350.707,330.169C352.45,332.173 354.674,332.831 356.854,333.248C362.434,334.311 368.035,335.324 373.667,336.019C379.305,336.712 384.988,337.042 390.659,337.441C394.396,337.702 398.148,337.97 401.885,337.898C403.641,337.863 405.427,337.153 407.115,336.522C409.024,335.807 410.766,334.587 412.707,334.035C416.734,332.892 419.481,328.111 418.015,323.28C417.526,321.665 417.296,319.972 416.851,318.341C416.684,317.73 416.356,317.08 415.907,316.649C413.714,314.549 412.234,312.338 413.76,309.138C414.064,308.502 413.74,307.577 413.76,306.788C413.863,302.819 416.035,301.194 419.843,302.356C421.684,302.917 423.432,303.467 425.448,303.413C426.527,303.385 428.112,304.434 428.655,305.439C430.806,309.406 432.556,313.588 434.606,317.614C436.817,321.955 435.881,326.273 434.689,330.568C433.662,334.263 431.412,337.362 428.871,340.109C427.294,341.812 425.22,343.309 423.079,344.189C415.56,347.274 407.787,349.452 399.523,348.627C396.486,348.325 393.498,347.559 390.465,347.177C385.628,346.567 380.781,346.291 376.047,344.795C372.948,343.814 369.569,343.603 366.291,343.333C360.892,342.89 355.88,341.017 350.785,339.444C348.145,338.629 348.433,338.747 346.635,341.112C342.795,346.16 340.318,352.163 335.86,356.738C330.668,362.06 324.903,366.716 317.716,369.054C313.318,370.484 308.785,371.593 304.232,372.411C301.705,372.866 298.946,372.801 296.417,372.312C291.892,371.44 287.446,370.486 283.664,367.211C277.271,361.672 275.253,354.803 276.185,346.764C276.457,344.41 277.061,342.169 278.618,340.151C280.992,337.072 281.93,333.127 284.451,330.06C285.94,328.252 290.283,323.713 292.118,322.749C294.607,321.438 297.071,320.062 299.639,318.922C300.726,318.437 302.039,318.383 303.26,318.3C305.509,318.145 307.877,318.522 309.999,317.95C314.951,316.615 319.919,316.881 324.909,317.13C327.847,317.277 330.789,317.499 333.705,317.867C335.112,318.047 335.96,317.529 336.403,316.373C337.253,314.154 338.316,311.935 338.655,309.623C339.081,306.689 339.762,303.942 341.015,301.242C342.319,298.429 342.833,295.328 343.34,292.267C343.594,290.745 344.335,288.948 343.787,287.774C343.409,286.959 341.226,286.862 339.818,286.673C336.085,286.171 332.583,284.959 329.174,283.441C328.461,283.123 327.66,282.71 327.225,282.106C324.812,278.757 321.085,276.198 320.94,271.409C318.958,271.455 318.374,272.939 317.535,274.043C315.686,276.469 313.914,278.954 312.037,281.361C311.347,282.247 310.438,282.964 309.653,283.777C308.783,284.679 307.492,285.469 307.168,286.544C306.103,290.076 303.068,291.556 300.493,293.501C298.449,295.046 296.01,295.803 293.461,295.654C290.291,295.469 287.112,295.141 283.988,294.585C282.885,294.389 281.82,293.463 280.944,292.648C280.047,291.814 279.401,290.708 278.457,289.476C276.439,289.828 274.349,290.229 272.244,290.557C267.758,291.258 263.63,290.63 259.429,288.513C255.677,286.625 252.81,284.22 250.885,280.6C247.433,274.115 246.074,267.293 247.609,259.999C247.973,258.265 248.15,256.493 248.438,254.58C246.191,254.58 244.312,254.494 242.451,254.633C241.892,254.673 241.143,255.227 240.889,255.744C240.097,257.371 239.262,259.039 238.873,260.787C237.51,266.924 235.297,272.72 232.252,278.203C231.765,279.081 231.096,279.858 230.508,280.68C229.795,281.677 228.819,282.577 228.416,283.687C227.21,287.013 225.015,289.472 222.236,291.51C220.452,292.817 219.114,294.536 216.895,295.495C213.108,297.134 209.056,297.966 205.282,297.501C199.062,296.733 193.899,294.732 192.062,287.682C191.649,286.103 191.182,284.325 189.096,283.358C188.105,284.442 186.666,285.416 186.104,286.757C184.95,289.508 182.586,290.994 180.437,292.509C176.287,295.433 171.822,297.911 167.463,300.527C166.895,300.868 166.051,301.26 165.53,301.077C162.193,299.913 158.759,301.192 155.362,300.487C152.763,299.949 150.533,298.848 148.226,297.476C145.1,301.125 141.087,303.179 136.866,304.925C135.078,305.664 133.415,305.672 131.601,304.875C129.005,303.733 126.335,302.738 123.638,301.86C121.663,301.216 120.279,300.227 119.552,298.153C119.041,296.693 118.054,295.384 117.188,294.065C115.706,291.808 114.74,289.498 115.559,286.705C115.829,285.787 115.692,284.748 115.751,283.55C113.278,283.93 112.362,285.833 110.91,286.973C109.403,288.155 107.974,289.436 106.504,290.666C105.553,291.461 104.409,292.1 103.662,293.052C101.334,296.019 98.411,297.934 94.824,299.081C93.634,299.464 92.611,300.588 91.695,301.546C90.76,302.525 89.999,303.683 89.256,304.824C88.147,306.53 86.367,307.336 84.602,307.291C81.689,307.217 78.755,306.744 75.899,306.121C73.398,305.578 71.125,305.624 68.563,306.18C64.898,306.977 61.044,307.807 57.268,305.952C55.559,305.112 53.605,304.73 51.731,304.269C50.019,303.846 48.732,303.27 47.806,301.466C46.908,299.722 45.144,298.427 43.795,296.905C43.207,296.242 42.425,295.58 42.214,294.788C41.201,290.966 40.319,287.106 39.479,283.242C39.348,282.637 39.765,281.937 39.757,281.282C39.743,280.205 39.59,279.127 39.475,277.829C36.938,278.235 35.712,279.405 35.232,281.536C34.004,286.997 31.805,292.172 30.56,297.654C30.055,299.877 29.151,302.265 26.988,304.023C25.127,305.533 24.07,308.004 22.514,309.935C21.458,311.246 20.188,312.394 18.943,313.538C18.551,313.9 17.939,314.188 17.411,314.216C11.573,314.543 6.112,313.512 2,308.973C1.011,307.881 0.57,306.145 0.246,304.627C-0.61,300.608 0.888,297.017 2.868,293.679C5.19,289.762 8.204,286.429 11.875,283.656C13.166,282.68 14.048,281.165 15.027,280.003C11.076,272.639 10.653,264.903 9.95,257.238C9.584,253.249 10.325,249.431 12.091,245.801C12.512,244.937 12.522,243.881 12.822,242.947C14.187,238.69 21.215,230.752 25.327,228.646C27.407,227.58 29.463,227.504 31.553,228.442C33.764,229.435 35.486,232.303 34.749,234.53C33.946,236.956 33.627,239.649 31.581,241.582C28.911,244.105 28.142,247.693 26.946,250.931C25.508,254.828 26.684,258.751 28.057,262.573C29.244,265.871 30.13,269.276 31.169,272.627C31.297,273.046 31.553,273.425 31.863,274.045C34.791,272.603 37.643,271.246 40.436,269.776C40.969,269.496 41.414,268.831 41.654,268.243C42.89,265.209 44.105,262.162 45.214,259.079C47.669,252.265 52.045,246.773 57.546,242.323C61.211,239.357 65.347,236.837 70.116,235.79C71.105,235.573 72.126,235.46 73.136,235.404C74.602,235.323 76.153,235.631 77.528,235.257C80.718,234.391 83.604,235.553 86.465,236.421C87.71,236.799 88.821,238.161 89.623,239.33C91.342,241.832 92.609,244.661 94.448,247.059C97.047,250.444 96.951,254.367 96.783,258.124C96.618,261.82 95.603,265.442 93.68,268.831C92.516,270.883 91.808,273.525 91.888,275.869C92.009,279.365 89.844,282.005 89.305,285.195C88.99,287.047 88.296,288.836 87.79,290.588C89.445,292.215 90.855,292.094 92.253,290.916C93.036,290.257 93.801,289.55 94.446,288.761C97.527,284.983 100.726,281.286 103.56,277.329C105.525,274.585 107.221,271.572 108.576,268.479C110.6,263.855 113.753,259.975 116.349,255.734C119.17,251.129 122.309,246.715 125.082,242.083C126.035,240.494 126.298,238.493 126.84,236.793C131.967,236.33 135.044,238.142 136.244,242.792C137.255,246.707 137.865,250.656 137.811,254.86C137.718,261.894 135.825,268.656 135.598,275.628C135.537,277.492 135.261,279.434 134.627,281.173C133.985,282.927 134.522,284.236 135.284,285.736C137.499,285.42 139.22,284.617 140.757,282.788C143.961,278.97 147.543,275.485 150.04,271.093C153.757,264.552 156.591,257.675 158.212,250.323C158.401,249.461 158.306,248.515 158.224,247.619C157.831,243.404 159.122,239.832 162.092,236.807C164.925,233.924 168.16,234.705 171.323,235.825C174.187,236.84 175.171,239.117 175.663,242.13C176.319,246.155 174.905,249.747 174.181,253.455C172.914,259.917 170.882,266.197 168.29,272.267C166.843,275.656 165.217,278.97 163.389,282.927C164.71,282.633 165.451,282.605 166.069,282.311C172.054,279.472 177.562,276.03 181.72,270.668C183.377,268.529 185.536,266.781 187.455,264.846C189.455,262.828 190.349,260.344 190.878,257.575C191.768,252.903 192.678,248.203 194.076,243.668C195.103,240.339 196.815,237.2 198.43,234.085C199.416,232.18 203.47,230.855 205.403,231.729C206.245,232.109 207.226,232.985 207.429,233.813C207.878,235.639 208.244,237.633 207.975,239.459C207.362,243.602 206.092,247.653 205.56,251.801C204.95,256.574 203.949,261.371 204.886,266.244C205.077,267.237 204.964,268.29 204.974,269.315C204.978,269.655 204.843,270.015 204.92,270.332C205.663,273.451 206.152,276.669 207.286,279.641C208.317,282.347 209.944,282.504 212.399,280.763C212.491,280.696 212.586,280.632 212.673,280.559C218.573,275.622 223.446,269.945 225.985,262.504C226.827,260.037 228.007,257.687 228.988,255.267C229.364,254.341 229.618,253.364 229.856,252.633C227.949,250.756 226.018,249.292 224.67,247.414C223.174,245.325 221.978,242.943 221.068,240.531C219.831,237.256 218.967,233.839 217.997,230.466C217.814,229.824 217.781,229.105 217.836,228.432C218.333,222.085 218.706,215.722 221.076,209.687C222.457,206.171 224.928,204.169 228.664,203.706C232.047,203.287 236.676,206.028 238.239,209.054C241.726,215.816 242.379,223.166 242.806,230.539C243.047,234.689 242.85,238.865 242.85,243.233C243.478,243.362 244.139,243.688 244.727,243.589C247.174,243.179 249.604,242.657 252.029,242.132C252.443,242.041 252.911,241.805 253.178,241.491C254.852,239.52 256.773,237.677 258.04,235.462C259.574,232.778 261.624,230.774 264.143,229.169C268.599,226.334 273.43,224.477 278.664,223.619C280.209,223.368 281.66,222.57 283.203,222.288C287.081,221.582 290.865,222.139 294.564,223.452C296.385,224.099 298.276,224.56 300.066,225.275C302.466,226.233 304.319,227.778 305.13,230.406C306.806,235.825 306.832,241.334 306.016,246.852C305.03,253.535 303.906,260.182 301.425,266.554C300.547,268.807 300.545,271.401 300.144,273.819C303.386,274.56 304.969,274.043 306.421,271.705C309.355,266.977 312.178,262.178 315.138,257.468C316.345,255.549 317.569,253.545 319.194,252.011C320.9,250.396 321.389,248.449 322.017,246.399C322.507,244.808 323.308,243.306 324.031,241.793C324.812,240.156 325.65,238.547 326.488,236.938C326.9,236.149 327.195,235.182 327.835,234.647C330.781,232.186 333.35,229.353 336.633,227.184C340.108,224.888 343.86,223.344 347.601,221.805C352.078,219.965 356.834,219.032 361.802,219.415C363.913,219.576 366.085,219.117 368.216,218.835C369.932,218.607 370.961,219.318 371.83,220.754C373.842,224.069 374.567,227.804 374.909,231.499C375.354,236.314 375.395,241.153 374.563,246.03C373.804,250.484 373.204,254.951 371.901,259.288C371.156,261.763 370.352,264.224 369.442,267.122C371.74,266.29 373.325,264.989 374.75,263.523C376.637,261.582 378.313,259.427 380.262,257.555C381.79,256.087 382.372,254.331 382.449,252.373C382.576,249.196 383.651,246.223 384.217,243.163C384.944,239.242 386.887,235.901 388.572,232.544C390.349,229.002 393.214,225.929 395.937,222.957C400.721,217.731 407.59,217.109 413.949,215.698C416.495,215.132 419.358,215.943 422.065,216.235C422.695,216.304 423.412,216.672 423.855,217.131C425.198,218.517 426.825,219.832 427.588,221.515C428.392,223.287 428.521,225.446 428.595,227.448C428.714,230.631 427.147,233.416 425.768,236.123C423.482,240.597 420.097,244.31 416.418,247.677C415.131,248.855 413.347,249.538 411.712,250.277C408.706,251.636 405.647,252.891 402.598,254.155C400.055,255.209 399.648,255.897 400.045,258.557C400.606,262.327 405.02,268.821 410.085,269.244C411.424,269.355 412.735,269.79 413.857,269.51C417.06,267.859 420.333,266.326 423.444,264.518C426.175,262.933 428.821,261.163 431.322,259.238C433.275,257.734 434.972,255.893 436.743,254.161C441.128,249.87 444.268,244.776 446.565,239.107C447.375,237.111 449.056,235.313 449.318,233.295C449.574,231.316 448.444,229.185 448.07,227.095C447.149,221.972 447.649,216.735 451.078,212.939C454.711,208.919 457.474,203.813 463.046,201.68C466.318,200.428 469.687,200.125 473.062,199.934C475.633,199.789 477.506,201.89 477.983,204.735C478.346,206.888 477.246,208.954 474.923,209.824C472.641,210.677 471.098,212.151 469.941,214.236C468.837,216.221 467.54,218.098 466.364,220.045C464.177,223.668 464.264,225.448 467.379,228.098C470.247,230.535 471.254,233.906 472.605,237.119C473.416,239.049 473.922,241.107 474.641,243.346C477.74,241.697 480.652,240.561 483.054,238.751C485.462,236.936 487.661,234.659 489.405,232.198C491.477,229.274 493.876,226.447 494.679,222.754C495.013,221.219 496.276,221.008 497.641,221.11C499.027,221.213 499.687,222.081 499.842,223.315C500.231,226.423 499.935,229.457 498.582,232.327C495.968,237.869 492.353,242.579 487.593,246.517C483.604,249.822 479.892,253.485 476.999,257.851C475.986,259.379 475.613,261.034 475.633,262.975C475.67,266.606 474.872,270.175 473.201,273.451C472.804,274.23 472.027,274.82 471.409,275.481C469.089,277.96 466.771,280.442 464.429,282.901C463.891,283.465 463.34,284.101 462.661,284.432C460.228,285.616 457.81,286.902 455.251,287.73C452.913,288.487 450.408,288.755 447.957,289.122C446.745,289.305 445.49,289.204 444.258,289.267C441.616,289.399 440.033,288.451 438.996,285.944C438.229,284.087 437.139,282.231 436.942,280.299C436.273,273.755 438.672,269.506 444.9,265.97C445.393,265.692 445.877,265.388 446.332,265.052C449.066,263.036 451.761,260.96 454.534,258.994C456.795,257.393 457.407,255.843 456.1,253.537C454.638,250.954 453.102,248.479 453.335,245.305C453.38,244.719 452.572,244.071 451.972,243.175C451.284,244.055 450.776,244.625 450.359,245.253C448.73,247.706 447.103,250.158 445.528,252.643C444.316,254.558 443.092,256.473 442.041,258.477C440.826,260.791 439.862,263.237 438.652,265.555C438.082,266.646 437.274,267.643 436.432,268.551C433.275,271.957 430.095,275.346 426.849,278.666C425.186,280.37 423.468,282.057 421.567,283.469C420.641,284.158 419.167,284.057 418.059,284.569C413.996,286.441 409.67,286.655 405.405,286.153C402.672,285.833 399.998,284.667 397.411,283.6C395.868,282.964 394.531,281.814 393.132,280.847C391.442,279.681 389.942,278.417 389.11,276.367C388.498,274.854 387.302,273.578 386.299,272.096C381.899,274.18 378.462,276.79 375.616,280.295C372.682,283.91 369.503,287.327 366.48,290.873C365.749,291.731 365.238,292.772 364.579,293.697C363.069,295.815 361.452,297.859 360.032,300.034C359.182,301.337 358.377,302.762 357.98,304.247C356.782,308.725 355.92,313.296 354.684,317.765C353.55,321.858 352.1,325.866 350.707,330.169" />
      <path
        d="M110.035,65.769C104.239,67.559 99.467,74.726 100.033,79.597C103.186,78.197 106.952,77.692 108.4,74.001C109.386,71.487 111.02,68.978 110.035,65.769M55.449,66.075C56.373,65.336 57.115,64.937 57.596,64.331C60.792,60.307 63.927,56.238 67.09,52.19C68.77,50.039 70.838,48.096 72.076,45.72C74.825,40.444 78.418,35.549 79.761,29.594C80.218,27.562 80.55,25.45 81.382,23.573C82.578,20.875 82.294,18.046 82.624,15.277C82.711,14.546 82.276,13.752 82.095,13.041C76.047,13.69 72.852,18.104 69.736,21.97C65.393,27.361 62.515,33.708 60.288,40.358C57.709,48.06 56.315,55.984 55.022,63.948C54.936,64.488 55.24,65.092 55.449,66.075M75.242,108.314C74.743,108.586 74.316,108.721 74.018,108.997C70.806,111.955 67.634,114.96 64.406,117.904C62.457,119.68 60.798,121.722 57.922,122.41C56.152,122.833 54.603,124.162 52.588,123.526C52.088,123.369 51.532,123.345 51.075,123.119C46.14,120.67 41.943,117.37 39.092,112.557C37.924,110.59 36.671,108.657 35.689,106.597C34.95,105.044 34.192,103.332 34.11,101.661C33.838,96.073 30.781,90.779 32.406,84.991C32.646,84.138 32.485,83.115 32.304,82.211C31.802,79.689 31.796,77.249 32.583,74.75C33.01,73.39 32.898,71.868 33.117,70.432C33.604,67.261 34.14,64.097 34.672,60.934C34.841,59.915 35.08,58.906 35.244,57.885C35.342,57.267 35.236,56.594 35.431,56.018C37.13,50.99 37.63,45.575 40.586,40.937C41.806,39.02 42.575,36.771 43.288,34.588C43.989,32.446 45.22,30.718 46.593,29C47.404,27.985 47.93,26.743 48.607,25.617C48.814,25.269 49.029,24.86 49.354,24.655C53.313,22.141 55.552,17.991 58.794,14.801C59.612,13.994 60.397,13.134 61.301,12.437C65.012,9.576 68.631,6.565 72.536,3.996C76.44,1.43 81.062,0.679 85.621,0.027C86.392,-0.084 87.308,0.162 88.031,0.508C91.07,1.958 93.172,4.457 94.962,7.198C95.444,7.933 95.566,8.974 95.635,9.892C95.719,11.04 95.472,12.212 95.554,13.36C95.927,18.47 94.898,23.221 92.695,27.881C91.056,31.348 90.168,35.162 88.782,38.759C86.716,44.121 83.134,48.543 79.507,52.887C76.841,56.081 74.537,59.639 70.8,61.844C69.96,62.339 69.497,63.451 68.816,64.242C65.047,68.626 60.86,72.567 56.239,76.041C54.891,77.053 54.549,78.511 54.686,79.981C55.206,85.559 55.657,91.159 56.567,96.679C56.917,98.81 57.638,100.872 57.755,103.105C57.886,105.596 59.4,106.131 61.305,104.474C64.136,102.009 67.582,100.221 69.62,96.852C70.01,96.206 70.939,95.807 71.698,95.479C73.756,94.589 74.622,92.944 75.059,90.863C76.758,82.746 79.865,75.195 84.821,68.537C88.424,63.7 92.719,59.468 98.51,57.289C103.947,55.243 109.435,54.828 114.356,58.674C115.623,59.663 116.807,61.139 117.312,62.631C118.17,65.177 118.376,67.746 117.461,70.593C115.8,75.773 112.733,79.867 109.159,83.737C108.16,84.82 107.236,85.968 106.255,87.066C104.193,89.371 101.817,91.127 98.804,92.142C93.69,93.864 92.677,97.543 94.32,102.404C94.819,103.88 95.679,105.239 96.414,106.631C97.246,108.206 98.81,108.912 100.353,108.775C102.395,108.596 104.38,107.807 106.4,107.328C110.871,106.268 114.076,103.278 117.437,100.412C120.194,98.062 121.94,95.241 122.973,91.84C124.59,86.516 126.189,81.182 128.005,75.926C128.646,74.073 129.973,72.47 130.859,70.69C132.637,67.118 134.119,63.384 136.092,59.929C140.547,52.12 144.886,44.196 152.238,38.541C155.305,36.183 160.797,37.333 162.393,40.807C162.522,41.086 162.653,41.437 162.601,41.719C161.95,45.092 162.424,48.608 160.986,51.898C159.083,56.248 158.181,60.899 157.665,65.597C157.289,69.019 157.122,72.464 156.973,75.906C156.93,76.892 157.277,77.897 157.55,79.526C158.795,78.566 159.56,77.943 160.358,77.368C163.229,75.289 166.125,73.245 168.984,71.151C169.884,70.491 170.688,69.699 171.554,68.988C173.245,67.603 174.971,66.258 176.646,64.852C179.069,62.825 180.003,59.905 181.21,57.146C181.665,56.107 182.202,55.102 182.74,54.103C183.86,52.019 184.957,51.64 186.975,52.591C187.913,53.032 188.831,53.533 189.804,53.882C191.945,54.653 193.685,58.368 192.972,60.563C191.371,65.499 189.134,70.078 185.352,73.709C183.253,75.722 181,77.599 178.666,79.333C175.718,81.526 172.633,83.538 169.57,85.571C168.179,86.496 166.743,87.37 165.253,88.123C162.095,89.72 160.114,92.601 157.73,95.016C157.069,95.686 156.904,97.199 157.045,98.252C157.651,102.785 157.015,107.183 154.685,110.988C151.769,115.753 147.488,118.908 141.541,118.816C137.701,118.757 134.85,116.562 132.327,113.955C131.829,113.441 131.717,112.442 131.644,111.649C131.265,107.509 133.39,104.21 135.553,101.033C138.032,97.39 140.913,94.065 144.399,91.284C145.082,90.739 145.676,89.464 145.555,88.636C145.057,85.219 144.276,81.842 143.571,78.455C143.491,78.076 143.229,77.734 142.893,77.053C142.375,77.651 141.892,78.004 141.69,78.475C138.889,85.018 135.98,91.51 132.423,97.68C129.751,102.319 126.833,106.862 122.802,110.419C115.667,116.713 107.697,121.544 97.753,121.087C94.562,120.94 91.267,120.777 88.13,118.933C84.857,117.007 81.656,115.103 78.915,112.493C77.644,111.282 76.581,109.853 75.242,108.314" />
      <path
        d="M332.174,128.99C332.464,129.306 332.752,129.62 333.042,129.936C334.139,129.505 335.508,129.35 336.288,128.593C339.342,125.627 342.49,122.683 345.049,119.31C346.803,117 347.947,114.086 348.803,111.273C349.582,108.71 348.177,107.397 345.541,108.007C343.648,108.446 341.586,109.098 340.128,110.299C334.236,115.152 333.211,122.103 332.174,128.99M216.127,168.094C219.796,163.291 224.019,159.421 224.599,153.197C224.964,149.278 227.026,145.52 225.676,141.433C227.475,136.197 226.093,130.693 227.018,125.377C227.366,123.378 227.259,121.38 225.435,119.703C222.529,120.591 219.502,121.364 216.595,122.451C213.675,123.547 210.866,124.938 208.028,126.245C207.529,126.475 207.033,126.851 206.707,127.29C202.938,132.353 199.687,137.679 198.3,143.954C197.778,146.314 197.533,148.867 196.419,150.931C194.325,154.816 195.44,158.769 195.517,162.679C195.561,164.852 197.531,166.177 199.399,165.472C204.472,163.561 209.222,163.98 213.783,166.876C214.369,167.246 215.016,167.52 216.127,168.094M413.081,129.534C416.669,127.272 419.694,125.42 422.664,123.48C427.297,120.456 430.527,116.102 433.729,111.71C436.154,108.388 438.653,105.113 441.254,101.93C443.594,99.068 445.433,98.742 448.298,100.327C452.465,102.632 453.17,104.364 452.1,108.212C449.301,118.273 443.012,125.951 434.949,132.004C430.243,135.536 424.877,138.537 418.638,138.99C418.24,139.02 417.863,139.32 417.158,139.636C416.576,143.366 417.69,147.103 418.191,150.839C418.405,152.434 418.554,153.781 417.962,155.347C416.18,160.074 414.849,164.983 412.861,169.617C411.311,173.235 408.147,175.77 404.665,177.393C400.561,179.307 396.232,180.863 391.858,182.037C387.841,183.112 383.86,182.241 379.707,181.361C375.082,180.378 372.758,177.385 370.104,174.957C370.531,172.728 371.125,170.958 371.161,169.178C371.27,164.061 374.897,161.348 378.308,158.587C379.073,157.969 380.871,158.114 381.969,158.517C384.953,159.616 387.245,159.107 389.103,156.479C389.486,155.939 390.289,155.718 390.803,155.245C393.539,152.726 395.398,149.961 394.313,145.889C393.286,142.041 392.547,138.15 390.289,134.723C389.653,133.756 389.824,132.284 389.484,131.084C389.127,129.832 388.598,128.631 387.871,126.666C385.098,130.283 382.841,133.168 380.648,136.102C377.404,140.444 374.194,144.812 370.994,149.187C370.156,150.335 369.319,151.501 368.642,152.746C366.658,156.405 364.357,159.683 361.052,162.411C357.774,165.118 355.116,168.567 352.107,171.614C351.125,172.611 349.997,173.551 348.769,174.2C344.862,176.264 340.778,178.352 336.338,178.282C330.973,178.199 325.601,177.398 320.281,176.582C318.885,176.369 317.776,174.671 316.352,174.157C313.684,173.197 310.842,172.762 309.143,170.011C308.949,169.701 306.994,170.041 306.235,170.595C303.09,172.895 300.256,175.658 296.99,177.752C293.178,180.197 289.209,182.597 284.992,184.168C277.312,187.031 270.381,184.178 265.065,178.861C261.974,175.77 258.49,171.872 258.796,166.747C259.209,159.84 259.724,152.975 262.719,146.459C264.781,141.97 265.967,137.071 267.435,132.321C267.745,131.318 267.576,130.166 267.67,128.213C260.87,133.482 254.33,137.617 246.504,139.377C244.978,146.549 240.852,152.105 236.14,157.313C235.66,157.842 235.25,158.513 234.654,158.843C230.501,161.145 227.763,164.774 225.308,168.664C218.961,178.721 209.75,184.111 198.131,186.109C190.823,187.365 184.238,185.785 178.898,181.177C175.581,178.316 172.893,174.153 171.274,170.043C169.377,165.221 168.386,159.854 168.068,154.657C167.841,150.951 169.286,147.119 170.142,143.378C171.338,138.152 173.513,133.384 177.208,129.401C177.402,129.191 177.643,128.994 177.754,128.742C180.452,122.612 185.867,118.97 190.702,114.866C194.158,111.934 197.881,109.243 201.768,106.916C204.42,105.327 207.583,104.612 210.467,103.386C212.436,102.548 214.337,101.543 216.23,100.538C218.769,99.191 221.339,98.965 224.08,99.892C225.509,100.375 227.034,100.578 228.492,100.903C230.197,97.93 231.601,95.286 233.194,92.765C234.901,90.063 239.249,88.607 242.255,89.493C243.995,90.006 244.627,91.583 244.267,92.842C242.674,98.396 244.535,103.581 245.538,108.869C245.854,110.536 246.307,112.183 246.532,113.861C247.298,119.566 247.988,125.279 248.754,131.346C249.039,131.328 250.028,131.575 250.542,131.189C253.379,129.06 256.222,126.912 258.824,124.511C261.653,121.902 264.183,118.972 266.905,116.241C271.825,111.311 275.32,105.421 278.109,99.139C279.688,95.584 281.428,92.842 286.213,94.135C286.237,93.816 286.263,93.498 286.287,93.18C285.045,92.278 283.804,91.372 282.558,90.474C280.991,89.344 278.313,88.418 278.073,87.056C277.523,83.945 278.162,80.623 278.327,77.386C278.335,77.256 278.43,77.117 278.512,77.002C281.438,73.005 283.263,68.421 285.462,64.036C285.905,63.156 286.539,62.332 287.234,61.629C289.078,59.762 290.484,59.775 292.36,61.631C296.342,65.572 297.25,70.532 296.656,75.804C296.281,79.152 295.18,82.423 294.831,85.772C294.576,88.254 292.302,88.587 291.07,90.188C291.499,91.16 291.944,92.163 292.467,93.351C291.108,93.804 289.91,94.203 288.395,94.708C288.506,96.07 288.619,97.449 288.728,98.828C289.42,107.512 289.805,116.289 288.174,124.809C286.756,132.218 285.834,139.715 284.145,147.061C283.351,150.508 281.948,153.811 281.11,157.25C280.695,158.95 279.898,161.04 281.629,162.49C283.663,164.194 285.606,162.957 287.566,161.966C291.11,160.17 294.761,158.583 298.301,156.779C301.056,155.376 301.577,154.341 301.062,151.312C300.544,148.273 300.713,145.353 301.682,142.425C302.081,141.223 302.272,139.912 302.33,138.642C302.691,130.802 305.556,123.98 310.464,117.92C311.35,116.827 311.904,115.466 312.62,114.231C313.625,112.504 314.246,110.27 315.714,109.143C321.646,104.578 326.179,98.341 333.046,94.882C335.998,93.395 338.738,91.573 342.234,91.762C342.784,91.793 343.38,91.629 343.901,91.424C349.044,89.394 352.977,91.74 356.676,94.93C360.698,98.396 361.513,102.864 361.572,107.999C361.646,114.733 359.518,120.56 355.065,125.176C351.886,128.472 348.893,132.315 344.29,134.028C341.94,134.904 340.287,136.416 339.171,138.813C337.921,141.503 336.084,143.402 332.822,144.56C329.268,145.823 326.352,148.885 323.398,150.992C323.591,151.938 323.551,152.347 323.716,152.46C329.479,156.419 335.655,158.283 342.629,156.181C346.449,155.029 350.317,154.028 354.113,152.804C355.132,152.476 356.147,151.731 356.854,150.909C361.127,145.953 365.408,140.998 369.474,135.875C371.042,133.899 372.085,131.499 373.316,129.266C376.278,123.893 379.254,118.531 382.128,113.114C383.372,110.768 384.429,108.317 385.473,105.872C386.399,103.702 387.222,101.487 388.028,99.267C388.608,97.671 388.86,95.915 389.653,94.447C390.984,91.992 392.432,89.547 394.186,87.387C397.692,83.075 401.409,78.937 406.588,76.48C409.851,74.934 413.034,75.753 416.194,76.714C417.805,77.205 418.016,78.683 418.256,80.159C419.14,85.623 417.867,90.856 417.009,96.201C416.087,101.952 413.248,106.865 411.125,112.077C409.629,115.746 409.12,119.103 410.807,122.788C411.739,124.824 412.259,127.049 413.081,129.534" />
    </symbol>
    <symbol id="logo-linenn" viewBox="0 0 500 103">
      <path
        d="M421.304,81.66C422.156,82.726 423.287,83.108 424.399,83.365C427.24,84.026 430.091,84.659 432.964,85.131C435.844,85.603 438.749,85.886 441.651,86.2C443.564,86.412 445.479,86.624 447.398,86.659C448.298,86.675 449.23,86.348 450.111,86.062C451.101,85.738 452.02,85.137 453.029,84.896C455.118,84.392 456.62,81.99 455.966,79.476C455.749,78.638 455.665,77.761 455.47,76.91C455.399,76.596 455.239,76.249 455.021,76.021C453.939,74.897 453.228,73.731 454.07,72.116C454.237,71.795 454.089,71.316 454.118,70.912C454.253,68.873 455.396,68.08 457.328,68.754C458.263,69.078 459.144,69.399 460.182,69.409C460.736,69.419 461.524,69.987 461.784,70.51C462.805,72.594 463.619,74.778 464.593,76.891C465.637,79.168 465.073,81.371 464.375,83.554C463.776,85.433 462.559,86.981 461.2,88.342C460.358,89.187 459.266,89.916 458.148,90.32C454.227,91.756 450.201,92.716 445.979,92.125C444.425,91.91 442.91,91.454 441.363,91.197C438.893,90.783 436.414,90.548 434.015,89.684C432.445,89.119 430.715,88.939 429.043,88.737C426.282,88.403 423.748,87.334 421.167,86.425C419.831,85.953 419.972,86.02 419.008,87.202C416.935,89.72 415.548,92.757 413.168,95.018C410.4,97.654 407.348,99.931 403.616,100.984C401.332,101.63 398.987,102.112 396.63,102.439C395.323,102.622 393.913,102.535 392.626,102.227C390.323,101.688 388.061,101.11 386.19,99.35C383.022,96.373 382.122,92.799 382.766,88.689C382.955,87.481 383.311,86.345 384.144,85.336C385.425,83.801 385.982,81.791 387.34,80.266C388.138,79.364 390.457,77.119 391.418,76.66C392.725,76.037 394.013,75.382 395.352,74.842C395.922,74.614 396.595,74.618 397.222,74.592C398.382,74.56 399.586,74.797 400.682,74.547C403.251,73.959 405.794,74.197 408.344,74.425C409.846,74.563 411.349,74.733 412.841,74.984C413.559,75.102 414.004,74.855 414.254,74.267C414.735,73.144 415.324,72.026 415.545,70.844C415.824,69.342 416.224,67.948 416.922,66.583C417.646,65.164 417.976,63.581 418.293,62.017C418.454,61.24 418.873,60.331 418.61,59.714C418.431,59.287 417.313,59.191 416.596,59.069C414.693,58.738 412.922,58.041 411.201,57.197C410.846,57.02 410.442,56.789 410.228,56.471C409.055,54.699 407.197,53.308 407.223,50.848C406.204,50.832 405.878,51.584 405.426,52.136C404.43,53.347 403.469,54.589 402.457,55.784C402.082,56.224 401.601,56.574 401.188,56.979C400.724,57.428 400.048,57.807 399.859,58.35C399.241,60.142 397.655,60.845 396.297,61.789C395.217,62.54 393.952,62.881 392.645,62.752C391.024,62.592 389.4,62.36 387.808,62.014C387.248,61.888 386.716,61.391 386.287,60.957C385.845,60.511 385.534,59.93 385.076,59.278C384.032,59.416 382.952,59.583 381.869,59.708C379.55,59.975 377.449,59.57 375.338,58.401C373.455,57.354 372.029,56.06 371.116,54.159C369.479,50.752 368.919,47.223 369.851,43.498C370.069,42.615 370.2,41.706 370.383,40.727C369.226,40.682 368.272,40.602 367.311,40.637C367.022,40.65 366.625,40.916 366.484,41.18C366.045,41.998 365.584,42.843 365.347,43.729C364.521,46.86 363.275,49.792 361.603,52.547C361.334,52.99 360.975,53.379 360.661,53.783C360.277,54.281 359.754,54.721 359.53,55.286C358.845,56.975 357.669,58.189 356.205,59.185C355.263,59.824 354.543,60.681 353.386,61.124C351.413,61.888 349.318,62.238 347.393,61.924C344.219,61.404 341.608,60.267 340.81,56.609C340.634,55.79 340.426,54.866 339.372,54.323C338.844,54.859 338.088,55.331 337.767,56.012C337.124,57.402 335.877,58.119 334.747,58.854C332.562,60.273 330.221,61.455 327.93,62.717C327.632,62.877 327.197,63.064 326.924,62.958C325.24,62.293 323.452,62.881 321.722,62.447C320.399,62.12 319.278,61.51 318.122,60.758C316.447,62.569 314.345,63.545 312.145,64.361C311.213,64.708 310.361,64.673 309.441,64.233C308.131,63.597 306.783,63.028 305.418,62.521C304.419,62.149 303.73,61.612 303.397,60.533C303.163,59.772 302.686,59.075 302.263,58.385C301.545,57.191 301.1,55.983 301.577,54.567C301.731,54.101 301.683,53.568 301.737,52.949C300.463,53.096 299.953,54.056 299.184,54.612C298.387,55.19 297.628,55.819 296.853,56.42C296.35,56.812 295.751,57.117 295.347,57.592C294.098,59.066 292.557,59.994 290.696,60.511C290.074,60.684 289.53,61.243 289.046,61.712C288.55,62.193 288.133,62.775 287.73,63.346C287.124,64.2 286.195,64.576 285.292,64.518C283.799,64.425 282.303,64.12 280.849,63.741C279.581,63.411 278.412,63.388 277.085,63.622C275.189,63.96 273.193,64.306 271.297,63.276C270.439,62.81 269.439,62.576 268.491,62.299C267.623,62.049 266.976,61.725 266.534,60.781C266.111,59.869 265.23,59.162 264.567,58.353C264.276,58 263.891,57.646 263.798,57.235C263.356,55.251 262.982,53.247 262.626,51.24C262.572,50.929 262.802,50.579 262.809,50.238C262.825,49.683 262.77,49.124 262.735,48.453C261.422,48.61 260.775,49.188 260.483,50.27C259.743,53.051 258.513,55.668 257.767,58.462C257.466,59.599 256.953,60.803 255.806,61.667C254.823,62.405 254.234,63.655 253.394,64.615C252.827,65.267 252.155,65.832 251.488,66.394C251.28,66.57 250.957,66.708 250.688,66.708C247.686,66.757 244.909,66.118 242.891,63.7C242.407,63.118 242.215,62.216 242.08,61.432C241.722,59.352 242.561,57.531 243.647,55.858C244.915,53.893 246.53,52.242 248.468,50.887C249.147,50.412 249.63,49.647 250.159,49.069C248.282,45.206 248.218,41.215 248.016,37.262C247.907,35.2 248.362,33.251 249.342,31.427C249.573,30.994 249.602,30.451 249.775,29.973C250.563,27.808 254.323,23.868 256.473,22.873C257.558,22.365 258.616,22.372 259.669,22.892C260.787,23.451 261.611,24.96 261.184,26.084C260.726,27.314 260.505,28.695 259.416,29.648C257.997,30.891 257.533,32.718 256.854,34.359C256.037,36.334 256.559,38.376 257.19,40.367C257.731,42.085 258.116,43.851 258.583,45.598C258.641,45.817 258.763,46.019 258.913,46.34C260.441,45.659 261.934,45.017 263.391,44.317C263.67,44.185 263.91,43.855 264.048,43.553C264.74,42.021 265.426,40.473 266.06,38.916C267.453,35.461 269.808,32.728 272.719,30.551C274.66,29.102 276.829,27.892 279.299,27.442C279.808,27.349 280.337,27.311 280.855,27.307C281.608,27.295 282.399,27.487 283.111,27.317C284.767,26.935 286.218,27.59 287.672,28.094C288.3,28.316 288.844,29.038 289.232,29.655C290.062,30.978 290.654,32.455 291.554,33.727C292.82,35.522 292.695,37.538 292.528,39.462C292.371,41.356 291.775,43.199 290.725,44.901C290.087,45.935 289.671,47.274 289.668,48.482C289.658,50.28 288.495,51.593 288.152,53.221C287.954,54.169 287.56,55.074 287.272,55.967C288.092,56.837 288.812,56.805 289.552,56.224C289.965,55.9 290.372,55.55 290.721,55.158C292.374,53.279 294.091,51.439 295.626,49.461C296.686,48.087 297.618,46.574 298.374,45.014C299.501,42.679 301.199,40.749 302.618,38.617C304.159,36.305 305.853,34.099 307.369,31.774C307.888,30.975 308.067,29.953 308.374,29.086C311.014,28.951 312.558,29.944 313.077,32.362C313.516,34.394 313.753,36.434 313.637,38.601C313.448,42.217 312.343,45.653 312.084,49.233C312.017,50.193 311.834,51.186 311.472,52.065C311.11,52.955 311.357,53.639 311.719,54.426C312.862,54.31 313.759,53.931 314.582,53.019C316.302,51.121 318.212,49.4 319.579,47.197C321.617,43.912 323.205,40.428 324.189,36.684C324.301,36.247 324.272,35.756 324.243,35.294C324.125,33.12 324.858,31.305 326.444,29.815C327.956,28.393 329.599,28.858 331.197,29.494C332.649,30.072 333.107,31.267 333.299,32.821C333.558,34.905 332.757,36.723 332.309,38.617C331.531,41.915 330.361,45.104 328.914,48.167C328.1,49.882 327.2,51.548 326.188,53.549C326.873,53.427 327.254,53.424 327.575,53.286C330.704,51.943 333.594,50.29 335.833,47.615C336.726,46.549 337.87,45.691 338.892,44.734C339.955,43.736 340.464,42.477 340.794,41.067C341.345,38.685 341.906,36.286 342.716,33.98C343.306,32.288 344.251,30.711 345.141,29.144C345.686,28.184 347.79,27.587 348.767,28.072C349.193,28.287 349.677,28.752 349.767,29.186C349.962,30.133 350.106,31.167 349.933,32.098C349.533,34.218 348.806,36.273 348.447,38.396C348.037,40.836 347.428,43.28 347.813,45.807C347.889,46.317 347.813,46.86 347.8,47.384C347.793,47.557 347.72,47.74 347.749,47.907C348.066,49.529 348.251,51.192 348.777,52.74C349.251,54.153 350.084,54.268 351.375,53.421C351.423,53.385 351.474,53.36 351.522,53.324C354.645,50.906 357.259,48.087 358.713,44.311C359.197,43.061 359.847,41.873 360.401,40.653C360.609,40.184 360.76,39.686 360.901,39.317C359.962,38.312 358.998,37.522 358.345,36.527C357.618,35.422 357.054,34.176 356.637,32.914C356.067,31.206 355.696,29.433 355.266,27.677C355.183,27.346 355.18,26.973 355.225,26.63C355.609,23.374 355.926,20.111 357.262,17.057C358.041,15.275 359.351,14.299 361.276,14.135C363.015,13.987 365.337,15.49 366.081,17.08C367.73,20.625 367.922,24.414 367.99,28.219C368.031,30.361 367.846,32.5 367.759,34.744C368.079,34.822 368.409,35.005 368.717,34.966C369.982,34.805 371.235,34.587 372.49,34.362C372.705,34.324 372.948,34.211 373.092,34.057C373.989,33.078 375.014,32.166 375.71,31.058C376.549,29.709 377.644,28.72 378.967,27.946C381.309,26.578 383.823,25.721 386.527,25.387C387.324,25.288 388.084,24.912 388.881,24.793C390.883,24.507 392.815,24.87 394.685,25.618C395.608,25.991 396.569,26.261 397.472,26.665C398.686,27.208 399.602,28.04 399.964,29.404C400.714,32.224 400.615,35.056 400.086,37.879C399.445,41.295 398.734,44.686 397.338,47.913C396.841,49.053 396.787,50.389 396.537,51.626C398.183,52.072 399.01,51.837 399.801,50.665C401.403,48.296 402.947,45.881 404.558,43.524C405.214,42.564 405.881,41.555 406.746,40.801C407.652,40.004 407.944,39.012 408.306,37.975C408.587,37.166 409.029,36.414 409.427,35.647C409.859,34.822 410.327,34.009 410.785,33.203C411.009,32.805 411.182,32.317 411.522,32.047C413.085,30.84 414.456,29.436 416.186,28.386C418.011,27.275 419.972,26.556 421.919,25.843C424.254,24.986 426.708,24.604 429.248,24.899C430.328,25.024 431.452,24.832 432.551,24.729C433.438,24.645 433.947,25.034 434.364,25.785C435.328,27.532 435.626,29.462 435.725,31.373C435.853,33.858 435.78,36.347 435.254,38.839C434.777,41.115 434.38,43.395 433.624,45.601C433.195,46.857 432.733,48.106 432.205,49.58C433.4,49.201 434.242,48.559 434.998,47.836C436.007,46.876 436.907,45.8 437.945,44.879C438.762,44.153 439.095,43.264 439.169,42.262C439.297,40.631 439.905,39.121 440.258,37.564C440.713,35.56 441.773,33.887 442.705,32.192C443.688,30.406 445.22,28.884 446.674,27.41C449.233,24.822 452.77,24.636 456.059,24.042C457.376,23.801 458.83,24.276 460.211,24.478C460.531,24.527 460.893,24.732 461.111,24.973C461.774,25.711 462.581,26.424 462.94,27.304C463.315,28.232 463.337,29.346 463.34,30.374C463.337,32.012 462.475,33.412 461.713,34.777C460.451,37.034 458.644,38.871 456.687,40.528C456.002,41.106 455.073,41.42 454.224,41.77C452.654,42.409 451.062,42.991 449.474,43.582C448.147,44.073 447.926,44.416 448.077,45.791C448.288,47.743 450.425,51.166 453.013,51.491C453.695,51.577 454.359,51.825 454.942,51.703C456.617,50.919 458.327,50.197 459.961,49.33C461.393,48.565 462.786,47.714 464.109,46.773C465.141,46.041 466.047,45.129 466.992,44.275C469.33,42.156 471.038,39.603 472.332,36.732C472.79,35.721 473.687,34.831 473.86,33.797C474.03,32.789 473.495,31.668 473.341,30.586C472.973,27.937 473.334,25.249 475.167,23.37C477.111,21.38 478.629,18.807 481.532,17.822C483.236,17.244 484.969,17.157 486.705,17.128C488.031,17.102 488.947,18.22 489.133,19.69C489.274,20.802 488.668,21.842 487.458,22.243C486.266,22.638 485.452,23.361 484.815,24.411C484.209,25.41 483.505,26.35 482.864,27.323C481.672,29.141 481.679,30.056 483.22,31.485C484.642,32.795 485.09,34.549 485.718,36.228C486.096,37.236 486.311,38.302 486.634,39.468C488.258,38.685 489.773,38.158 491.042,37.275C492.31,36.392 493.489,35.268 494.431,34.038C495.555,32.577 496.84,31.174 497.323,29.285C497.528,28.505 498.179,28.422 498.874,28.499C499.582,28.579 499.902,29.041 499.96,29.677C500.101,31.286 499.883,32.837 499.13,34.282C497.679,37.076 495.728,39.426 493.214,41.353C491.1,42.975 489.126,44.779 487.55,46.966C487.003,47.734 486.778,48.575 486.746,49.57C486.692,51.439 486.215,53.257 485.286,54.904C485.068,55.296 484.658,55.585 484.328,55.912C483.088,57.142 481.845,58.369 480.599,59.586C480.314,59.869 480.016,60.18 479.664,60.337C478.389,60.896 477.127,61.51 475.801,61.882C474.59,62.222 473.299,62.309 472.034,62.45C471.406,62.521 470.769,62.444 470.131,62.45C468.77,62.463 467.982,61.946 467.501,60.636C467.146,59.666 466.624,58.69 466.56,57.695C466.345,54.313 467.665,52.178 470.932,50.489C471.188,50.354 471.445,50.209 471.682,50.046C473.126,49.063 474.552,48.048 476.012,47.095C477.204,46.317 477.547,45.534 476.925,44.32C476.227,42.959 475.49,41.658 475.673,40.033C475.708,39.735 475.304,39.385 475.013,38.906C474.645,39.346 474.369,39.629 474.145,39.943C473.261,41.17 472.38,42.397 471.518,43.649C470.862,44.609 470.192,45.569 469.616,46.574C468.943,47.737 468.402,48.976 467.735,50.148C467.421,50.698 466.986,51.195 466.537,51.645C464.849,53.331 463.151,55.01 461.422,56.651C460.538,57.496 459.621,58.327 458.616,59.014C458.126,59.348 457.373,59.271 456.796,59.512C454.676,60.392 452.449,60.418 450.274,60.074C448.881,59.853 447.529,59.201 446.222,58.6C445.444,58.241 444.781,57.624 444.079,57.101C443.234,56.465 442.491,55.79 442.109,54.715C441.824,53.928 441.238,53.247 440.754,52.46C438.455,53.446 436.642,54.715 435.114,56.458C433.534,58.257 431.833,59.952 430.216,61.712C429.825,62.139 429.54,62.666 429.181,63.125C428.364,64.181 427.496,65.206 426.721,66.291C426.26,66.943 425.815,67.659 425.584,68.417C424.879,70.697 424.347,73.031 423.62,75.298C422.954,77.382 422.131,79.412 421.33,81.599L421.317,81.647L421.304,81.66ZM411.778,81.942C410.721,81.56 409.837,81.078 408.901,80.927C405.375,80.353 401.867,80.43 398.414,81.502C396.072,82.228 394.01,83.278 392.808,85.609C391.828,87.526 391.953,90.095 393.282,91.813C395.326,94.453 395.672,94.597 398.856,93.538C400.342,93.04 401.755,92.33 403.219,91.772C405.605,90.856 407.226,88.891 409.196,87.411C409.404,87.25 409.484,86.913 409.619,86.65C409.885,86.139 410.16,85.638 410.394,85.121C410.833,84.151 411.24,83.162 411.772,81.942L411.778,81.942L411.778,81.942ZM271.838,49.837C272.075,51.067 272.188,52.069 272.473,53.013C272.777,54.034 273.847,54.596 274.962,54.474C276.441,54.31 277.748,53.694 278.975,52.897C279.635,52.47 280.039,51.94 280.186,51.093C280.362,50.078 281.022,49.217 281.266,48.145C281.589,46.716 282.451,45.399 283.149,44.07C283.927,42.577 284.879,41.167 285.577,39.641C286.112,38.46 286.551,37.175 286.24,35.817C286.074,35.069 285.622,34.86 284.815,34.947C282.88,35.165 281.083,35.66 279.315,36.517C276.957,37.657 275.038,39.308 274.113,41.632C273.043,44.311 272.546,47.226 271.854,49.84L271.842,49.834L271.838,49.837ZM392.059,32.497C390.396,31.88 388.945,32.535 387.811,33.004C385.345,34.032 382.564,34.812 381.129,37.48C381.027,37.679 380.783,37.801 380.639,37.981C378.57,40.573 377.545,43.479 377.782,46.847C377.849,47.849 378.503,48.405 378.877,49.169C379.521,50.466 380.556,51.067 381.978,50.97C382.324,50.948 382.677,50.938 383.026,50.897C384.691,50.694 386.158,50.254 386.155,48.138C388.074,43.45 389.275,38.482 391.652,33.971C391.857,33.579 391.895,33.091 392.049,32.49L392.056,32.49L392.059,32.497ZM428.367,31.353C427.656,31.36 427.028,31.26 426.465,31.398C424.142,31.964 422.432,33.283 421.548,35.599C421.301,36.234 420.878,36.822 420.465,37.374C419.578,38.553 418.902,39.831 418.543,41.263C418.261,42.387 417.912,43.511 417.749,44.651C417.521,46.195 417.31,47.759 417.339,49.317C417.358,50.515 418.146,51.105 419.145,50.99C421.176,50.759 422.771,49.908 423.489,47.83C423.918,46.59 424.386,45.361 424.908,44.156C425.577,42.628 426.404,41.16 427.006,39.606C427.986,37.092 428.182,34.417 428.368,31.357L428.367,31.353ZM362.371,33.328C362.612,33.152 362.733,33.104 362.788,33.01C362.884,32.866 362.961,32.705 362.996,32.542C363.867,28.672 363.925,24.783 363.201,20.895C363.054,20.098 362.736,19.315 362.371,18.592C361.875,17.603 360.901,17.603 360.328,18.531C360.174,18.775 360.097,19.068 359.998,19.344C358.787,22.703 358.726,26.09 359.969,29.433C360.504,30.865 361.186,32.285 362.368,33.335L362.371,33.328ZM458.949,29.709C455.646,29.986 454.301,30.698 451.7,33.945C450.598,35.326 449.301,36.78 449.518,38.819C449.672,38.848 449.736,38.88 449.784,38.864C453.731,37.532 456.492,34.789 458.619,31.328C458.862,30.936 458.824,30.374 458.952,29.709L458.949,29.709Z" />
      <path
        d="M24.35,61.079C24.069,61.23 23.828,61.307 23.665,61.465C21.855,63.134 20.074,64.83 18.258,66.484C17.162,67.486 16.227,68.638 14.616,69.024C13.616,69.258 12.748,70.013 11.611,69.653C11.329,69.56 11.019,69.554 10.762,69.425C7.988,68.044 5.624,66.185 4.026,63.468C3.366,62.357 2.668,61.269 2.114,60.103C1.697,59.226 1.271,58.263 1.226,57.322C1.076,54.175 -0.648,51.189 0.265,47.923C0.403,47.438 0.31,46.863 0.208,46.353C-0.074,44.934 -0.081,43.559 0.365,42.143C0.605,41.379 0.541,40.521 0.666,39.709C0.941,37.924 1.239,36.135 1.54,34.356C1.64,33.781 1.768,33.21 1.861,32.635C1.918,32.288 1.861,31.909 1.966,31.581C2.921,28.746 3.2,25.699 4.865,23.078C5.551,21.999 5.983,20.728 6.387,19.498C6.778,18.287 7.469,17.317 8.248,16.351C8.706,15.783 8.997,15.082 9.379,14.447C9.497,14.251 9.619,14.023 9.795,13.904C12.021,12.491 13.28,10.147 15.103,8.349C15.567,7.896 16.003,7.414 16.512,7.013C18.601,5.404 20.632,3.702 22.832,2.254C25.023,0.809 27.621,0.382 30.187,0.016C30.619,-0.049 31.135,0.093 31.545,0.285C33.255,1.104 34.437,2.511 35.443,4.055C35.712,4.466 35.783,5.057 35.821,5.574C35.866,6.223 35.728,6.884 35.776,7.53C35.985,10.41 35.405,13.085 34.172,15.718C33.252,17.674 32.749,19.822 31.971,21.852C30.808,24.877 28.79,27.368 26.756,29.815C25.254,31.614 23.963,33.624 21.858,34.86C21.387,35.143 21.128,35.762 20.74,36.215C18.62,38.688 16.269,40.907 13.664,42.866C12.909,43.434 12.71,44.259 12.79,45.084C13.085,48.225 13.338,51.388 13.847,54.496C14.042,55.701 14.449,56.86 14.513,58.122C14.584,59.528 15.439,59.83 16.512,58.892C18.104,57.505 20.045,56.497 21.186,54.593C21.407,54.227 21.929,54.005 22.355,53.822C23.511,53.318 24.001,52.396 24.242,51.218C25.196,46.642 26.945,42.384 29.732,38.633C31.756,35.904 34.172,33.521 37.429,32.291C40.485,31.138 43.573,30.904 46.341,33.071C47.052,33.627 47.718,34.459 48.006,35.303C48.49,36.735 48.609,38.184 48.09,39.792C47.157,42.711 45.431,45.02 43.422,47.201C42.862,47.811 42.34,48.456 41.789,49.079C40.626,50.383 39.294,51.369 37.599,51.94C34.719,52.91 34.152,54.984 35.078,57.727C35.36,58.558 35.84,59.323 36.254,60.109C36.725,60.999 37.599,61.391 38.467,61.32C39.617,61.214 40.732,60.771 41.869,60.501C44.383,59.907 46.184,58.218 48.077,56.6C49.63,55.277 50.611,53.687 51.19,51.77C52.097,48.768 53,45.762 54.019,42.798C54.378,41.751 55.127,40.849 55.624,39.847C56.623,37.83 57.459,35.73 58.567,33.781C61.075,29.375 63.516,24.912 67.649,21.726C69.372,20.397 72.46,21.046 73.36,23.001C73.43,23.159 73.504,23.354 73.478,23.512C73.113,25.41 73.379,27.394 72.572,29.25C71.502,31.703 70.993,34.324 70.704,36.973C70.496,38.903 70.397,40.849 70.314,42.785C70.288,43.341 70.483,43.906 70.64,44.828C71.339,44.285 71.771,43.938 72.22,43.611C73.831,42.438 75.464,41.286 77.069,40.11C77.579,39.738 78.03,39.291 78.511,38.893C79.465,38.113 80.429,37.355 81.378,36.562C82.742,35.416 83.264,33.775 83.943,32.217C84.196,31.636 84.497,31.064 84.805,30.503C85.439,29.33 86.051,29.115 87.188,29.652C87.717,29.899 88.232,30.181 88.78,30.377C89.981,30.811 90.962,32.904 90.561,34.147C89.661,36.928 88.399,39.513 86.278,41.555C85.096,42.689 83.831,43.749 82.518,44.728C80.859,45.964 79.122,47.098 77.406,48.241C76.621,48.764 75.814,49.256 74.977,49.68C73.203,50.582 72.085,52.207 70.746,53.568C70.374,53.947 70.282,54.798 70.362,55.395C70.701,57.948 70.342,60.427 69.036,62.576C67.395,65.26 64.987,67.039 61.646,66.988C59.483,66.956 57.879,65.719 56.463,64.245C56.181,63.956 56.117,63.395 56.078,62.942C55.864,60.604 57.059,58.748 58.279,56.959C59.676,54.904 61.297,53.032 63.254,51.462C63.638,51.154 63.971,50.434 63.907,49.969C63.625,48.045 63.19,46.141 62.789,44.23C62.744,44.015 62.6,43.826 62.411,43.437C62.117,43.777 61.851,43.973 61.732,44.243C60.159,47.933 58.519,51.593 56.524,55.068C55.021,57.685 53.378,60.244 51.11,62.248C47.097,65.796 42.615,68.52 37.022,68.263C35.229,68.179 33.374,68.086 31.609,67.046C29.767,65.96 27.967,64.884 26.426,63.414C25.715,62.733 25.113,61.927 24.363,61.057L24.35,61.082L24.35,61.079ZM13.219,37.268C13.741,36.851 14.151,36.626 14.427,36.286C16.221,34.016 17.986,31.723 19.767,29.44C20.715,28.229 21.874,27.137 22.566,25.795C24.113,22.825 26.131,20.063 26.887,16.704C27.14,15.558 27.333,14.366 27.8,13.307C28.473,11.788 28.31,10.192 28.499,8.628C28.55,8.217 28.303,7.771 28.198,7.372C24.796,7.739 23.002,10.227 21.243,12.404C18.802,15.442 17.182,19.023 15.929,22.77C14.481,27.115 13.697,31.578 12.966,36.067C12.915,36.369 13.091,36.71 13.206,37.265L13.213,37.265L13.219,37.268ZM43.916,37.092C40.658,38.1 37.974,42.143 38.288,44.885C40.062,44.092 42.18,43.813 42.993,41.732C43.547,40.313 44.47,38.897 43.913,37.092L43.916,37.092Z" />
      <path
        d="M211.198,43.628C212.784,42.625 214.126,41.811 215.439,40.953C217.489,39.614 218.915,37.689 220.334,35.748C221.407,34.281 222.512,32.833 223.662,31.423C224.7,30.155 225.51,30.011 226.779,30.716C228.62,31.737 228.934,32.503 228.457,34.201C227.221,38.653 224.437,42.045 220.872,44.723C218.793,46.283 216.416,47.613 213.658,47.814C213.482,47.824 213.315,47.958 213.001,48.103C212.745,49.752 213.239,51.405 213.46,53.058C213.552,53.763 213.62,54.359 213.357,55.05C212.566,57.139 211.98,59.311 211.102,61.361C210.413,62.962 209.017,64.084 207.476,64.801C205.66,65.647 203.747,66.335 201.813,66.854C200.035,67.332 198.276,66.947 196.438,66.556C194.394,66.121 193.362,64.801 192.19,63.728C192.379,62.741 192.642,61.957 192.658,61.172C192.703,58.907 194.311,57.712 195.816,56.489C196.156,56.216 196.95,56.277 197.434,56.457C198.753,56.944 199.766,56.719 200.592,55.553C200.762,55.313 201.117,55.214 201.342,55.009C202.553,53.894 203.376,52.674 202.892,50.87C202.44,49.169 202.11,47.449 201.111,45.931C200.829,45.505 200.906,44.851 200.756,44.323C200.595,43.769 200.365,43.24 200.041,42.366C198.814,43.967 197.818,45.242 196.848,46.539C195.416,48.461 193.994,50.39 192.581,52.328C192.213,52.837 191.841,53.35 191.54,53.9C190.662,55.518 189.647,56.972 188.183,58.177C186.735,59.372 185.559,60.9 184.224,62.248C183.788,62.69 183.288,63.107 182.744,63.392C181.017,64.305 179.211,65.23 177.244,65.198C174.87,65.163 172.493,64.807 170.142,64.449C169.527,64.356 169.034,63.603 168.406,63.376C167.224,62.95 165.969,62.761 165.219,61.543C165.132,61.406 164.268,61.559 163.934,61.8C162.544,62.815 161.289,64.039 159.847,64.961C158.162,66.044 156.407,67.101 154.539,67.799C151.141,69.068 148.075,67.799 145.724,65.451C144.36,64.087 142.819,62.36 142.95,60.089C143.136,57.033 143.36,54 144.686,51.114C145.599,49.128 146.124,46.959 146.772,44.861C146.909,44.419 146.832,43.906 146.874,43.045C143.866,45.377 140.974,47.203 137.514,47.984C136.842,51.159 135.012,53.612 132.93,55.919C132.719,56.156 132.536,56.447 132.274,56.598C130.435,57.613 129.224,59.221 128.142,60.941C125.332,65.387 121.261,67.777 116.12,68.658C112.891,69.212 109.973,68.514 107.612,66.476C106.145,65.208 104.957,63.369 104.239,61.553C103.397,59.423 102.961,57.046 102.823,54.749C102.721,53.112 103.361,51.418 103.743,49.759C104.271,47.449 105.232,45.338 106.869,43.576C106.955,43.484 107.064,43.397 107.109,43.285C108.301,40.575 110.697,38.961 112.833,37.148C114.364,35.847 116.008,34.662 117.728,33.63C118.897,32.926 120.3,32.615 121.575,32.07C122.449,31.702 123.285,31.254 124.122,30.812C125.246,30.216 126.38,30.113 127.594,30.523C128.225,30.738 128.898,30.828 129.545,30.969C130.301,29.655 130.922,28.483 131.623,27.368C132.379,26.173 134.305,25.529 135.628,25.92C136.396,26.148 136.675,26.846 136.515,27.403C135.81,29.857 136.633,32.154 137.079,34.495C137.216,35.235 137.418,35.959 137.521,36.702C137.86,39.223 138.168,41.754 138.501,44.435C138.629,44.429 139.065,44.537 139.292,44.368C140.544,43.429 141.803,42.478 142.953,41.414C144.206,40.258 145.327,38.964 146.528,37.759C148.706,35.578 150.25,32.974 151.484,30.197C152.182,28.624 152.951,27.413 155.068,27.983C155.078,27.845 155.087,27.701 155.1,27.564C154.549,27.163 154.001,26.763 153.45,26.369C152.758,25.872 151.57,25.459 151.467,24.86C151.227,23.483 151.509,22.016 151.58,20.584C151.58,20.526 151.624,20.465 151.663,20.414C152.957,18.649 153.764,16.618 154.738,14.677C154.933,14.286 155.215,13.921 155.523,13.613C156.34,12.787 156.961,12.793 157.794,13.613C159.556,15.353 159.956,17.55 159.693,19.882C159.53,21.362 159.04,22.81 158.886,24.293C158.774,25.392 157.768,25.542 157.224,26.244C157.413,26.676 157.608,27.118 157.839,27.64C157.237,27.842 156.708,28.015 156.035,28.243C156.08,28.845 156.131,29.453 156.183,30.065C156.49,33.906 156.66,37.788 155.936,41.555C155.308,44.832 154.898,48.147 154.155,51.399C153.806,52.923 153.184,54.381 152.816,55.906C152.63,56.655 152.281,57.581 153.047,58.222C153.947,58.978 154.808,58.427 155.67,57.991C157.237,57.197 158.854,56.498 160.421,55.694C161.638,55.073 161.868,54.615 161.644,53.276C161.414,51.93 161.49,50.643 161.923,49.349C162.099,48.814 162.186,48.24 162.211,47.673C162.371,44.208 163.64,41.187 165.805,38.509C166.196,38.025 166.443,37.42 166.76,36.875C167.202,36.11 167.477,35.123 168.124,34.627C170.748,32.609 172.75,29.851 175.79,28.323C177.093,27.666 178.304,26.859 179.858,26.942C180.098,26.958 180.367,26.884 180.598,26.795C182.872,25.895 184.615,26.932 186.245,28.345C188.023,29.879 188.385,31.856 188.41,34.127C188.442,37.106 187.501,39.681 185.534,41.725C184.128,43.182 182.801,44.883 180.767,45.643C179.726,46.027 178.996,46.7 178.503,47.757C177.949,48.948 177.138,49.784 175.694,50.297C174.121,50.857 172.833,52.206 171.523,53.141C171.609,53.561 171.59,53.744 171.661,53.795C174.214,55.547 176.943,56.373 180.024,55.438C181.712,54.929 183.423,54.487 185.101,53.945C185.553,53.801 186.001,53.474 186.312,53.109C188.202,50.918 190.095,48.724 191.892,46.459C192.584,45.585 193.049,44.525 193.593,43.538C194.903,41.161 196.223,38.788 197.491,36.395C198.042,35.357 198.507,34.274 198.971,33.192C199.381,32.231 199.747,31.25 200.102,30.27C200.358,29.562 200.47,28.787 200.82,28.14C201.409,27.057 202.046,25.975 202.822,25.017C204.372,23.108 206.015,21.279 208.306,20.19C209.747,19.507 211.156,19.866 212.553,20.292C213.267,20.507 213.36,21.167 213.466,21.817C213.857,24.235 213.296,26.545 212.915,28.912C212.508,31.452 211.253,33.63 210.311,35.93C209.648,37.554 209.424,39.038 210.173,40.671C210.583,41.571 210.814,42.555 211.179,43.653L211.195,43.621L211.198,43.628ZM124.089,60.685C125.713,58.558 127.581,56.851 127.837,54.096C127.997,52.36 128.91,50.7 128.314,48.894C129.109,46.578 128.5,44.143 128.91,41.792C129.064,40.908 129.019,40.027 128.212,39.281C126.927,39.675 125.589,40.014 124.304,40.498C123.01,40.982 121.767,41.597 120.515,42.177C120.294,42.279 120.073,42.443 119.928,42.638C118.26,44.877 116.821,47.235 116.209,50.012C115.979,51.053 115.87,52.184 115.377,53.096C114.451,54.81 114.944,56.562 114.976,58.292C114.995,59.253 115.864,59.836 116.69,59.529C118.935,58.683 121.034,58.872 123.052,60.15C123.308,60.313 123.596,60.438 124.089,60.688L124.083,60.679L124.089,60.685ZM175.415,43.387C175.543,43.525 175.671,43.666 175.799,43.804C176.286,43.615 176.888,43.548 177.237,43.208C178.589,41.898 179.979,40.594 181.113,39.102C181.888,38.08 182.398,36.792 182.773,35.549C183.115,34.415 182.494,33.835 181.331,34.108C180.495,34.303 179.579,34.591 178.938,35.12C176.331,37.266 175.879,40.341 175.421,43.387L175.415,43.394L175.415,43.387Z" />
    </symbol>
  </defs>
</svg>
  
