<svg style="position: absolute; width: 0; height: 0; overflow: hidden;" version="1.1"
  xmlns="http://www.w3.org/2000/svg">
  <defs>
    <symbol id="visual-brush" viewBox="0 0 300 100">
      <path
        d="M78.637,97.642L78.867,94.345C82.458,94.299 79.911,98.115 83.231,97.301C84.527,92.639 88.743,97.784 89.888,95.306C89.865,95.678 91.488,95.821 91.387,97.278C91.884,94.745 93.056,96.69 94.082,96.046C94.454,95.338 93.81,95.288 93.53,94.524L95.879,93.628C96.794,94.441 97.024,95.936 96.027,96.207C102.16,97.117 131.615,99.545 138.222,98.281C137.371,96.368 135.334,97.66 134.557,94.653C136.304,92.966 137.128,95.242 137.9,93.467C138.571,97.941 141.739,94.538 143.063,99.072L143.565,96.538L144.429,98.088C152.117,95.448 146.185,96.8 153,97.398C156.94,97.007 158.816,93.49 161.009,94.786C160.683,94.759 159.814,93.209 160.834,92.561C161.009,94.786 163.552,90.965 164.048,93.214C165.051,92.933 168.292,93.218 167.193,90.175C167.745,91.692 170.637,92.317 168.913,93.637C169.888,93.724 170.835,94.17 171.538,93.499L170.283,92.653C173.58,92.211 175.373,94.566 177.52,91.811L176.302,90.602C178.27,90.409 179.92,90.184 180.693,93.191L178.67,94.12C181.934,94.041 183.907,93.844 186.629,92.239L185.659,92.156C189.126,89.154 207.269,86.666 210.464,82.901L208.993,80.565L211.743,78.597C211.416,78.569 210.414,86.184 210.143,85.425C216.033,85.204 246.664,83.393 252.103,84.97C254.297,86.262 252.494,88.676 252.471,89.048C255.143,88.175 253.625,86.57 255.892,86.768C256.513,87.191 255.763,88.602 255.418,88.938C256.412,88.657 257.336,89.467 257.409,88.377C256.168,87.531 256.692,84.63 256.168,82.749L259.088,83.002L258.959,84.832C259.607,84.887 260.61,79.825 263.479,80.809C268.32,81.604 273.576,80.96 278.44,81.383C278.367,82.482 277.346,83.131 276.321,83.774C276.974,83.829 277.967,83.549 278.569,84.34C277.392,82.4 280.611,83.048 279.691,82.229C283.259,77.756 287.871,81.843 291.016,78.809C291.292,74.785 297.756,9.702 297.756,4.92C298.731,5.007 299.701,5.095 300,5.485C299.752,4.363 297.83,3.825 296.809,4.469L296.634,7.03C294.285,7.931 296.083,5.508 293.788,5.683C293.669,3.586 295.779,3.136 297.637,2.933C295.963,2.69 294.299,1.163 293.613,3.458C292.046,2.584 293.788,0.897 291.898,-0C290.547,0.616 288.776,2.667 287.227,1.43L287.255,1.058C283.489,-1.108 281.493,4.239 278.049,2.097L278.422,1.398C277.203,0.184 274.808,1.812 272.615,0.52C273.24,0.943 273.787,2.46 272.468,2.708C269.943,1.389 268.224,2.708 266.375,1.076L264.605,3.131C255.823,2.727 221.123,5.651 212.299,5.977L212.644,5.651C199.2,6.676 171.598,6.515 157.703,9.348C155.551,7.325 152.59,7.798 150.347,7.233C151.593,8.079 151.165,9.513 150.195,9.43C143.362,9.196 149.73,10.828 142.824,11.693C134.865,13.573 104.418,11.43 97.355,9.706C93.562,12.686 88.826,10.433 85.111,12.318L85.484,11.614C81.493,12.736 58.898,9.978 54.259,11.04L54.884,11.467C50.838,13.32 51.39,10.056 48.199,9.04C48.622,12.387 45.155,14.281 43.831,14.534L43.881,13.803C41.886,14.369 37.371,17.274 34.079,17.72L34.207,15.89C31.462,17.858 26.299,17.04 24.326,17.233C19.811,16.474 12.855,13.288 6.818,15.707L2.919,10.492L2.348,11.012C2.348,11.012 -3.928,73.981 4.04,87.388L3.916,89.214L5.489,88.979C7.383,89.88 8.257,87.761 8.128,89.586L5.535,89.361C7.438,89.89 6.109,90.86 5.383,91.894C6.178,92.069 6.946,92.29 7.581,92.851C7.953,92.147 7.305,92.092 7.011,91.692C8.031,91.048 9.452,89.333 10.698,90.175C12.643,90.349 10.822,93.131 13.089,93.333C25.062,94.745 36.663,96.86 48.76,96.451C49.036,97.205 48.709,97.177 48.36,97.518C52.001,96.731 55.243,97.016 58.563,96.198C59.482,97.016 59.735,98.143 60.006,98.901C59.459,97.384 78.338,97.246 78.637,97.642" />
    </symbol>
    <symbol id="visual-gwazi" viewBox="0 0 367 400">
      <path
        d="M74.538,128.338C73.921,129.588 73.499,130.134 73.61,130.27C74.02,130.766 74.609,131.125 75.13,131.537C74.981,130.731 74.832,129.924 74.538,128.338M279.08,126.214C278.486,125.895 277.891,125.579 277.297,125.261C275.486,126.646 273.521,127.962 275.125,131.967C276.791,129.545 277.937,127.878 279.08,126.214M113.775,114.31C110.128,117.674 112.781,120.299 114.402,123.04C114.192,120.129 113.985,117.221 113.775,114.31M278.728,137.268C279.12,137.617 279.515,137.966 279.909,138.313C283.2,136.401 285.976,134.109 286.677,130.273C286.272,129.952 285.87,129.633 285.465,129.312C283.22,131.965 280.974,134.615 278.728,137.268M131.753,81.401C135.413,76.685 135.413,76.133 131.551,70.956C131.629,75.008 131.68,77.683 131.753,81.401M260.813,145.014C260.292,144.655 259.769,144.296 259.248,143.939C255.667,145.351 255.29,148.77 253.674,151.415C254.144,151.734 254.612,152.052 255.08,152.374C256.992,149.92 258.901,147.467 260.813,145.014M280.215,152.308C279.603,151.883 278.991,151.458 278.379,151.033C275.39,152.75 274.123,155.494 274.806,159.467C276.609,157.08 278.412,154.695 280.215,152.308M155.872,281.269C157.622,277.954 159.572,274.699 158.004,270.015C154.408,273.862 154.023,277.387 155.872,281.269M169.629,289.028C165.376,291.658 164.986,295.58 165.062,300.846C168.914,296.984 170.35,293.413 169.629,289.028M255.295,162.553C262.568,158.549 264.05,156.438 263.18,151.82C258.578,154.177 257.773,158.946 255.295,162.553M93.361,94.099C93.743,88.624 94.823,84.441 89.988,80.989C87.393,86.244 89.919,89.552 93.361,94.099M145.784,113.992C149.099,107.94 148.998,103.466 145.185,99.905C144.583,104.829 143.692,109.179 145.784,113.992M163.793,51.959C159.137,53.775 157.963,58.011 160.108,64.945C163.831,61.015 164.111,56.706 163.793,51.959M137.62,70.446C134.368,75.741 134.821,78.607 139.419,83.401C140.392,78.875 141.76,74.77 137.62,70.446M202.918,288.573C206.466,285.374 207.447,281.244 208.332,277.129C208.492,276.386 207.629,275.445 206.942,273.953C202.559,278.621 202.025,283.421 202.918,288.573M166.812,61.559L168.638,61.845C169.9,58.074 171.291,54.336 172.328,50.51C172.568,49.63 171.594,48.451 171.18,47.409C170.211,48.059 168.661,48.532 168.373,49.392C167.045,53.342 166.021,57.399 166.812,61.559M236.679,272.582C240.589,268.963 242.268,265.182 243.161,261.073C243.305,260.408 242.306,259.262 241.538,258.787C241.163,258.557 239.704,259.169 239.411,259.725C237.451,263.455 235.772,267.292 236.679,272.582M60.541,150.692C60.578,141.638 59.347,137.931 55.177,134.431C53.755,141.304 56.466,146.173 60.541,150.692M189.353,251.395C184.517,253.511 184.704,256.893 184.108,259.568C183.379,262.841 182.021,266.331 184.522,269.697C187.638,264.285 189.618,258.706 189.353,251.395M190.984,271.325C191.644,271.477 192.304,271.629 192.964,271.78C194.097,268.414 195.447,265.099 196.307,261.67C197.099,258.503 199.744,255.112 195.829,251.395C192.524,258.101 190.139,264.366 190.984,271.325M54.17,112.568C54.982,106.703 54.901,101.003 52.724,95.548C52.347,94.6 50.91,94.048 49.962,93.315C49.274,94.306 47.954,95.33 47.997,96.286C48.278,102.278 50.086,107.806 54.17,112.568M100.195,98.894C102.531,93.611 101.886,89.16 101.482,84.734C101.3,82.731 100.091,81.143 98.106,81.763C96.866,82.15 95.364,84.107 95.344,85.377C95.266,89.868 96.166,94.238 100.195,98.894M241.768,226.56C236.209,230.758 232.732,241.251 234.474,246.683C237.967,243.628 242.367,235.796 242.767,231.345C242.896,229.926 242.188,228.442 241.768,226.56M43.076,96.269C39.854,97.5 39.765,99.511 40.408,101.342C42.231,106.529 42.663,112.517 49.583,116.796C48.907,108.489 48.078,101.782 43.076,96.269M231.141,227.339C225.866,232.675 221.693,245.821 222.892,252.376C228.084,248.026 233.124,233.449 231.141,227.339M255.599,250.214C262.219,243.406 266.405,235.341 268.233,225.885C266.567,226.029 264.849,226.366 264.318,227.314C260.318,234.458 255.682,241.395 255.599,250.214M170.848,254.531C170.348,251.17 169.981,249.361 169.827,247.533C169.498,243.666 169.513,239.754 168.919,235.93C168.618,234.003 167.285,232.233 166.42,230.392C164.663,231.196 162.505,231.623 161.228,232.883C158.588,235.482 156.057,238.32 154.147,241.438C151.881,245.135 150.076,249.144 148.497,253.17C141.667,270.607 138.354,288.937 133.835,306.958C133.675,307.593 134.002,308.342 134.313,310.496C137.861,305.405 140.16,301.382 141.604,296.804C146.495,281.317 151.507,265.865 156.545,250.421C157.49,247.523 158.176,244.379 161.964,241.484C162.336,246.665 162.394,250.719 162.981,254.7C163.537,258.471 161.929,262.967 166.885,266.419C169.574,263.7 172.512,261.369 174.599,258.468C177.656,254.219 180.185,249.609 182.788,245.072C187.448,236.944 191.947,228.728 196.636,220.612C197.516,219.087 198.95,217.858 200.326,216.27C203.859,221.968 203.879,222.084 204.114,227.85C204.21,230.207 204.16,232.604 204.587,234.908C205.556,240.128 207.675,241.132 211.57,237.574C215.578,233.909 219.187,229.653 222.161,225.159C229.634,213.86 236.348,202.067 246.616,192.736C248.153,191.337 249.795,190.045 251.388,188.704C251.851,188.899 252.313,189.091 252.776,189.286C252.766,192.177 252.791,195.065 252.736,197.955C252.587,205.916 252.313,213.88 252.298,221.844C252.293,223.546 253.173,225.248 253.644,226.95C254.218,227.043 254.792,227.137 255.368,227.23C257.268,224.428 259.255,221.677 261.051,218.814C267.897,207.909 274.432,196.779 285.276,188.869C285.807,188.484 286.371,188.054 286.705,187.518C287.969,185.488 288.303,183.123 286.376,181.633C285.337,180.829 282.853,180.784 281.586,181.429C279.082,182.706 276.483,184.342 274.781,186.466C269.141,193.507 264.526,201.162 261.564,209.657C261.19,210.729 260.606,211.736 259.65,213.774C257.533,206.154 259.298,199.867 260.11,193.54C260.52,190.346 260.995,187.091 260.765,183.91C260.442,179.459 257.589,177.746 253.317,179.663C249.301,181.467 245.151,183.576 242.018,186.504C236.576,191.59 231.703,197.278 226.905,202.96C222.383,208.316 218.294,214.012 213.939,219.502C213.208,220.423 212.085,221.057 210.297,222.509C209.521,216.434 208.861,211.278 208.125,205.535C205.839,206.336 204.213,206.539 203.067,207.363C186.955,218.966 180.299,236.729 170.848,254.531M238.371,173.167C237.011,176.153 235.648,179.142 234.285,182.132C234.692,182.342 235.101,182.551 235.511,182.764C237.716,179.76 241.821,177.977 241.472,172.598C240.114,172.919 239.145,173.146 238.177,173.374C237.383,172.094 236.586,170.812 235.648,169.3C230.304,174.879 229.573,176.386 229.745,181.917C232.972,178.644 235.673,175.905 238.371,173.167M127.581,317.185C123.233,320.397 119.255,323.164 115.474,326.161C101.57,337.184 89.166,349.665 77.502,362.848C68.476,373.052 59.559,383.345 50.478,393.501C48.594,395.608 46.429,397.651 43.991,399.085C40.423,401.189 37.914,399.525 38.046,395.507C38.238,389.655 40.774,384.579 44.277,380.015C52.278,369.588 60.369,359.219 68.664,349.007C76.271,339.642 84.224,330.541 91.948,321.262C93.546,319.342 94.805,317.16 96.222,315.099C95.903,314.73 95.582,314.358 95.261,313.989C93.063,314.836 90.799,315.554 88.678,316.556C66.736,326.907 44.843,337.351 22.877,347.649C18.047,349.912 13.044,351.875 7.991,353.627C5.66,354.434 3.017,354.399 -0,354.816C0.46,350.881 2.837,349.571 4.881,348.016C17.672,338.297 32.323,331.724 46.738,324.722C60.735,317.921 74.859,311.298 88.412,303.734C101.434,296.468 102.071,293.489 95.918,280.192C91.282,270.172 85.893,260.479 81.318,250.436C72.444,230.951 63.934,211.311 55.227,191.754C47.473,174.343 39.882,156.862 34.983,138.447C29.993,119.682 27.765,100.679 32.717,81.54C34.272,75.531 36.761,69.626 39.677,64.088C42.61,58.514 47.418,58.241 51.307,63.205C54.102,66.771 56.327,70.822 58.338,74.874C62.288,82.83 65.818,90.978 69.726,98.954C70.914,101.382 72.771,103.502 75.244,107.1C76.334,104.217 77.249,102.814 77.353,101.36C78.043,91.686 78.41,81.993 79.197,72.33C79.667,66.538 80.408,60.729 81.609,55.039C82.358,51.499 84.055,48.11 85.585,44.762C86.791,42.129 88.556,39.729 92.003,39.817C95.473,39.903 96.922,42.544 98.07,45.121C99.388,48.069 100.468,51.129 101.451,54.202C103.879,61.797 105.963,69.507 108.679,77.003C109.582,79.497 111.689,81.793 113.772,83.621C116.21,85.761 118.537,85.106 119.21,81.965C120.426,76.282 120.998,70.473 121.84,64.718C123.061,56.397 124.118,48.052 125.59,39.772C126.182,36.444 127.692,33.262 129.161,28.89C130.757,30.819 131.978,31.732 132.408,32.919C134.176,37.789 135.643,42.764 137.342,47.66C138.189,50.098 138.991,52.629 140.354,54.799C143.515,59.827 148.265,59.541 151.117,54.227C152.137,52.326 152.759,50.214 153.426,48.155C156.631,38.267 159.612,28.306 163.041,18.491C164.602,14.017 166.807,9.713 169.106,5.53C170.95,2.179 173.661,-0.588 178.165,0.108C182.385,0.758 183.486,4.142 184.684,7.48C187.281,14.713 186.199,22.092 184.871,29.226C181.905,45.151 177.765,60.881 174.95,76.824C171.311,97.435 168.216,118.139 165.459,138.871C164.24,148.029 163.788,157.378 164.149,166.591C164.592,177.817 166.845,188.856 172.553,198.889C176.283,205.444 180.919,207.249 188.136,204.472C191.816,203.056 195.268,200.914 198.528,198.699C201.069,196.969 203.348,194.779 205.414,192.518C226.288,169.651 248.646,147.897 264.387,121.126C267.123,116.473 269.424,111.43 270.959,106.304C276.9,86.456 292.382,76.257 310.75,68.797C311.359,68.549 312.05,68.364 312.705,68.354C325.828,68.167 335.824,61.018 346.072,54.392C350.912,51.264 355.77,48.148 360.757,45.25C361.898,44.587 364.343,44.215 364.897,44.817C365.894,45.9 366.652,48.054 366.202,49.344C364.862,53.216 363.008,56.941 361.129,60.616C359.346,64.103 357.242,67.439 355.34,70.87C349.218,81.917 343.09,92.961 337.023,104.038C328.657,119.31 317.416,132.471 304.617,144.402C293.019,155.216 281.189,165.805 269.227,176.239C264.849,180.058 261.529,183.743 262.242,190.004C262.657,193.643 261.635,197.442 261.258,201.17C261.691,201.286 262.126,201.402 262.558,201.519C264.842,197.92 267.045,194.268 269.434,190.735C271.147,188.206 272.838,185.569 275.046,183.48C276.887,181.737 279.307,180.192 281.753,179.499C287.284,177.929 290.038,180.111 289.401,185.655C288.639,192.278 287.749,198.954 286.06,205.403C282.931,217.327 279.828,229.322 275.565,240.899C264.119,271.98 244.216,296.463 213.423,312.019C194.727,321.467 174.725,326.773 153.965,329.344C143.199,330.68 134.216,327.061 127.581,317.185" />
      <symbol id="visual-gwazi-eskell" viewBox="0 0 400 373">
        <path
          d="M251.828,145.156L250.713,144.194C249.055,145.211 247.617,146.39 248.108,149.062C249.347,147.759 250.589,146.459 251.828,145.156M250.739,153.342C255.549,150.156 255.679,149.977 256.291,145.896C252.259,146.543 251.811,149.694 250.739,153.342M251.635,174.807C254.483,173.151 256.684,171.421 256.415,167.672C252.233,169.318 251.589,170.28 251.635,174.807M233.703,170.116C238.697,166.889 240.315,164.639 240.586,160.598C236.262,162.785 235.017,166.517 233.703,170.116M234.913,233.867C237.423,238.157 240.283,238.896 245.084,236.935C241.984,234.275 238.66,233.417 234.913,233.867M244.65,277.174C240.791,273.035 235.936,271.426 231.941,273.292C235.835,276.389 239.847,277.35 244.65,277.174M253.463,160.737C260.222,156.297 262.654,153.235 262.212,150.078C258.642,151.794 255.011,156.046 253.463,160.737M243.576,168.175C239.39,169.928 235.569,175.196 235.739,178.576C241.476,174.867 243.105,172.796 243.576,168.175M218.989,310.643C215.647,306.198 208.674,302.561 204.841,303.292C208.608,307.728 213.108,309.632 218.989,310.643M59.687,148.386C59.271,142.889 56.541,139.215 54.589,135.269C54.375,134.839 53.315,134.397 52.951,134.576C52.295,134.896 51.486,135.662 51.446,136.289C51.385,137.199 51.784,138.25 52.281,139.065C53.841,141.63 55.499,144.14 57.214,146.606C57.607,147.17 58.381,147.47 59.687,148.386M227.886,306.131C228.056,305.715 228.224,305.302 228.394,304.889C226.008,303.182 223.721,301.307 221.184,299.866C220.338,299.387 218.862,300.016 217.672,300.138C217.941,301.325 217.828,302.873 218.547,303.636C221.121,306.371 224.48,306.547 227.886,306.131M312.443,212.859C307.761,211.354 304.182,212.386 300.67,213.411C299.988,213.607 299.026,215.141 299.228,215.595C299.624,216.479 300.84,217.7 301.562,217.608C305.285,217.123 308.985,216.323 312.443,212.859M248.602,259.081C245.459,255.583 241.733,256.718 238.411,256.602C237.591,256.574 236.727,257.868 235.884,258.555C236.713,259.448 237.441,260.981 238.382,261.123C241.695,261.628 245.087,261.701 248.602,259.081M80.01,221.048C80.331,220.676 80.654,220.303 80.975,219.93C78.029,216.568 75.157,213.134 72.064,209.913C71.535,209.361 70.065,209.711 69.028,209.644C69.155,210.569 68.95,211.779 69.464,212.363C72.506,215.834 75.683,219.197 80.01,221.048M333.179,232.316C328.194,230.73 324.26,231.1 320.432,232.117C319.566,232.348 319.101,234.095 318.451,235.147C319.526,235.753 320.69,236.995 321.651,236.854C325.401,236.296 329.179,235.531 333.179,232.316M98.725,116.159L99.926,115.743C98.057,110.965 96.284,106.15 94.25,101.445C93.826,100.454 92.251,99.082 91.552,99.258C89.479,99.781 90.201,101.693 90.674,103.037C92.419,107.982 94.958,112.465 98.725,116.159M123.49,179.367C123.236,174.659 120.96,171.023 118.724,167.415C118.421,166.924 117.023,166.58 116.535,166.863C115.81,167.282 115.128,168.27 114.987,169.11C114.38,172.692 118.542,177.877 123.49,179.367M134.623,88.47C134.961,78.848 132.352,70.616 128.594,68.843C127.035,70.92 127.991,73.031 128.753,74.94C130.466,79.236 130.746,84.23 134.623,88.47M258.174,228.396C253.122,227.076 248.42,228.191 243.775,229.396C243.05,229.584 242.126,231.221 242.285,231.981C242.449,232.77 243.839,233.893 244.653,233.861C249.728,233.668 254.153,231.617 258.174,228.396M117.63,190.976C118.008,190.676 118.384,190.375 118.759,190.078C118.479,189.37 118.346,188.541 117.89,187.978C115.044,184.46 112.136,180.994 109.218,177.536C108.797,177.034 108.271,176.433 107.693,176.297C106.986,176.132 106.056,176.216 105.449,176.577C105.102,176.782 104.961,177.851 105.166,178.356C105.599,179.425 106.131,180.581 106.951,181.349C110.446,184.627 114.059,187.779 117.63,190.976M154.695,167.556C155.024,167.366 155.353,167.178 155.682,166.99C152.17,161.176 148.698,155.335 145.111,149.567C144.397,148.42 143.245,147.536 141.312,149.085C144.1,156.393 148.562,162.557 154.695,167.556M31.77,189.98C32.154,189.754 32.538,189.529 32.922,189.304C32.396,187.877 32.041,186.358 31.313,185.043C29.213,181.257 26.972,177.551 24.765,173.827C24.257,172.967 23.812,171.987 23.078,171.372C22.544,170.924 21.449,170.659 20.851,170.907C20.294,171.141 19.702,172.198 19.768,172.825C19.881,173.923 20.294,175.104 20.923,176.014C23.295,179.434 25.765,182.787 28.283,186.1C29.335,187.478 30.603,188.691 31.77,189.98M167.095,159.148C165.954,152.767 164.276,147.456 161.858,142.389C161.578,141.797 160.05,141.349 159.305,141.56C158.554,141.771 157.716,142.808 157.528,143.623C157.283,144.697 157.288,146.089 157.785,147.034C159.637,150.566 161.667,154.015 163.799,157.389C164.224,158.068 165.393,158.276 167.095,159.148M90.894,216.265C91.255,215.944 91.619,215.627 91.98,215.306C91.001,213.853 90.05,212.38 89.034,210.953C86.902,207.966 84.629,205.072 82.63,201.996C81.685,200.543 80.802,199.5 79.077,200.433C77.252,201.424 77.185,203.108 77.994,204.772C80.732,210.407 85.117,214.162 90.894,216.265M314.309,290.068C320.88,290.603 337.298,285.447 339.881,282.529C339.638,282.33 339.398,281.969 339.147,281.96C331.134,281.724 323.642,283.922 316.389,287.047C315.617,287.379 315.251,288.65 314.309,290.068M349.005,317.552C348.861,317.197 348.719,316.839 348.575,316.481C346.588,316.481 344.554,316.206 342.619,316.53C335.516,317.72 328.442,319.086 321.368,320.449C320.409,320.634 319.277,320.949 318.662,321.61C317.966,322.356 317.388,323.595 317.48,324.551C317.544,325.21 318.754,326.067 319.589,326.267C320.675,326.53 321.955,326.434 323.055,326.14C329.046,324.534 335.045,322.939 340.961,321.082C343.74,320.207 346.331,318.748 349.005,317.552M221.47,186.199C219.879,189.029 218.29,191.857 216.355,195.303C222.273,192.412 224.648,189.061 223.928,184.942C223.007,185.442 222.172,185.893 221.34,186.34C221.86,184.723 221.753,183.091 219.937,182.683C219.18,182.516 217.834,183.553 217.242,184.385C215.89,186.285 214.708,188.336 213.732,190.453C213.374,191.228 213.793,192.36 213.937,194.46C217.008,191.092 219.238,188.648 221.47,186.199M226.311,212.787C230.482,212.787 233.521,213.114 236.467,212.732C251.768,210.751 267.091,208.859 281.923,204.324C296.53,199.855 311.123,195.349 325.788,191.086C331.897,189.31 338.168,188.076 344.387,186.69C345.51,186.438 346.738,186.6 347.911,186.655C350.718,186.785 352.561,188.258 353.757,190.768C355.028,193.431 354.41,195.838 352.506,197.715C349.514,200.661 346.313,203.408 343.072,206.083C339.834,208.758 336.414,211.21 333.124,213.821C332.021,214.696 331.068,215.756 330.045,216.733C330.193,217.071 330.343,217.412 330.49,217.75C334.574,217.339 338.65,216.828 342.743,216.548C347.431,216.227 352.151,215.814 356.827,216.037C359.002,216.141 361.414,217.253 363.182,218.61C366.677,221.294 367.321,225.115 365.033,228.905C363.485,231.47 361.654,234.015 359.436,235.993C352.931,241.805 345.967,247.021 338.433,251.498C335.643,253.156 333.361,255.667 330.502,258.076C334.219,260.701 337.83,260.083 341.126,259.774C348.63,259.069 356.065,257.559 363.578,256.972C368.043,256.623 372.61,257.267 377.104,257.717C381.766,258.18 383.861,261.77 385.475,265.531C386.645,268.257 384.773,270.285 383.237,272.322C378.396,278.737 372.128,283.589 365.487,287.853C359.568,291.654 353.194,294.739 347.047,298.185C345.655,298.968 344.375,299.95 342.997,300.868C344.164,304.049 346.42,304.745 348.792,304.802C351.634,304.872 354.493,304.612 357.333,304.355C366.836,303.491 376.235,300.738 385.871,302.411C388.956,302.948 392.075,303.956 394.874,305.357C400.29,308.069 401.443,313.338 398.196,318.52C395.819,322.312 392.598,325.192 388.797,327.474C378.578,333.606 368.139,339.297 356.804,343.141C347.922,346.154 338.737,347.942 329.566,349.764C318.702,351.922 307.839,354.065 296.952,356.099C293.171,356.804 289.341,357.396 285.505,357.63C273.605,358.355 261.73,359.048 249.757,358.257C237.617,357.454 225.771,355.281 214.402,351.359C204.616,347.982 195.127,343.546 185.899,338.817C173.649,332.546 161.667,325.727 149.793,318.765C144.16,315.464 138.952,311.403 133.713,307.474C128.9,303.869 126.656,304.017 121.702,307.662C102.02,322.145 85.588,339.935 69.623,358.231C66.859,361.402 64.02,364.53 60.964,367.41C59.074,369.189 56.709,370.46 54.129,372.26C51.94,368.213 52.211,364.692 53.962,361.651C56.804,356.711 59.825,351.775 63.459,347.407C74.441,334.207 85.77,321.293 96.928,308.237C98.961,305.854 100.833,303.332 102.777,300.874C102.56,300.539 102.344,300.204 102.127,299.872C100.478,300.357 98.751,300.675 97.185,301.362C89.484,304.745 81.844,308.266 74.149,311.668C60.917,317.52 47.697,323.398 34.395,329.097C30.793,330.64 27.035,332.049 22.867,332.223C22.356,328.918 24.58,327.962 26.235,326.726C34.655,320.441 44.054,315.897 53.569,311.585C65.366,306.238 77.223,301.024 88.996,295.629C91.812,294.337 94.401,292.547 97.719,290.62C95.995,289.251 95.082,288.315 93.99,287.691C80.464,279.964 68.84,269.823 57.919,258.873C52.63,253.567 47.887,247.709 42.977,242.033C39.909,238.492 37.041,234.78 34,231.216C20.981,215.95 11.241,198.798 4.734,179.847C1.091,169.246 -0.226,158.258 0.031,147.04C0.152,141.638 5.034,137.652 10.406,139.662C16.357,141.892 20.75,145.774 24.713,150.376C29.101,155.471 33.28,160.745 37.656,165.846C38.679,167.039 40.138,167.86 41.94,169.281C42.264,167.718 42.659,166.938 42.532,166.257C39.933,152.56 36.596,139.056 32.659,125.665C29.852,116.116 28.381,106.254 30.66,96.257C30.88,95.287 31.143,94.302 31.567,93.406C33.904,88.499 38.552,87.618 41.949,91.772C45.981,96.702 49.693,101.91 53.329,107.144C58.901,115.157 64.383,123.227 71.249,130.223C72.679,131.682 74.36,132.895 76.905,135.052C77.119,132.308 77.483,130.873 77.295,129.515C76.168,121.361 74.892,113.227 73.707,105.082C71.891,92.603 70.091,80.082 71.244,67.453C71.697,62.494 73.427,57.644 74.669,52.768C74.912,51.821 75.536,50.946 76.102,50.117C77.939,47.439 79.935,44.606 83.606,45.016C87.298,45.426 89.328,48.297 90.695,51.492C94.6,60.64 96.856,70.275 99.011,79.946C100.723,87.627 103.86,94.628 109.412,100.373C109.995,100.977 110.585,101.592 111.246,102.104C115.172,105.113 118.317,104.351 119.652,99.596C121.006,94.77 122.277,89.787 122.563,84.816C123.245,72.904 123.415,60.96 123.623,49.028C123.817,38.072 124.259,27.145 127.583,16.613C128.782,12.815 130.428,9.051 132.505,5.66C136.315,-0.562 145.223,-3.031 150.529,5.472C154.877,12.434 156.751,20.082 157.208,27.956C158.016,41.867 158.002,55.824 158.493,69.756C159.143,88.239 160.965,106.584 165.601,124.561C168.244,134.807 170.622,145.125 173.458,155.312C176.583,166.531 181.182,177.166 187.981,186.687C190.763,190.583 194.105,194.081 197.461,198.082C199.134,196.424 200.341,195.289 201.476,194.087C206.219,189.076 210.751,183.847 215.705,179.055C227.412,167.721 236.727,154.515 245.679,141.052C248.059,137.473 249.604,133.212 250.887,129.065C253.446,120.769 258.509,114.507 265.551,109.761C269.861,106.855 274.283,104.068 278.882,101.659C281.193,100.446 284,99.66 286.597,99.622C292.192,99.542 297.226,97.846 301.946,95.18C308.827,91.292 315.537,87.095 322.35,83.083C324.06,82.075 325.895,81.275 327.633,80.4C330.43,82.462 329.641,84.741 328.595,86.858C326.663,90.781 324.725,94.724 322.469,98.461C316.21,108.837 309.687,119.027 304.089,129.816C297.342,142.82 287.397,153.426 276.626,163.212C269.283,169.882 261.892,176.517 254.217,182.793C245.555,189.873 238.169,198.099 231.199,206.762C229.853,208.434 228.495,210.098 226.311,212.787" />
      </symbol>
    </symbol>
    <symbol id="visual-wagenn" viewBox="0 0 206 400">
      <path
        d="M0.901,399.635C0.344,400.482 0.092,399.564 0,399.742L0,0L205.869,0C205.289,0.475 204.76,0.892 203.958,1.15C202.333,1.675 200.789,2.544 199.34,3.477C198.751,3.857 198.507,4.763 198.059,5.506C197.588,5.288 197.054,5.044 196.388,4.736C196.157,5.936 195.351,6.606 194.373,7.176C193.499,7.683 193.703,9.463 192.091,9.146C191.77,10.545 190.303,10.183 189.493,10.825C189.465,10.395 189.551,9.87 188.899,9.875C188.768,9.875 188.51,10.187 188.528,10.323C188.619,10.979 189.139,10.776 189.551,10.767C188.936,11.242 188.329,11.735 187.695,12.197C186.975,12.718 186.541,13.393 186.414,14.28C186.296,15.104 185.857,15.48 184.933,15.054C184.807,15.684 184.698,16.204 184.598,16.693C183.317,16.693 182.135,16.666 180.958,16.702C180.329,16.725 179.908,17.055 179.908,17.87L181.329,17.87C181.239,18.056 181.212,18.255 181.108,18.31C180.813,18.454 180.492,18.554 180.175,18.645C178.907,18.993 178.821,19.143 179.143,20.56C178.563,20.936 177.965,21.325 177.372,21.714C177.354,21.452 177.332,21.194 177.313,20.908C175.394,21.474 175.271,21.601 175.674,22.52C176.258,22.235 176.838,21.95 177.422,21.664C176.39,22.882 175.009,23.847 174.606,25.64C174.14,25.667 173.596,25.843 173.171,25.689C172.6,25.486 172.338,25.558 172.152,26.21C172.51,26.495 172.881,26.79 173.474,27.261C171.677,27.645 171.038,28.786 170.889,30.289C170.391,30.357 169.961,30.412 169.562,30.466C169.508,30.647 169.417,30.774 169.454,30.842C170.096,32.15 169.924,32.522 168.562,32.82C168.313,32.875 167.878,33.133 167.892,33.174C168.258,34.224 167.163,34.265 166.8,34.794C166.642,35.025 166.298,35.27 166.325,35.469C166.474,36.583 165.569,36.71 164.899,36.972C164.844,37.303 164.758,37.525 164.777,37.742C164.894,39.096 164.084,39.63 163.07,40.413C161.643,41.509 159.534,41.962 158.963,44.044C157.406,45.04 157.351,46.865 156.568,48.382C156.79,48.771 157.03,49.201 157.274,49.631C155.282,50.786 154.617,51.958 155.133,53.439C154.87,53.57 154.417,53.652 154.363,53.851C153.942,55.35 152.362,56.183 152.154,57.804C152.117,58.084 151.76,58.324 151.538,58.578C150.99,59.207 150.379,59.796 149.903,60.475C149.437,61.145 149.107,61.91 148.699,62.671C148.998,62.942 149.238,63.16 149.519,63.409C148.649,64.151 148.699,65.229 148.418,66.216C148.16,67.117 147.495,67.9 146.952,68.828C147.459,69.095 147.78,69.263 148.129,69.448C146.58,70.091 146.549,70.852 147.848,71.595C147.264,72.704 146.431,73.7 146.25,74.805C146.082,75.823 145.29,77.191 147.006,78.205C146.309,78.562 145.747,78.848 145.281,79.083C144.941,80.011 144.62,80.881 144.262,81.859C144.402,82.067 144.611,82.379 144.76,82.601C144.212,83.561 143.719,84.426 143.216,85.304C143.384,85.689 143.696,86.074 143.687,86.454C143.665,87.604 143.506,88.75 143.425,89.9C143.388,90.42 143.42,90.81 142.682,90.977C142.084,91.113 142.198,91.701 143.04,92.548C142.533,92.987 141.971,93.417 142.125,94.251C142.229,94.812 142.107,95.319 141.455,95.645C140.984,95.88 140.998,97.375 141.328,97.859C141.505,98.117 141.754,98.457 141.713,98.715C141.523,99.924 141.247,101.119 140.993,102.314C140.934,102.586 140.826,102.844 140.771,103.116C140.595,104.026 140.432,104.94 140.242,105.95C140.504,105.981 140.862,106.027 141.269,106.081L141.269,107.946C140.165,108.313 140.214,108.309 140.341,109.536C140.377,109.907 140.074,110.31 139.902,110.758C140.097,110.876 140.278,110.998 140.473,111.102C140.663,111.206 140.866,111.297 141.07,111.396C139.884,112.492 139.807,113.837 140.835,116.11C140.074,116.766 139.531,117.595 139.486,118.677C139.472,119.012 139.304,119.392 139.409,119.673C140.124,121.52 139.359,123.585 140.427,125.314C139.028,126.002 139.11,126.007 139.078,127.388C139.055,128.298 138.761,129.208 138.453,130.095C138.693,130.842 139.477,131.58 138.381,132.418C138.191,132.563 138.218,133.174 138.336,133.5C138.48,133.88 138.508,134.061 138.141,134.32C137.964,134.446 137.946,134.831 137.91,135.107C137.878,135.356 138.037,135.691 137.919,135.85C137.204,136.832 136.552,137.91 135.651,138.702C134.677,139.558 134.732,140.699 134.532,141.713C134.111,143.864 133.808,144.176 131.716,143.651C130.824,144.52 132.912,144.76 131.952,145.706C130.476,145.616 130.127,147.006 130.113,148.07C130.1,149.306 129.353,150.112 128.683,150.492C127.791,150.999 127.343,151.796 126.627,152.366C126.256,152.661 126.002,153.385 125.278,153.009C125.219,152.978 125.061,153.077 124.993,153.154C124.096,154.159 122.815,154.589 121.751,155.346C121.733,155.083 121.719,154.816 121.697,154.513C121.008,154.567 120.479,154.63 120.488,155.572C120.977,155.468 121.389,155.382 121.796,155.296C121.357,156.016 120.922,156.627 119.922,156.754C119.324,156.831 118.795,157.433 118.224,157.79C117.658,158.144 117.088,158.479 116.517,158.818C116.68,158.461 116.839,158.107 116.997,157.75C117.205,157.551 117.414,157.356 117.622,157.157C117.509,157.093 117.395,157.03 117.282,156.966C117.201,157.243 117.124,157.519 117.042,157.795C116.775,157.922 116.508,158.044 116.241,158.171C116.35,158.379 116.454,158.583 116.562,158.791C116.01,159.348 115.462,159.905 114.702,160.67C114.127,160.484 113.266,160.208 112.184,159.86C111.831,160.122 111.283,160.53 110.735,160.937C110.781,161.032 110.826,161.127 110.876,161.218C111.211,161.191 111.541,161.164 111.917,161.132C111.822,161.322 111.799,161.453 111.722,161.508C111.089,161.947 110.473,162.422 109.798,162.784C108.82,163.314 107.783,163.731 106.801,164.242C105.773,164.781 104.546,165.08 104.161,166.397C103.627,166.397 103.179,166.37 102.731,166.406C102.459,166.429 102.02,166.465 101.947,166.624C101.458,167.751 100.227,167.597 99.417,168.163C99.145,168.353 98.706,168.299 98.339,168.344C98.072,168.376 97.75,168.299 97.538,168.417C96.741,168.856 95.98,169.358 95.17,169.856C95.093,169.549 95.029,169.291 94.939,168.924C93.517,169.281 93.264,171.989 91.095,170.635C91.068,171.165 91.054,171.477 91.04,171.749C90.429,171.749 89.814,171.844 89.243,171.722C88.668,171.6 88.36,171.722 87.939,172.138C87.255,172.813 86.549,173.397 85.408,173.469C84.476,173.533 83.584,174.221 82.683,174.642C81.85,175.027 81.012,175.905 80.229,173.999C80.174,174.198 80.12,174.402 80.066,174.601C80.115,175.05 80.161,175.493 80.206,175.887C79.305,176.594 78.445,177.295 77.548,177.952C77.345,178.101 77.032,178.178 76.779,178.16C75.556,178.083 74.551,178.835 73.188,178.889C73.46,179.428 73.646,179.795 73.867,180.238C72.994,180.641 72.142,181.035 71.228,181.456C71.047,182.728 70.576,183.027 68.91,182.855C67.977,183.186 69.059,184.087 68.271,184.702C67.701,185.151 67.171,185.508 66.356,185.567C66.487,186.011 66.592,186.26 66.637,186.522C66.755,187.156 66.347,187.686 65.845,187.496C64.98,187.165 64.55,187.781 64.088,188.112C62.902,188.958 61.349,189.266 60.629,190.86C60.294,191.602 59.18,191.974 58.469,192.571C57.976,192.988 57.559,193.504 57.124,193.984C56.21,194.994 55.427,196.171 53.856,196.442C53.797,196.877 53.738,197.307 53.683,197.683C53.131,198.104 52.615,198.498 52.094,198.896C51.986,198.747 51.859,198.579 51.687,198.344C50.872,198.847 51.628,199.575 51.379,200.128C50.532,200.019 49.907,200.413 49.482,201.165C49.093,201.857 48.635,202.057 47.834,201.708C47.069,201.373 46.725,201.708 46.77,202.564C46.783,202.781 46.978,203.084 46.897,203.198C45.724,204.723 45.633,206.847 44.144,208.182C43.818,208.477 43.424,208.689 43.071,208.952C42.632,209.283 42.116,209.559 41.79,209.98C40.852,211.198 40.884,211.22 39.535,211.696C39.743,211.99 39.924,212.253 40.11,212.515C38.063,212.42 38.027,212.438 37.398,214.213C37.765,214.132 38.045,214.068 38.321,214.005C38.34,214.082 38.421,214.227 38.385,214.272C37.479,215.336 37.022,216.509 36.968,217.957C36.913,219.42 35.985,220.475 34.545,221.113C34.6,221.367 34.672,221.675 34.717,221.887C32.798,223.232 32.064,225.011 32.427,227.298C32.01,227.425 31.657,227.533 31.29,227.646C31.349,227.968 31.394,228.235 31.444,228.502C30.231,228.864 29.574,229.616 29.628,230.938C29.687,232.369 29.651,233.804 29.714,235.235C29.76,236.276 29.434,236.706 28.044,237.132C28.071,237.281 28.053,237.471 28.139,237.589C28.42,237.974 29.031,238.386 28.972,238.689C28.859,239.296 28.492,239.939 28.044,240.383C27.487,240.935 26.663,241.265 27.251,242.375C27.863,242.239 28.483,242.103 29.099,241.972C28.986,242.75 28.845,243.425 28.8,244.104C28.75,244.865 28.374,245.558 27.713,245.607C26.98,245.662 26.735,246.019 26.83,246.508C26.989,247.305 26.323,247.522 25.884,248.066C26.269,248.378 26.609,248.632 26.921,248.922C27.555,249.51 27.482,249.922 26.686,250.284C26.391,250.416 26.079,250.511 25.658,250.669C25.884,251.086 26.052,251.398 26.269,251.806C26.821,251.461 27.274,251.176 28.094,250.66C27.79,251.33 27.659,251.905 27.505,251.91C26.178,251.969 25.929,252.978 25.572,253.925C25.472,254.187 25.332,254.427 25.232,254.626C25.431,255.858 26.255,256.012 27.301,255.817C27.175,256.51 27.075,257.058 26.962,257.678C26.527,257.777 26.111,257.877 25.622,257.99C25.45,259.131 24.06,260.326 25.938,261.44C25.327,261.852 24.254,262.015 24.97,263.256C25.431,263.066 25.907,262.871 26.4,262.672C26.781,262.971 26.907,263.229 26.409,263.577C24.698,264.773 24.245,266.398 25.173,268.137C25.354,268.472 25.785,268.675 26.151,268.979C26.052,269.536 25.97,270.246 25.06,270.237C24.983,271.433 24.906,272.574 24.829,273.755C24.929,273.841 25.042,273.986 25.187,274.05C25.889,274.353 26.504,274.606 25.871,275.584C25.64,275.942 25.241,277.667 25.105,278.043C24.961,278.432 24.979,278.885 24.911,279.392L26.581,279.392L26.581,278.324C26.821,278.536 27.034,278.659 27.016,278.722C26.921,279.071 26.839,279.455 26.622,279.723C26.283,280.139 25.834,280.47 25.35,280.913C25.626,281.615 25.979,282.312 26.16,283.05C26.26,283.449 26.749,283.974 26.092,284.409C26.061,284.431 26.396,285.011 26.654,285.509C26.224,285.608 25.785,285.713 25.205,285.853C25.395,286.161 25.726,286.451 25.717,286.727C25.703,287.039 25.382,287.333 25.006,287.949C25.789,287.714 26.224,287.582 26.731,287.429C26.83,287.818 26.921,288.185 27.034,288.642C26.595,288.728 26.237,288.796 25.929,288.855C25.64,289.652 26.21,289.751 26.921,289.86C26.418,290.145 26.151,290.295 25.771,290.503C26.115,290.915 26.409,291.268 26.803,291.739C26.341,292.01 25.943,292.246 25.689,292.4C25.73,293.228 25.762,293.984 25.812,294.999C25.997,295.153 26.423,295.501 26.935,295.927C26.473,296.561 26.056,297.136 25.522,297.869C25.957,298.263 26.391,298.657 26.93,299.146C26.763,299.236 26.613,299.35 26.45,299.399C26.251,299.458 26.038,299.463 25.612,299.522C25.825,300.07 25.893,300.749 26.178,300.857C26.713,301.066 27.152,301.265 27.134,301.849C27.111,302.505 27.156,303.361 26.781,303.769C26.147,304.457 26.092,305.082 26.206,305.91C26.269,306.363 26.043,306.856 25.97,307.228C26.427,307.612 26.839,307.966 27.211,308.278C26.6,308.817 26.101,309.256 25.359,309.912C26.998,310.288 25.748,312.199 27.645,312.489C27.025,313.222 26.545,313.788 26.065,314.354C25.957,314.268 25.843,314.177 25.735,314.091C25.934,314.612 26.138,315.133 26.387,315.776C25.635,316.4 25.373,317.292 25.44,318.361C25.504,319.362 25.78,320.199 27.07,321.014C26.446,321.376 26.02,321.621 25.477,321.933C26.486,322.726 26.025,323.432 25.377,324.125C25.757,324.437 26.052,324.681 26.35,324.926C26.065,325.066 25.622,325.148 25.508,325.383C25.359,325.696 25.472,326.13 25.472,326.574L27.116,326.574C26.858,327.267 26.346,327.987 26.387,328.67C26.473,330.056 25.898,331.174 25.418,332.365C25.277,332.718 25.318,333.225 25.459,333.592C25.635,334.04 26.002,334.416 26.35,334.905C26.02,335.009 25.73,335.099 25.382,335.204C25.255,336.494 25.246,337.721 26.532,338.577C26.971,338.871 27.061,339.315 26.301,339.636C26.219,339.265 26.151,338.934 26.083,338.626C25.409,338.536 25.296,339.31 25.748,340.347C25.789,340.442 25.798,340.56 25.843,340.768C24.259,341.37 24.942,342.765 24.82,343.992C25.187,343.969 25.545,343.951 26.025,343.919C25.459,345.522 24.933,346.998 24.367,348.596C24.743,348.859 25.133,349.13 25.522,349.407C25.344,350.031 24.867,350.474 24.091,350.733C24.309,351.738 24.53,352.757 24.775,353.893C23.924,354.464 23.489,355.089 24.055,356.352C24.345,357.004 23.448,358.095 23.394,359.005C23.303,360.522 22.126,361.88 22.787,363.501C22.896,363.768 22.81,364.257 22.624,364.474C22.067,365.117 22.131,365.914 21.941,366.643C21.737,367.417 21.565,368.201 21.375,368.975C21.348,369.083 21.329,369.251 21.257,369.287C19.998,369.876 20.469,371.288 19.867,372.185C20.478,373.443 19.355,374.191 18.948,375.128C18.531,376.083 17.952,376.966 17.422,377.867C16.177,379.981 14.923,382.087 13.664,384.192C12.686,385.826 11.708,387.461 10.708,389.082C10.531,389.367 10.287,389.616 10.038,389.842C8.534,391.196 7.421,392.74 6.551,394.646C5.913,396.045 4.768,397.557 3.015,398.055C2.074,398.322 1.408,398.866 0.901,399.635ZM133.038,35.65C133.156,35.646 133.278,35.641 133.396,35.637L133.396,34.432C133.31,34.432 133.228,34.432 133.142,34.428C133.106,34.835 133.07,35.243 133.038,35.65L133.038,35.65ZM57.5,191.956C58.231,191.826 58.575,191.369 58.533,190.584C58.139,191.104 57.876,191.453 57.5,191.956ZM191.064,8.028C190.815,8.634 190.683,8.96 190.475,9.472C191.358,9.273 191.571,8.983 191.064,8.028ZM195.152,4.903C194.976,5.18 194.79,5.343 194.808,5.469C194.835,5.641 195.021,5.791 195.139,5.949C195.279,5.814 195.519,5.691 195.537,5.542C195.555,5.392 195.351,5.216 195.148,4.899L195.152,4.903ZM136.013,25.196C135.202,26.133 135.171,26.319 135.701,26.323C135.8,25.966 135.904,25.581 136.013,25.196ZM131.63,73.175C131.73,73.265 131.766,73.32 131.807,73.324C131.852,73.333 131.943,73.302 131.952,73.274C132.029,72.985 132.097,72.686 132.165,72.392C132.056,72.373 131.943,72.36 131.834,72.342C131.762,72.631 131.694,72.921 131.63,73.17L131.63,73.175ZM202.772,0.851C202.55,0.616 202.46,0.439 202.36,0.435C202.215,0.426 202.034,0.516 201.934,0.625C201.889,0.679 201.993,0.983 202.039,0.983C202.229,0.987 202.419,0.924 202.767,0.856L202.772,0.851ZM132.527,56.636L132.364,56.636L132.364,57.808L132.527,57.808L132.527,56.636ZM87.011,171.803C86.862,171.686 86.73,171.518 86.662,171.541C86.536,171.582 86.409,171.726 86.364,171.853C86.345,171.912 86.545,172.134 86.604,172.12C86.735,172.084 86.839,171.948 87.016,171.803L87.011,171.803ZM132.703,38.874C132.563,38.883 132.423,38.887 132.278,38.897C132.318,39.191 132.359,39.481 132.404,39.775C132.49,39.77 132.572,39.761 132.658,39.757L132.703,38.878L132.703,38.874ZM133.699,32.205C133.926,32.078 134.093,32.001 134.089,31.987C134.034,31.843 133.953,31.711 133.876,31.575C133.826,31.747 133.781,31.92 133.699,32.205L133.699,32.205ZM77.195,177.178C77.385,176.965 77.548,176.847 77.612,176.689C77.639,176.616 77.467,176.467 77.385,176.349C77.236,176.467 77.059,176.566 76.955,176.711C76.919,176.761 77.068,176.938 77.195,177.178ZM62.544,188.225C62.684,188.035 62.838,187.913 62.838,187.786C62.838,187.677 62.666,187.568 62.571,187.46C62.472,187.573 62.309,187.677 62.29,187.799C62.277,187.908 62.426,188.039 62.539,188.225L62.544,188.225ZM139.4,16.847C139.291,16.779 139.182,16.716 139.074,16.648C138.988,16.893 138.906,17.142 138.82,17.386C138.892,17.418 138.969,17.449 139.042,17.481C139.16,17.268 139.282,17.056 139.4,16.843L139.4,16.847ZM49.065,200.572C48.916,200.449 48.789,200.273 48.708,200.291C48.581,200.323 48.418,200.472 48.4,200.594C48.386,200.685 48.576,200.889 48.676,200.889C48.789,200.889 48.902,200.717 49.065,200.572Z" />
    </symbol>
    <symbol id="visual-poltred-wagenn" viewBox="0 0 500 300">
      <path
        d="M397.972,24.303C398.843,24.183 399.109,23.768 398.907,22.907C398.158,23.117 397.699,23.4 397.972,24.303M72.934,136.122C71.171,135.802 70.289,137.458 68.898,137.899C68.577,138.001 68.387,138.521 68.086,138.917C70.249,139.438 72.292,138.218 72.934,136.122M113.378,164.768C113.159,164.754 112.939,164.74 112.72,164.726C112.399,165.513 111.951,166.274 111.783,167.093C111.409,168.916 111.09,170.761 110.91,172.612C110.769,174.055 110.37,175.723 111.522,176.85C112.699,178.001 114.134,178.954 115.594,179.735C117.235,180.612 119.078,181.105 120.749,181.934C123.594,183.346 125.398,185.514 125.874,188.826C126.095,190.361 126.98,191.81 127.64,193.264C127.763,193.533 128.248,193.638 128.838,193.974C128.97,192.966 129.136,192.204 129.154,191.439C129.184,190.167 129.132,188.892 129.089,187.62C128.995,184.787 128.95,181.93 126.057,180.242C125.949,180.179 125.891,180.034 125.803,179.934C123.405,177.23 120.737,175.167 116.782,175.768C115.582,175.951 114.568,175.036 114.421,173.834C114.275,172.64 114.25,171.431 114.109,170.237C113.893,168.411 113.624,166.591 113.378,164.768M239.906,171.072C242.764,172.309 245.736,172.498 248.769,171.991C249.75,171.826 250.699,171.44 251.682,171.325C252.441,171.237 253.375,171.174 253.973,171.532C254.86,172.064 255.686,171.768 256.537,171.809C256.718,171.818 256.922,171.594 257.088,171.625C258.394,171.86 259.82,172.589 260.962,172.273C262.3,171.903 263.557,171.953 264.86,171.895C265.438,171.87 266.017,171.845 266.595,171.811C266.922,171.793 267.271,171.67 267.572,171.744C270.449,172.457 273.313,171.532 276.197,171.666C277.734,171.738 279.312,171.009 280.865,170.62C282.297,170.261 283.732,169.982 285.22,170.052C285.457,170.063 285.706,169.927 285.94,169.835C287.367,169.276 288.784,168.692 290.223,168.164C290.489,168.067 290.84,168.179 291.147,168.227C291.269,168.245 291.441,168.436 291.484,168.404C292.965,167.312 294.959,168.041 296.42,167.079C297.939,166.078 299.533,165.594 301.326,165.659C301.456,165.664 301.644,165.547 301.712,165.602C303.523,167.068 304.473,165.294 305.501,164.454C306.665,163.502 307.663,163.022 309.056,164.31C309.548,163.56 309.989,162.888 310.48,162.14C311.665,163.06 312.596,163.572 313.626,162.727C315.387,163.177 316.398,161.995 317.6,161.046C318.346,160.456 319.391,160.243 320.375,159.83C320.703,160.129 321.031,160.428 321.361,160.727C321.644,160.416 321.986,159.859 322.133,159.907C323.428,160.325 323.774,159.313 324.291,158.571C324.928,157.657 325.694,156.95 326.849,156.82C327.11,157.297 327.376,157.782 327.673,158.323C328.394,157.508 328.907,156.627 329.67,156.126C331.261,155.08 332.978,154.221 334.658,153.314C335.235,153.002 335.995,152.911 336.425,152.476C337.182,151.711 337.979,151.536 338.975,151.897C339.691,150.64 340.425,149.544 342.079,149.798C342.387,149.846 342.761,149.464 343.109,149.271C343.871,149.217 343.871,149.217 344.098,148.16C343.659,148.663 343.368,148.996 343.076,149.329C343.294,148.466 343.607,147.766 344.538,147.324C345.273,146.973 345.813,146.215 346.733,145.367C346.587,145.939 346.524,146.181 346.426,146.565C347.316,146.386 347.926,146.041 348.146,145.15C348.335,144.383 348.851,144.088 349.581,143.717C350.663,143.167 351.571,142.18 352.37,141.225C352.643,140.898 352.365,140.109 352.334,139.417C353.442,139.27 353.818,138.694 352.808,137.485C354.64,137.742 355.71,136.899 356.203,135.606C356.619,134.514 356.597,133.255 356.782,131.974C356.911,131.947 357.22,131.883 357.853,131.751C357.336,131.255 356.959,130.892 356.558,130.507C356.569,130.44 356.549,130.229 356.615,130.198C358.135,129.476 357.37,127.78 358.084,126.712C358.128,126.647 357.786,126.344 357.649,126.135C357.346,125.67 357.204,125.261 357.566,124.677C358.343,123.427 357.398,122.217 357.271,120.986C357.245,120.739 356.666,120.342 356.368,120.365C354.921,120.476 354.538,119.439 354.231,118.426C353.811,117.038 353.53,115.609 353.179,114.149C350.938,113.524 350.468,112.528 350.798,110.188C349.765,109.392 348.791,108.641 348.293,108.258C347.893,106.184 347.656,104.663 347.296,103.172C346.97,101.819 346.619,100.453 346.078,99.178C345.623,98.106 344.978,97.075 344.237,96.173C343.508,95.284 343.451,94.54 344.169,93.699C344.62,93.17 344.774,92.715 344.53,91.933C344.375,91.434 345.025,90.685 345.358,89.95C344.854,89.746 344.508,89.606 344.034,89.413C344.244,88.877 344.454,88.344 344.67,87.793C344.234,87.176 343.764,86.567 343.356,85.918C342.98,85.321 341.476,85.694 342.176,84.117C342.886,84.478 343.65,84.866 344.491,85.293C345.071,84.449 344.829,83.426 344.72,82.194C344.056,82.495 343.571,82.714 343.086,82.933C343.759,81.982 342.962,80.272 344.673,79.98C344.794,79.959 344.81,79.18 344.83,78.752C344.856,78.212 344.836,77.668 344.836,76.945C344.745,76.872 344.454,76.64 344.013,76.29C344.503,76 344.869,75.783 345.158,75.613C345.359,74.49 345.549,73.424 345.769,72.191C345.611,72.101 345.223,71.878 344.734,71.598C345.317,71.221 345.843,70.881 346.48,70.468C346.098,69.841 345.766,69.296 345.453,68.783C346.097,68.301 346.738,67.821 347.261,67.429C347.13,66.407 347.022,65.563 346.9,64.613C347.199,64.388 347.545,64.2 347.798,63.926C348.525,63.14 349.209,62.378 348.872,61.108C348.447,59.51 349.069,58.136 350.151,56.951C350.286,56.802 350.446,56.667 350.551,56.498C351.263,55.363 351.913,54.656 352.649,54.246C353.342,53.909 354.524,54.209 354.543,52.582C353.778,53.256 353.212,53.755 352.645,54.254C352.751,54.008 352.861,53.764 352.962,53.516C353.602,51.951 353.601,51.951 355.368,52.162C355.6,51.387 355.374,50.503 356.33,49.841C356.906,49.441 356.702,48.052 357.712,47.604C358.463,47.27 359.471,47.144 359.908,46.575C360.362,45.981 360.165,44.93 360.448,44.15C360.669,43.544 361.19,43.047 361.557,42.531C362.277,42.436 362.945,42.347 363.614,42.259C363.465,41.794 363.315,41.329 363.208,40.993C363.743,40.284 364.221,39.569 364.784,38.927C365.303,38.336 365.912,37.823 366.669,37.096L366.669,38.574L366.928,38.675C367.146,38.327 367.53,37.99 367.554,37.629C367.691,35.588 369.094,35.042 370.922,34.786C370.866,34.387 370.816,34.035 370.805,33.956C371.714,32.969 372.397,31.965 373.322,31.294C374.31,30.576 375.528,30.173 376.945,29.487C377.047,29.316 377.254,28.507 377.707,28.33C378.213,28.133 379.009,28.384 379.558,28.671C380.352,29.085 380.925,28.896 381.215,28.196C381.914,26.517 383.109,25.451 384.734,24.683C385.451,24.344 385.767,23.227 386.861,23.508C387.672,23.716 388.427,23.888 389.092,23.071C389.233,22.898 389.903,23.155 390.489,23.236C390.507,21.974 391.454,21.62 392.567,21.364C393.385,21.176 394.167,20.819 394.954,20.509C395.511,20.289 396.03,19.878 396.6,19.799C398.013,19.602 399.058,18.905 399.839,17.698C401.957,18.424 403.563,17.725 404.897,15.895C405.891,16.732 406.9,16.387 408.024,15.991C409.066,15.624 410.239,15.63 411.354,15.471C411.208,15.713 411.064,15.955 410.918,16.197C410.993,16.285 411.068,16.372 411.143,16.46C411.59,16.257 412.037,16.054 412.484,15.851C412.446,15.746 412.408,15.641 412.37,15.535L411.27,15.535C412.121,15.176 412.947,14.717 413.832,14.484C414.843,14.219 415.896,14.138 415.729,12.493C416.413,12.914 416.787,13.144 417.283,13.449C417.537,13.032 417.761,12.664 417.984,12.297C418.168,12.446 418.376,12.747 418.542,12.725C419.973,12.535 421.463,12.474 422.802,12C424.036,11.563 424.944,11.59 425.668,12.597C426.561,11.748 427.367,10.965 428.195,10.206C428.376,10.039 428.656,9.827 428.855,9.858C429.975,10.031 430.906,9.86 431.88,9.135C432.349,8.786 433.33,9.136 434.079,9.148C434.91,9.161 435.741,9.151 436.806,9.151C436.795,9.137 436.981,9.383 437.24,9.725C437.804,8.825 438.574,8.809 439.555,8.69C441.276,8.479 442.908,7.567 444.59,6.984C445.068,6.818 445.681,6.548 446.074,6.71C448.168,7.575 449.819,6.614 451.693,5.585C453.003,6.836 454.675,5.619 456.255,5.88C457.365,4.203 458.503,3.545 460.073,4.281C462.402,5.375 464.353,4.358 466.413,3.661C466.779,3.538 467.231,3.198 467.489,3.311C468.512,3.763 469.103,3.178 469.682,2.483C470.289,2.873 470.822,3.216 471.472,3.634C471.689,3.095 471.849,2.699 472.001,2.325C472.207,2.34 472.356,2.309 472.46,2.364C473.682,3.025 474.871,3.658 476.318,2.859C476.817,2.584 477.473,2.576 478.064,2.486C479.574,2.254 481.123,2.431 482.595,1.726C483.449,1.317 484.687,2.175 485.482,1.056C485.524,0.996 486.161,1.359 486.802,1.656C487.047,1.246 487.317,0.792 487.494,0.495C487.79,0.472 487.878,0.437 487.918,0.466C489.621,1.715 491.481,0.993 493.287,0.89C495.056,0.789 496.825,0.685 498.589,0.521C498.95,0.488 499.285,0.183 499.638,-0C500.046,1.483 500.155,297.275 499.726,299.547C499.258,299.603 1.071,299.501 0,299.547C0,63.774 0,305.923 0,70C0,70 0.426,70.215 1.182,70.911C2.07,71.73 3.165,71.826 4.371,71.55C8.381,70.632 12.134,69.028 15.781,67.206C17.606,66.294 19.221,64.963 20.929,63.818C20.984,63.782 21.01,63.697 21.066,63.673C23.337,62.699 24.87,60.77 26.74,59.278C27.365,58.778 28.004,58.279 28.553,57.701C32.212,53.855 35.46,49.671 38.539,45.356C39.118,44.545 39.479,43.581 39.961,42.698C42.5,38.049 45.125,33.444 47.558,28.74C48.855,26.232 50.208,23.793 51.835,21.474C54.172,18.144 57.511,16.442 61.284,15.894C65.864,15.228 68.879,19.394 67.781,23.658C67.334,25.392 66.462,27.017 65.768,28.685C64.275,32.275 62.814,35.88 61.259,39.443C59.812,42.758 58.244,46.019 56.761,49.318C55.833,51.382 54.962,53.473 54.061,55.563C56.062,56.209 56.117,56.236 56.949,54.565C58.412,51.628 59.802,48.655 61.221,45.697C62.64,42.736 64.168,39.819 65.445,36.797C66.538,34.211 67.348,31.506 68.274,28.85C68.978,26.83 69.664,24.804 70.36,22.782C70.863,21.322 71.923,20.307 73.055,19.332C74.322,18.24 75.758,18.113 77.188,18.763C78.57,19.391 78.93,20.733 78.953,22.143C78.961,22.602 78.852,23.077 78.721,23.522C78.207,25.26 77.689,26.996 77.124,28.717C75.385,34.007 73.648,39.302 70.651,44.06C70.046,45.02 69.335,45.913 68.689,46.848C66.018,50.719 63.614,54.746 61.684,59.042C61.46,59.542 61.424,60.126 61.215,61.05C62.685,60.232 63.451,59.313 64.112,58.331C65.61,56.103 67.052,53.837 68.512,51.582C69.095,50.682 69.67,49.776 70.24,48.869C70.737,48.078 71.304,47.341 71.123,46.276C71.055,45.876 71.324,45.387 71.519,44.977C73.392,41.042 75.419,37.174 77.125,33.169C78.541,29.844 79.629,26.375 80.779,22.943C81.476,20.865 82.188,20.14 84.094,19.992C85.579,19.877 86.82,20.576 87.08,22.07C87.363,23.698 87.592,25.445 87.301,27.041C86.431,31.809 84.825,36.363 82.568,40.669C82.352,41.081 82.026,41.436 81.744,41.811C78.319,46.373 74.885,50.928 71.476,55.503C71.099,56.01 70.867,56.625 70.567,57.19C70.678,57.301 70.789,57.412 70.9,57.524C72.175,56.652 73.625,55.952 74.685,54.87C76.417,53.103 78.168,51.246 79.409,49.132C80.751,46.845 82.486,44.928 84.073,42.865C84.555,42.238 84.905,41.484 85.202,40.742C86.521,37.44 87.745,34.098 89.116,30.818C89.759,29.279 90.529,27.758 91.475,26.391C92.598,24.767 93.273,24.844 94.984,25.927C97.304,27.395 98.531,29.385 98.884,32.139C99.509,37.016 99.16,41.675 96.498,45.939C94.226,49.578 91.81,53.128 89.58,56.793C87.244,60.63 84.921,64.488 82.861,68.475C81.96,70.22 81.54,72.281 81.238,74.25C80.944,76.169 81.675,77.989 82.966,79.445C84.428,81.093 86.04,82.607 87.555,84.21C90.313,87.13 93.009,90.111 95.804,92.996C98.021,95.286 98.265,99.608 96.363,102.315C95.479,103.574 94.204,104.215 92.786,104.304C89.846,104.486 86.851,104.805 83.955,104.448C79.711,103.923 75.519,102.926 71.334,101.998C66.845,101.004 62.297,100.496 57.761,101.086C53.244,101.673 48.781,102.738 44.605,104.694C41.279,106.251 37.914,107.734 34.661,109.434C30.872,111.414 27.19,113.601 23.453,115.684C22.134,116.42 20.791,117.114 19.411,117.853C19.601,118.152 19.665,118.397 19.811,118.463C22.546,119.706 25.165,121.143 28.122,121.961C31.466,122.886 34.709,124.261 37.879,125.697C39.87,126.599 41.666,127.946 43.515,129.146C45.006,130.113 45.692,130.065 46.707,128.593C47.888,126.88 49.002,125.178 50.793,123.947C53.181,122.306 55.686,121.548 58.552,122.035C59.905,122.264 61.208,122.166 62.487,121.586C64.373,120.73 66.303,120.012 67.934,118.637C69.337,117.454 71.145,117.2 72.902,117.461C75.792,117.888 78.177,119.348 80.083,121.557C80.333,121.848 80.438,122.264 80.609,122.622C81.379,124.241 82.079,125.899 82.953,127.46C83.288,128.059 83.982,128.488 84.574,128.909C86.8,130.492 89.201,131.314 91.946,130.448C92.073,130.408 92.205,130.371 92.337,130.364C95.262,130.203 100.306,133.508 101.354,136.277C101.423,136.459 101.423,136.667 101.489,137.069C99.166,138.697 96.264,139.255 93.794,140.687C91.307,142.129 88.791,143.521 86.125,145.025C86.05,144.471 85.852,144.002 85.957,143.615C86.406,141.948 85.663,140.455 85.346,138.909C85.103,137.715 84.265,136.967 83.19,136.406C81.166,135.35 79.199,134.185 77.171,133.137C75.525,132.288 74.424,131.035 73.878,129.272C73.759,128.888 73.608,128.51 73.429,128.152C72.422,126.138 71.366,125.646 69.184,126.334C66.659,127.129 64.916,128.659 64.3,131.413C64.065,132.466 63.311,133.44 62.661,134.355C61.303,136.265 59.785,138.062 58.465,139.996C56.569,142.776 57.061,144.293 58.558,147.121C59.197,148.327 60.442,148.539 61.573,148.032C61.465,146.279 61.363,144.618 61.257,142.887C60.788,142.925 60.357,142.959 59.946,142.992C59.471,141.345 60.081,140.248 61.251,139.206C63.921,136.826 66.222,134.132 67.739,130.836C67.988,130.294 68.34,129.776 68.739,129.331C69.624,128.348 71.049,128.37 71.924,129.361C72.231,129.708 72.528,130.115 72.673,130.546C73.836,133.992 76.658,135.811 79.715,136.971C82.3,137.952 83.451,139.737 84.031,142.072C84.455,143.786 84.401,145.564 82.733,146.817C81.663,147.62 80.71,148.608 79.567,149.278C75.279,151.791 74.651,157.028 76.082,160.946C76.112,161.029 76.303,161.054 76.646,161.207C77.026,159.388 77.632,157.621 77.713,155.829C77.83,153.24 78.94,151.672 81.405,151C81.66,150.93 81.918,150.82 82.137,150.673C84.075,149.371 85.948,147.965 87.948,146.768C91.803,144.459 95.612,142.023 99.661,140.104C102.844,138.595 106.344,137.738 109.736,136.697C110.595,136.432 111.609,136.392 112.497,136.554C115.134,137.035 117.769,137.57 120.35,138.282C121.611,138.629 122.857,139.266 123.925,140.031C126.832,142.115 129.175,144.784 131.404,147.57C133.158,149.762 135.064,151.831 136.856,153.994C137.398,154.648 137.95,155.374 138.215,156.162C139.268,159.29 140.759,162.151 142.575,164.919C144.064,167.188 145.279,169.694 146.248,172.235C148.277,177.563 150.059,182.986 151.962,188.363C152.149,188.89 152.475,189.369 152.737,189.87C152.894,189.814 153.051,189.758 153.208,189.702C152.995,188.896 152.813,188.082 152.566,187.287C151.095,182.544 149.546,177.824 148.157,173.058C147.578,171.069 147.314,168.987 146.93,166.944C145.705,160.417 144.226,153.964 142.164,147.633C140.651,142.988 139.2,138.329 137.403,133.786C136.614,131.793 135.719,129.838 135.018,127.816C134.455,126.189 134.13,124.48 133.659,122.819C133.479,122.182 133.196,121.575 132.941,120.961C132.79,120.596 132.474,120.254 132.454,119.889C132.348,118.012 131.143,116.445 130.908,114.669C130.556,112.003 128.995,109.593 129.337,106.806C129.345,106.74 129.352,106.666 129.331,106.605C128.425,103.995 127.506,101.39 126.615,98.775C126.447,98.281 126.356,97.755 126.28,97.236C125.77,93.69 125.136,90.154 124.815,86.59C124.545,83.596 124.504,80.564 124.619,77.559C124.753,74.079 125.113,70.603 125.497,67.14C125.613,66.102 125.979,65.017 126.506,64.115C127.738,62.005 129.085,60.857 132.135,61.212C134.462,61.483 136.297,62.414 137.328,64.486C138.548,66.94 139.76,69.433 140.606,72.029C142.223,76.99 143.558,82.041 145.059,87.041C145.345,87.994 145.783,88.918 146.27,89.788C147.295,91.62 147.763,91.787 149.848,91.385C151.615,91.045 153.216,90.267 154.427,89.002C156.463,86.875 158.318,84.576 160.251,82.352C161.526,80.886 162.657,79.253 164.112,77.995C167.71,74.88 171.467,71.949 175.142,68.922C176.588,67.731 177.967,66.458 179.413,65.264C180.134,64.669 180.927,64.158 181.704,63.631C184.587,61.673 187.573,62.344 190.586,63.268C191.781,63.634 191.195,64.751 191.6,65.526C192.531,65.447 193.448,65.369 194.423,65.285C188.799,67.511 184.595,71.111 181.765,76.47C178.847,81.997 174.988,86.787 169.343,89.833C167.524,90.814 165.644,91.682 163.816,92.648C162.849,93.158 161.678,93.457 161.218,94.664C162.036,95.756 163.015,95.601 163.964,95.174C169.011,92.902 173.637,90.095 177.417,85.892C180.372,82.607 182.84,79.083 184.711,75.104C185.492,73.443 186.694,72.126 188.042,70.871C190.226,68.838 192.709,67.287 195.326,65.928C195.691,65.739 196.504,65.811 196.733,66.081C197.42,66.892 198.355,66.968 199.236,67.238C199.491,67.317 199.788,67.296 200.02,67.412C201.423,68.12 202.782,68.874 202.856,70.729C202.918,72.268 202.114,73.33 200.232,74.156C198.514,74.909 196.742,75.562 195.094,76.446C194.053,77.004 193.133,77.838 192.269,78.663C189.441,81.365 187.027,84.412 184.885,87.681C184.52,88.238 184.135,88.819 183.637,89.244C179.6,92.69 175.345,95.846 170.859,98.687C170.219,99.092 169.308,99.289 169.388,100.376C170.225,101.087 170.986,100.583 171.617,100.194C174.414,98.469 177.231,96.763 179.921,94.879C183.789,92.17 186.947,88.736 189.833,84.991C191.414,82.939 193.634,81.385 195.271,79.367C197.421,76.718 200.635,76.186 203.407,74.787C205.126,73.92 208.699,75.412 209.831,76.762C211.546,78.81 211.524,81.274 210.583,82.95C209.422,85.019 208.086,86.952 206.293,88.485C204.105,90.357 201.789,92.078 199.526,93.861C197.207,95.689 194.874,97.499 192.569,99.345C191.154,100.478 189.825,101.723 188.369,102.799C187.765,103.245 186.937,103.397 186.199,103.652C184.497,104.242 182.798,104.842 181.081,105.386C176.371,106.882 172.149,109.391 167.836,111.714C165.647,112.893 163.438,114.034 161.265,115.237C160.152,115.853 159.073,116.536 158.019,117.248C155.351,119.052 154.047,121.722 153.367,124.764C153.027,126.287 152.723,127.818 152.402,129.345C152.562,129.411 152.722,129.477 152.882,129.543C153.626,128.394 154.424,127.274 155.105,126.087C157.418,122.062 160.829,119.221 164.781,116.932C170.829,113.43 177.317,110.883 183.762,108.258C186.712,107.057 189.441,105.551 191.8,103.415C193.934,101.481 195.947,99.407 198.153,97.56C199.577,96.367 201.236,95.447 202.818,94.449C204.18,93.589 205.571,92.776 206.966,91.971C208.855,90.884 210.8,90.451 212.918,91.376C214.857,92.224 216.002,93.834 215.9,95.951C215.741,99.242 214.432,102.039 212.147,104.407C209.011,107.658 205.49,110.348 201.602,112.702C195.875,116.171 190.121,119.659 185.054,124.103C183.899,125.117 182.822,126.232 181.793,127.376C180.063,129.3 179.633,131.549 180.019,134.107C180.599,137.957 182.059,141.421 183.903,144.818C186.17,148.994 188.181,153.309 190.325,157.553C191.11,159.106 191.834,160.717 192.83,162.129C193.404,162.943 194.404,163.543 195.332,163.992C195.993,164.313 196.378,164.726 196.739,165.305C198.05,167.404 200.252,168.351 202.326,169.4C203.11,169.796 204.159,169.628 205.022,169.916C208.572,171.101 212.256,171.555 215.924,171.254C218.159,171.072 220.306,170.397 222.526,171.333C222.853,171.471 223.385,171.05 223.836,170.986C224.917,170.83 225.894,170.461 227.105,171.068C228.104,171.569 229.494,171.328 230.711,171.339C231.226,171.344 234.266,171.419 234.7,171.442C235.593,171.49 236.493,172.132 237.405,171.199C237.691,170.908 238.595,171.221 239.215,171.258C239.421,171.493 239.716,171.962 239.817,171.924C240.264,171.752 240.274,171.402 239.906,171.072" />
    </symbol>
  </defs>
</svg>
  
